<svg width="161" height="160" viewBox="0 0 161 160" fill="none" xmlns="http://www.w3.org/2000/svg">
<path d="M126.392 139.767H151.245V135.395H126.392V139.767Z" fill="#18181B"/>
<path d="M151.245 140.036H126.392C126.243 140.036 126.123 139.916 126.123 139.767V135.395C126.123 135.247 126.243 135.126 126.392 135.126H151.245C151.393 135.126 151.514 135.247 151.514 135.395V139.767C151.514 139.916 151.393 140.036 151.245 140.036ZM126.66 139.497H150.975V135.664H126.66V139.497Z" fill="#18181B"/>
<path d="M16.8945 80.6688C15.6908 80.427 14.5981 79.773 13.8177 78.8257C13.0365 77.8792 12.603 76.6822 12.5949 75.4542L13.1328 75.4505C13.1401 76.555 13.5304 77.6316 14.2329 78.4833C14.9347 79.335 15.9179 79.9236 17.0004 80.1411L16.8945 80.6688Z" fill="white"/>
<path d="M126.391 135.395H43.1864V139.766H126.391V135.395Z" fill="white"/>
<path d="M126.391 140.036H43.1864C43.038 140.036 42.9174 139.916 42.9174 139.767V135.395C42.9174 135.247 43.038 135.126 43.1864 135.126H126.391C126.539 135.126 126.66 135.247 126.66 135.395V139.767C126.66 139.916 126.54 140.036 126.391 140.036ZM43.4554 139.497H126.122V135.664H43.4554V139.497Z" fill="#18181B"/>
<path d="M121.584 85.671C121.584 85.671 117.767 86.0766 112.405 88.0335C107.884 89.684 102.158 94.2622 102.158 94.2622L97.3927 78.8471C96.4616 76.555 86.0714 82.902 87.0473 84.6686C87.0473 84.6686 90.6658 106.353 96.8209 109.016C104.177 112.199 125.899 97.3582 125.899 97.3582L121.584 85.671Z" fill="white"/>
<path d="M97.051 80.6901C97.051 80.6901 95.4122 74.8715 95.6724 72.7793C95.9325 70.6872 96.9216 67.891 94.8978 68.3878C92.874 68.8846 92.7792 71.0289 92.7792 71.0289C92.7792 71.0289 90.1359 61.6352 87.9659 61.9401C85.7958 62.2444 88.7088 69.0587 88.7088 69.0587C88.7088 69.0587 83.7507 70.4366 83.531 73.3474C83.4266 74.7274 86.1934 82.0819 87.694 83.2959C88.2892 84.7598 97.6462 82.1547 97.051 80.6901Z" fill="white"/>
<path d="M89.0726 83.9918C88.2826 83.9918 87.6866 83.8412 87.4779 83.4642C85.9186 82.0996 83.1547 74.7678 83.2635 73.3268C83.4656 70.6526 87.2464 69.2424 88.3473 68.8875C87.8645 67.7088 86.3146 63.6663 87.1296 62.2208C87.3038 61.9115 87.5801 61.7226 87.9291 61.6734C89.8978 61.3993 91.9459 67.3355 92.7542 69.9876C93.0291 69.2843 93.6096 68.4275 94.8339 68.1269C95.3615 67.9968 95.7679 68.0615 96.0405 68.3172C96.6314 68.8735 96.3977 70.1603 96.15 71.5234C96.0714 71.9555 95.9906 72.4023 95.9399 72.8124C95.6951 74.7811 97.2229 80.3021 97.3074 80.6049C97.5477 81.2376 96.7769 81.921 95.0161 82.636C93.4274 83.2805 90.7899 83.9918 89.0726 83.9918ZM88.0776 62.201C88.0526 62.201 88.0276 62.2032 88.0026 62.2061C87.8189 62.2319 87.6903 62.3208 87.5977 62.4847C86.9415 63.6472 88.3561 67.5471 88.9565 68.9522C88.9866 69.0234 88.9851 69.1043 88.9513 69.1741C88.9175 69.2439 88.8558 69.2961 88.7808 69.3174C88.7331 69.3306 84.002 70.6784 83.7992 73.3672C83.7007 74.6797 86.4131 81.9136 87.863 83.0857C87.8983 83.1144 87.9255 83.1511 87.9431 83.1938C88.1871 83.7949 91.8474 83.3407 94.8126 82.1363C96.3984 81.4926 96.8739 80.9693 96.8011 80.7908C96.7974 80.7812 96.7945 80.7724 96.7916 80.7628C96.724 80.5225 95.1411 74.8671 95.4049 72.7462C95.4578 72.3215 95.5401 71.8666 95.6202 71.4272C95.8215 70.3197 96.0493 69.0646 95.6716 68.7089C95.5408 68.5862 95.3027 68.5656 94.9618 68.6487C93.1635 69.0903 93.0526 70.9613 93.0482 71.0406C93.0416 71.1729 92.9409 71.2809 92.8094 71.2956C92.6763 71.3125 92.5558 71.228 92.5198 71.1016C91.5402 67.6191 89.487 62.201 88.0776 62.201Z" fill="#18181B"/>
<path d="M88.7823 69.1403L90.3667 72.9527C90.6253 73.5752 90.349 74.2814 89.7494 74.5305C89.1497 74.7796 88.4546 74.4776 88.1959 73.8551L86.6115 70.0427C86.3529 69.4203 86.6284 68.7126 87.2281 68.4635C87.5286 68.3385 87.8527 68.3532 88.1327 68.4745C88.4156 68.5972 88.6537 68.8302 88.7823 69.1403Z" fill="white"/>
<path d="M89.3129 74.8877C89.1189 74.8877 88.9241 74.8472 88.7382 74.7664C88.3803 74.6106 88.0996 74.324 87.9482 73.9581L86.3639 70.1456C86.0486 69.3865 86.3903 68.5201 87.1252 68.2144C87.4831 68.0659 87.8792 68.0703 88.24 68.2276C88.5979 68.3834 88.8786 68.6707 89.0307 69.0367L90.615 72.8491C90.7672 73.2144 90.7723 73.6163 90.6297 73.9786C90.4864 74.3453 90.2101 74.629 89.8523 74.7782C89.6788 74.8516 89.4958 74.8877 89.3129 74.8877ZM87.6646 68.645C87.5514 68.645 87.4382 68.6671 87.3317 68.7119C86.8702 68.9037 86.6593 69.4541 86.8606 69.9391L88.445 73.7516C88.5427 73.9882 88.7235 74.1726 88.9528 74.2726C89.1791 74.371 89.4253 74.374 89.6465 74.2821C89.8684 74.1903 90.0396 74.0132 90.1293 73.7839C90.2204 73.5509 90.2167 73.293 90.1183 73.0564L88.5339 69.2439C88.4354 69.0066 88.2554 68.8214 88.0254 68.7214C87.9085 68.6707 87.7866 68.645 87.6646 68.645Z" fill="#18181B"/>
<path d="M86.6461 70.1478L88.1738 73.8243C88.423 74.4239 88.1569 75.1051 87.5786 75.3454C87.0003 75.5857 86.3301 75.294 86.081 74.6944L84.5532 71.0178C84.3041 70.4182 84.5693 69.7355 85.1477 69.4952C85.4372 69.3747 85.7495 69.3887 86.02 69.5062C86.2919 69.6245 86.5219 69.8487 86.6461 70.1478Z" fill="white"/>
<path d="M87.1568 75.6996C86.9679 75.6996 86.7791 75.6607 86.599 75.5821C86.2522 75.4314 85.9795 75.1529 85.8318 74.798L84.3041 71.1215C83.9976 70.3851 84.3298 69.5437 85.0433 69.2468C85.3909 69.1028 85.776 69.1065 86.1258 69.2593C86.4734 69.4107 86.746 69.6892 86.8937 70.0449L88.4215 73.7214C88.5692 74.0763 88.5743 74.4658 88.4362 74.8178C88.2966 75.1742 88.0291 75.4498 87.6815 75.5938C87.5132 75.6644 87.3354 75.6996 87.1568 75.6996ZM85.568 69.6804C85.46 69.6804 85.3527 69.7017 85.2506 69.7443C84.8104 69.9273 84.609 70.4527 84.8016 70.9157L86.3293 74.5922C86.4227 74.8178 86.5954 74.9942 86.8136 75.089C87.0289 75.1823 87.2641 75.1852 87.475 75.0978C87.6866 75.0096 87.8498 74.8413 87.9357 74.6223C88.0225 74.4004 88.0188 74.1535 87.9247 73.9286L86.3969 70.2521C86.3029 70.0258 86.1309 69.8487 85.9119 69.7539C85.8002 69.7046 85.6834 69.6804 85.568 69.6804Z" fill="#18181B"/>
<path d="M84.8265 71.6983L86.114 74.7965C86.3242 75.3021 86.0611 75.8922 85.5261 76.1141C84.9911 76.3368 84.3871 76.1068 84.1769 75.6012L82.996 72.7595C82.7858 72.2539 82.9416 71.4059 83.4766 71.1832C83.7448 71.0715 84.0292 71.0744 84.2725 71.167C84.5186 71.2611 84.7215 71.4463 84.8265 71.6983Z" fill="white"/>
<path d="M85.1043 76.4691C84.9449 76.4691 84.7854 76.4404 84.634 76.3831C84.3092 76.2596 84.0586 76.0193 83.9285 75.7055L82.7476 72.8638C82.4801 72.2194 82.6999 71.2163 83.3737 70.9356C83.6956 70.8018 84.0498 70.7952 84.3687 70.9165C84.6935 71.0399 84.9441 71.2809 85.0749 71.5955L86.3624 74.6936C86.6292 75.3352 86.2999 76.0847 85.629 76.3632C85.4593 76.4338 85.2814 76.4691 85.1043 76.4691ZM83.8977 71.3684C83.7904 71.3684 83.6824 71.3897 83.5795 71.4331C83.2157 71.5844 83.0798 72.262 83.2437 72.6573L84.4246 75.4991C84.4973 75.6747 84.6392 75.8099 84.8243 75.8804C85.0147 75.9525 85.2263 75.9481 85.4218 75.8665C85.8186 75.7019 86.017 75.2683 85.8649 74.9001L84.5774 71.802C84.504 71.6256 84.3621 71.4904 84.1769 71.4198C84.0873 71.3853 83.9932 71.3684 83.8977 71.3684Z" fill="#18181B"/>
<path d="M92.7792 71.0289C92.7792 71.0289 91.9635 73.0872 92.6631 74.4776C92.6631 74.4776 91.4403 75.2146 90.9046 76.4918C90.3689 77.7697 90.9898 78.8456 90.9898 78.8456" fill="white"/>
<path d="M90.9891 79.1145C90.8958 79.1145 90.8061 79.0668 90.7561 78.9801C90.7282 78.9308 90.0757 77.772 90.6562 76.3875C91.092 75.3484 91.9393 74.6554 92.3251 74.3791C91.7541 72.9182 92.4956 71.0134 92.5294 70.9289C92.5837 70.7908 92.7395 70.7232 92.8784 70.7776C93.0166 70.8319 93.0842 70.9885 93.0298 71.1266C93.0225 71.1457 92.2677 73.0909 92.9034 74.3556C92.9666 74.4812 92.9225 74.6341 92.802 74.7069C92.7902 74.7142 91.6453 75.4182 91.1522 76.5954C90.6775 77.7271 91.2 78.6722 91.2228 78.7118C91.2955 78.8404 91.2514 79.0051 91.1221 79.0785C91.0809 79.1028 91.0347 79.1145 90.9891 79.1145Z" fill="#18181B"/>
<path d="M98.7301 83.5979C98.7301 83.5979 90.3446 85.4704 88.079 89.9479L87.048 84.6686C86.0721 82.9013 96.4609 76.5543 97.3934 78.8456L98.7301 83.5979Z" fill="#F97316"/>
<path d="M99.332 109.732C98.3443 109.732 97.4603 109.586 96.7144 109.264C90.571 106.606 87.0172 86.106 86.7894 84.7539C86.6343 84.4246 86.7181 84.0109 87.04 83.5215C88.431 81.408 94.3033 77.8565 96.6402 78.096C97.2758 78.1585 97.536 78.484 97.6425 78.7456L102.299 93.8103C103.558 92.8381 108.403 89.2079 112.313 87.7808C117.644 85.8356 121.517 85.4072 121.556 85.4035C121.679 85.3917 121.794 85.4623 121.837 85.5776L126.151 97.2649C126.194 97.381 126.152 97.5111 126.051 97.5809C125.249 98.1283 108.153 109.731 99.332 109.732ZM96.3991 78.6222C94.1688 78.6222 88.7147 81.9548 87.4897 83.8169C87.278 84.1388 87.2046 84.3953 87.2832 84.5378C87.2979 84.5643 87.3082 84.5937 87.3133 84.6238C87.3493 84.8391 90.9773 106.194 96.9282 108.769C103.722 111.712 123.504 98.6413 125.574 97.2531L121.406 85.9642C120.544 86.0803 117.067 86.6182 112.498 88.2863C108.071 89.9023 102.383 94.4276 102.326 94.4724C102.257 94.5282 102.163 94.5452 102.079 94.5194C101.994 94.493 101.927 94.4268 101.901 94.3416L97.1362 78.9264C97.1164 78.8809 97.0326 78.6751 96.5873 78.6317C96.5277 78.6251 96.4645 78.6222 96.3991 78.6222Z" fill="#18181B"/>
<path d="M121.086 130.427C120.952 130.427 120.836 130.327 120.819 130.191C119.645 120.611 124.649 87.2745 126.096 84.9075C126.174 84.7803 126.34 84.7407 126.467 84.8178C126.594 84.8957 126.634 85.0611 126.556 85.1882C125.124 87.5295 120.187 120.603 121.354 130.125C121.372 130.273 121.267 130.407 121.119 130.425C121.108 130.427 121.097 130.427 121.086 130.427Z" fill="#18181B"/>
<path d="M114.059 97.9586C111.894 110.733 111.733 131.438 111.398 135.395H146.09C148.571 126.495 154.35 94.3049 150.632 89.3953C146.18 83.5171 133.996 84.1065 128.288 84.468C124.957 84.6789 122.393 85.0067 116.348 86.9026" fill="white"/>
<path d="M146.09 135.664H111.398C111.323 135.664 111.251 135.632 111.2 135.577C111.149 135.522 111.124 135.447 111.13 135.372C111.214 134.38 111.289 132.268 111.384 129.593C111.679 121.323 112.171 107.484 113.794 97.9137C113.819 97.7668 113.958 97.6698 114.104 97.6933C114.251 97.7183 114.35 97.8572 114.325 98.0034C112.708 107.539 112.216 121.357 111.922 129.612C111.832 132.151 111.764 134.048 111.689 135.125H145.885C148.538 125.447 153.952 94.2247 150.417 89.5569C145.921 83.6207 133.123 84.4313 128.305 84.7362C124.826 84.9567 122.559 85.1779 116.43 87.1583C116.288 87.2046 116.137 87.1267 116.091 86.9849C116.046 86.8438 116.123 86.6917 116.265 86.6461C122.443 84.6495 124.852 84.4151 128.271 84.1983C133.168 83.8882 146.176 83.0651 150.846 89.2314C154.746 94.3798 148.625 127.299 146.35 135.465C146.317 135.583 146.211 135.664 146.09 135.664Z" fill="#18181B"/>
<path d="M119.91 113.04C119.91 113.04 114.766 108.498 112.958 109.066C111.15 109.634 114 113.088 114 113.088C114 113.088 106.282 110.339 105.503 111.494C104.724 112.649 109.194 114.25 109.194 114.25C109.194 114.25 105.16 113.929 104.408 114.611C103.655 115.292 104.353 116.218 105.157 116.432C105.157 116.432 103.347 117.548 105.176 118.653C105.176 118.653 104.024 119.526 105.738 120.409C107.453 121.293 111.326 121.957 112.667 122.004C115.809 122.114 118.812 121.23 118.812 121.23C120.049 119.203 121.553 115.394 119.91 113.04Z" fill="white"/>
<path d="M113.225 122.282C113.036 122.282 112.848 122.28 112.657 122.272C111.382 122.227 107.399 121.567 105.615 120.647C104.936 120.298 104.572 119.888 104.532 119.431C104.505 119.126 104.633 118.873 104.763 118.699C104.318 118.364 104.092 117.99 104.089 117.583C104.087 117.126 104.379 116.748 104.636 116.504C104.243 116.276 103.942 115.913 103.848 115.527C103.75 115.118 103.884 114.721 104.228 114.411C104.741 113.946 106.372 113.881 107.654 113.905C106.63 113.43 105.414 112.734 105.186 112.039C105.106 111.795 105.138 111.554 105.28 111.344C106.012 110.261 110.838 111.725 113.252 112.544C112.672 111.716 111.884 110.378 112.139 109.519C112.21 109.279 112.396 108.962 112.878 108.81C114.774 108.217 119.55 112.365 120.088 112.84C120.104 112.853 120.118 112.87 120.131 112.887C121.741 115.194 120.551 118.899 119.042 121.371C119.008 121.429 118.953 121.47 118.889 121.49C118.771 121.523 116.153 122.282 113.225 122.282ZM107.21 114.442C106.032 114.442 104.894 114.533 104.588 114.81C104.393 114.987 104.319 115.185 104.372 115.401C104.452 115.731 104.819 116.063 105.227 116.172C105.331 116.2 105.408 116.287 105.423 116.393C105.439 116.499 105.389 116.605 105.298 116.662C105.111 116.778 104.625 117.171 104.627 117.582C104.63 117.865 104.861 118.148 105.315 118.423C105.392 118.469 105.44 118.55 105.445 118.639C105.449 118.728 105.409 118.813 105.338 118.868C105.337 118.869 105.041 119.102 105.068 119.389C105.091 119.645 105.366 119.915 105.861 120.17C107.579 121.056 111.437 121.692 112.676 121.736C115.422 121.833 118.095 121.149 118.637 121C120.029 118.678 121.122 115.29 119.707 113.221C118.286 111.971 114.391 108.897 113.038 109.323C112.761 109.41 112.686 109.564 112.654 109.671C112.437 110.401 113.491 112.05 114.206 112.917C114.283 113.01 114.289 113.144 114.219 113.242C114.15 113.341 114.023 113.383 113.908 113.341C110.291 112.053 106.133 111.037 105.725 111.644C105.676 111.716 105.667 111.784 105.696 111.87C105.923 112.563 108.017 113.542 109.284 113.995C109.411 114.041 109.485 114.173 109.457 114.306C109.428 114.438 109.305 114.53 109.172 114.517C108.612 114.473 107.904 114.442 107.21 114.442Z" fill="#18181B"/>
<path d="M108.963 117.018C108.956 117.018 108.948 117.018 108.94 117.017L105.134 116.7C104.986 116.687 104.876 116.558 104.889 116.409C104.901 116.262 105.029 116.147 105.179 116.164L108.985 116.481C109.134 116.494 109.243 116.623 109.231 116.772C109.22 116.912 109.102 117.018 108.963 117.018Z" fill="#18181B"/>
<path d="M109.01 119.139C109.005 119.139 109 119.139 108.995 119.139L105.161 118.92C105.012 118.912 104.899 118.785 104.907 118.637C104.915 118.488 105.046 118.379 105.191 118.383L109.025 118.602C109.173 118.61 109.286 118.738 109.278 118.885C109.27 119.029 109.152 119.139 109.01 119.139Z" fill="#18181B"/>
<path d="M148.852 127.998C145.516 131.02 130.214 127.066 122.942 124.957C120.591 124.276 119.081 123.786 119.081 123.786C117.093 123.821 119.421 111.911 121.409 111.878L125.007 112.733L140.12 116.329L142.28 96.7064L146.038 86.0854C146.038 86.0854 151.487 87.891 153.895 94.9067C156.211 101.655 153.433 123.849 148.852 127.998Z" fill="white"/>
<path d="M122.943 124.956C120.591 124.275 119.081 123.785 119.081 123.785C117.094 123.821 119.422 111.91 121.409 111.877L125.007 112.732C125.007 112.733 120.975 120.274 122.943 124.956Z" fill="#F97316"/>
<path d="M120.275 122.185C120.723 122.185 121.086 121.822 121.086 121.374C121.086 120.927 120.723 120.564 120.275 120.564C119.828 120.564 119.465 120.927 119.465 121.374C119.465 121.822 119.828 122.185 120.275 122.185Z" fill="white"/>
<path d="M144.161 129.355C135.64 129.355 120.222 124.437 119.037 124.055C118.787 124.043 118.467 123.904 118.266 123.351C118.138 122.995 118.067 122.493 118.056 121.858C118.001 118.675 119.585 111.64 121.406 111.608C121.426 111.605 121.451 111.61 121.473 111.615L139.887 115.996L142.015 96.677C142.031 96.5293 142.163 96.4235 142.312 96.4389C142.459 96.4551 142.566 96.5881 142.55 96.7358L140.389 116.357C140.381 116.434 140.339 116.504 140.276 116.548C140.213 116.592 140.134 116.608 140.059 116.59L121.387 112.147C121.262 112.165 120.977 112.298 120.567 113.039C119.148 115.597 118.079 122.056 118.859 123.355C118.956 123.518 119.039 123.515 119.077 123.516C119.106 123.516 119.136 123.52 119.164 123.53C119.416 123.611 144.421 131.645 148.671 127.797C153.152 123.739 155.935 101.684 153.64 94.9927C151.308 88.1952 146.007 86.3566 145.954 86.339C145.813 86.2919 145.737 86.1398 145.783 85.9987C145.83 85.8576 145.982 85.7827 146.123 85.8283C146.351 85.9039 151.727 87.7565 154.149 94.8185C155.256 98.0438 155.285 104.97 154.225 112.464C153.105 120.385 151.163 126.266 149.032 128.197C148.119 129.023 146.372 129.355 144.161 129.355Z" fill="#18181B"/>
<path d="M134.49 80.2778C134.49 80.2778 137.315 81.5058 138.141 84.6326C138.141 84.6326 138.508 90.8238 127.568 90.8077C128.14 88.9779 127.015 86.6469 126.326 85.0486L134.49 80.2778Z" fill="#F97316"/>
<path d="M127.612 91.0759C127.512 91.0773 127.411 91.0465 127.352 90.9664C127.302 90.8973 127.287 90.8084 127.313 90.7268C127.813 89.1248 126.901 87.0371 126.235 85.513L126.079 85.1544C126.026 85.0294 126.073 84.8839 126.19 84.8156L134.355 80.0449C134.429 80.0015 134.52 79.9964 134.598 80.0302C134.718 80.0824 137.552 81.3471 138.402 84.5628C138.407 84.5804 138.41 84.5981 138.41 84.6157C138.415 84.6921 138.503 86.4992 136.897 88.2004C135.096 90.1088 131.972 91.0759 127.612 91.0759ZM126.668 85.1595L126.728 85.2977C127.383 86.7968 128.264 88.814 127.916 90.5365C131.953 90.4939 134.838 89.5885 136.494 87.8432C137.849 86.4161 137.876 84.881 137.873 84.6708C137.178 82.0929 135.032 80.854 134.502 80.5821L126.668 85.1595Z" fill="#18181B"/>
<path d="M126.326 85.0478C126.326 85.0478 122.885 86.6888 122.059 90.0765C122.059 90.0765 120.666 87.7572 121.118 85.4557C121.678 82.6066 124.139 81.4382 124.139 81.4382L126.326 85.0478Z" fill="#F97316"/>
<path d="M122.058 90.3454C121.965 90.3454 121.877 90.2969 121.828 90.2146C121.769 90.1162 120.386 87.7793 120.853 85.4028C121.432 82.4545 123.917 81.2442 124.023 81.1942C124.147 81.1354 124.297 81.1803 124.368 81.2978L126.556 84.9082C126.595 84.9729 126.605 85.0522 126.584 85.125C126.562 85.1977 126.51 85.258 126.442 85.2911C126.409 85.3072 123.105 86.921 122.32 90.1404C122.294 90.2462 122.207 90.3263 122.099 90.3425C122.085 90.3447 122.072 90.3454 122.058 90.3454ZM124.042 81.799C123.454 82.1518 121.813 83.3128 121.381 85.5071C121.086 87.0099 121.628 88.545 121.994 89.3549C122.905 86.8108 125.169 85.3741 125.947 84.9427L124.042 81.799Z" fill="#18181B"/>
<path d="M134.079 71.1046L134.51 80.7416C134.513 83.146 124.175 88.5009 124.138 81.5521V73.6105L134.079 71.1046Z" fill="white"/>
<path d="M127.291 85.2536C125.097 85.2536 123.882 83.9404 123.869 81.5528V73.6097C123.869 73.4863 123.953 73.379 124.073 73.3488L134.014 70.843C134.091 70.8231 134.175 70.8393 134.24 70.8878C134.305 70.9363 134.344 71.0112 134.348 71.0921L134.779 80.729C134.782 82.5449 130.313 85.244 127.309 85.2543C127.303 85.2536 127.297 85.2536 127.291 85.2536ZM124.407 73.8191V81.5514C124.418 83.6509 125.389 84.7157 127.29 84.7157C127.296 84.7157 127.302 84.7157 127.307 84.7157C130.358 84.7061 134.242 82.0143 134.242 80.7415L133.825 71.4463L124.407 73.8191Z" fill="#18181B"/>
<path d="M134.052 71.1318C134.052 71.1318 138.785 68.5634 138.055 65.754C137.326 62.9469 134.061 65.7011 134.061 65.7011C134.061 65.7011 137.229 56.2001 129.182 53.7619C126.897 53.0703 124.787 54.2395 123.088 56.3559C118.683 61.8439 116.395 74.0933 121.68 76.2949C125.234 77.7749 128.651 76.4771 130.601 75.0868" fill="white"/>
<path d="M124.949 77.2252C123.897 77.2252 122.759 77.0356 121.577 76.5433C120.157 75.9517 119.19 74.6804 118.701 72.7631C117.528 68.1673 119.48 60.4219 122.878 56.1876C124.828 53.7582 127.035 52.83 129.261 53.5039C131.467 54.1726 133.058 55.4248 133.989 57.2245C135.469 60.0839 134.895 63.5237 134.528 65.0265C135.21 64.5805 136.309 64.019 137.188 64.299C137.743 64.4754 138.122 64.942 138.316 65.6857C139.089 68.6656 134.381 71.2589 134.18 71.3676C134.05 71.4382 133.887 71.3897 133.815 71.2596C133.744 71.1288 133.793 70.9657 133.923 70.8944C133.969 70.8694 138.463 68.3944 137.795 65.8209C137.649 65.2602 137.397 64.9303 137.024 64.812C136.137 64.5283 134.709 65.5057 134.234 65.9062C134.142 65.9841 134.01 65.9907 133.909 65.9231C133.809 65.8555 133.768 65.7298 133.805 65.6152C133.82 65.5689 135.318 60.962 133.51 57.4692C132.648 55.804 131.165 54.6429 129.104 54.0183C126.58 53.2548 124.554 54.9589 123.298 56.5235C119.989 60.646 118.084 68.1717 119.222 72.6294C119.666 74.374 120.528 75.5233 121.783 76.0458C125.891 77.7558 129.451 75.5755 130.444 74.8663C130.566 74.7803 130.733 74.8083 130.82 74.9288C130.906 75.05 130.878 75.2176 130.758 75.3043C129.991 75.8518 127.781 77.2252 124.949 77.2252Z" fill="#18181B"/>
<path d="M128.007 64.8394C128.105 64.365 127.889 63.9202 127.525 63.8458C127.162 63.7714 126.788 64.0957 126.691 64.57C126.594 65.0444 126.81 65.4892 127.174 65.5636C127.537 65.638 127.91 65.3137 128.007 64.8394Z" fill="#18181B"/>
<path d="M123.765 62.7562C123.862 62.2819 123.647 61.837 123.283 61.7626C122.92 61.6883 122.546 62.0125 122.449 62.4869C122.352 62.9612 122.568 63.4061 122.932 63.4804C123.295 63.5548 123.668 63.2306 123.765 62.7562Z" fill="#18181B"/>
<path d="M127.35 62.1319C127.35 62.1319 128.698 61.946 129.447 63.573L127.35 62.1319Z" fill="white"/>
<path d="M129.447 63.8419C129.345 63.8419 129.248 63.7839 129.203 63.6854C128.553 62.2715 127.432 62.3935 127.385 62.3987C127.237 62.4192 127.104 62.3134 127.085 62.1664C127.066 62.0195 127.168 61.885 127.314 61.8652C127.378 61.8549 128.87 61.6726 129.692 63.4605C129.754 63.5957 129.695 63.7552 129.56 63.8177C129.523 63.8346 129.485 63.8419 129.447 63.8419Z" fill="#18181B"/>
<path d="M122.546 60.7497C123.133 60.333 124.343 60.0427 124.925 61.6528L122.546 60.7497Z" fill="white"/>
<path d="M124.926 61.921C124.815 61.921 124.713 61.8527 124.673 61.7432C124.472 61.1891 124.185 60.8503 123.817 60.7357C123.415 60.6093 122.978 60.7732 122.703 60.9686C122.581 61.0553 122.414 61.0259 122.327 60.9047C122.241 60.7834 122.27 60.6159 122.391 60.5292C122.575 60.3984 123.235 59.9891 123.977 60.2213C124.514 60.3895 124.918 60.8393 125.178 61.5602C125.229 61.6998 125.156 61.8541 125.017 61.9048C124.987 61.9166 124.956 61.921 124.926 61.921Z" fill="#18181B"/>
<path d="M124.84 64.3542C124.157 65.5086 123.474 66.6631 122.792 67.8176C122.679 68.0079 122.564 68.2078 122.553 68.4282C122.539 68.7148 122.709 68.9845 122.932 69.1638C123.155 69.3431 123.429 69.4475 123.697 69.5481" fill="white"/>
<path d="M123.698 69.8171C123.666 69.8171 123.634 69.8112 123.603 69.7995C123.332 69.6973 123.025 69.5812 122.765 69.3732C122.448 69.1182 122.268 68.7604 122.285 68.4142C122.3 68.1218 122.445 67.8771 122.562 67.6801L124.61 64.2175C124.685 64.0896 124.851 64.047 124.978 64.1227C125.106 64.1983 125.148 64.3637 125.073 64.4908L123.025 67.9542C122.934 68.1078 122.831 68.2812 122.823 68.4407C122.813 68.6457 122.961 68.8397 123.102 68.9536C123.295 69.1087 123.549 69.2035 123.793 69.2961C123.932 69.3483 124.003 69.504 123.951 69.6429C123.909 69.751 123.807 69.8171 123.698 69.8171Z" fill="#18181B"/>
<path d="M125.758 71.7704C125.014 72.2517 124.122 72.3266 123.366 71.9724L125.758 71.7704Z" fill="white"/>
<path d="M124.362 72.4626C123.981 72.4626 123.603 72.381 123.251 72.2164C123.116 72.1532 123.058 71.993 123.122 71.8586C123.185 71.7241 123.345 71.666 123.479 71.7292C124.15 72.043 124.948 71.9747 125.612 71.5448C125.737 71.4639 125.904 71.4999 125.984 71.6249C126.065 71.7498 126.029 71.9166 125.904 71.9967C125.427 72.3053 124.892 72.4626 124.362 72.4626Z" fill="#18181B"/>
<path d="M120.519 52.8837C122.406 59.6694 133.339 57.1929 132.464 58.5825C131.179 60.624 132.637 66.5962 133.158 66.7174C133.679 66.8416 134.061 65.7011 134.061 65.7011C134.061 65.7011 137.326 62.9469 138.056 65.754C138.786 68.5641 134.053 71.1317 134.053 71.1317C140.531 72.0231 144.602 64.0381 144.86 59.1366C145.117 54.2351 141.966 53.7449 141.966 53.7449C142.506 51.0274 139.707 48.7538 137.224 49.0749C134.74 49.3938 125.505 51.6249 125.81 47.1584C122.44 45.0317 119.335 48.6266 120.519 52.8837Z" fill="#18181B"/>
<path d="M135.058 71.4705C134.714 71.4705 134.366 71.4463 134.016 71.3978C133.901 71.3823 133.809 71.2942 133.788 71.1795C133.767 71.0649 133.822 70.9502 133.924 70.8944C133.97 70.8694 138.463 68.3944 137.795 65.8209C137.65 65.2602 137.398 64.9303 137.025 64.8119C136.171 64.5386 134.813 65.4366 134.291 65.8599C134.168 66.1942 133.763 67.1363 133.097 66.9783C132.911 66.935 132.766 66.7483 132.595 66.3324C131.969 64.8112 131.096 60.3293 132.214 58.476C131.959 58.3665 131.127 58.3187 130.385 58.2768C127.315 58.1012 121.6 57.7756 120.26 52.9557C119.59 50.5454 120.217 48.124 121.823 46.9306C123.028 46.0348 124.533 46.0348 125.955 46.932C126.038 46.985 126.086 47.079 126.079 47.1782C126.033 47.855 126.221 48.3738 126.652 48.7648C128.34 50.2933 133.249 49.4622 135.887 49.0161C136.409 48.9279 136.858 48.8515 137.191 48.8089C138.599 48.6259 140.123 49.2086 141.168 50.3271C142.038 51.2582 142.425 52.3935 142.272 53.5502C143.064 53.8067 145.352 54.9185 145.13 59.152C144.961 62.3737 143.161 66.9827 140.048 69.5562C138.505 70.829 136.831 71.4705 135.058 71.4705ZM134.904 70.9304C136.607 70.9664 138.219 70.3675 139.702 69.141C142.696 66.666 144.427 62.2282 144.59 59.1227C144.83 54.5423 142.041 54.0308 141.922 54.011C141.85 53.9992 141.786 53.9588 141.744 53.8985C141.703 53.8383 141.687 53.7648 141.701 53.6928C141.913 52.6257 141.583 51.5609 140.772 50.6931C139.857 49.7142 138.478 49.1822 137.257 49.3417C136.936 49.3828 136.49 49.4578 135.974 49.5459C133.055 50.039 128.17 50.8658 126.289 49.1631C125.772 48.695 125.518 48.0711 125.533 47.3061C124.351 46.6153 123.122 46.633 122.143 47.3612C120.955 48.2452 120.071 50.2727 120.777 52.8109C122.014 57.259 127.273 57.5596 130.414 57.7389C131.925 57.8249 132.545 57.8749 132.734 58.243C132.778 58.3275 132.831 58.5032 132.69 58.7251C131.534 60.5615 132.825 65.9032 133.254 66.4551C133.416 66.4257 133.677 65.9965 133.805 65.6151C133.82 65.5681 133.849 65.5262 133.887 65.4946C133.965 65.4285 135.835 63.8684 137.187 64.299C137.742 64.4754 138.122 64.942 138.315 65.6857C138.913 67.9858 136.245 70.0552 134.904 70.9304Z" fill="#18181B"/>
<path d="M129.682 57.0033C128.433 56.7307 127.143 56.45 125.935 55.9348C124.549 55.3433 123.495 54.5327 122.803 53.526C121.983 52.3311 121.742 50.8356 122.174 49.6216L122.681 49.8017C122.306 50.8562 122.523 52.1665 123.247 53.221C123.871 54.1293 124.874 54.8965 126.146 55.4395C127.307 55.9348 128.573 56.2104 129.796 56.4772L129.682 57.0033Z" fill="white"/>
<path d="M129.466 55.0743C128.664 55.0743 127.862 54.8671 127.163 54.4732C126.309 53.9926 125.614 53.2372 125.205 52.3465L125.694 52.1224C126.056 52.9109 126.671 53.5789 127.426 54.0044C128.183 54.4298 129.073 54.6084 129.935 54.5092L129.996 55.0434C129.821 55.064 129.643 55.0743 129.466 55.0743Z" fill="white"/>
<path d="M139.797 53.6854L139.292 53.501C139.552 52.7889 139.282 51.9203 138.665 51.4801C138.35 51.256 137.941 51.1208 137.448 51.0781L137.493 50.5417C138.084 50.5924 138.583 50.7607 138.977 51.0414C139.785 51.6175 140.137 52.7536 139.797 53.6854Z" fill="white"/>
<path d="M141.634 66.4235L141.177 66.1384C142.666 63.7501 143.246 60.7886 142.767 58.0152L143.298 57.9241C143.798 60.8261 143.192 63.9242 141.634 66.4235Z" fill="white"/>
<path d="M132.734 62.8425C132.392 61.8887 132.485 60.7923 132.983 59.9097L133.452 60.1743C133.03 60.9231 132.951 61.8519 133.241 62.6603L132.734 62.8425Z" fill="white"/>
<path d="M89.1755 86.3331C89.6706 86.3331 90.072 85.9317 90.072 85.4366C90.072 84.9414 89.6706 84.54 89.1755 84.54C88.6803 84.54 88.2789 84.9414 88.2789 85.4366C88.2789 85.9317 88.6803 86.3331 89.1755 86.3331Z" fill="white"/>
<path d="M63.4303 91.6329C63.4303 91.6329 64.6355 85.3616 66.2897 84.7516C67.9439 84.1417 67.8101 88.3062 67.8101 88.3062C67.8101 88.3062 71.9305 81.8916 73.1614 82.2994C74.3923 82.7073 72.0106 86.4286 72.0106 86.4286C72.0106 86.4286 74.7994 83.8985 75.7407 83.972C76.6821 84.0454 76.6946 85.1242 76.225 85.74C76.225 85.74 78.1922 85.5321 77.4743 87.3861C77.4743 87.3861 78.8191 87.3736 78.0592 88.9991C77.2994 90.6247 74.8251 93.3165 73.8639 94.1145C71.6123 95.9825 68.8977 97.04 68.8977 97.04C66.8328 96.2515 63.5589 94.3019 63.4303 91.6329Z" fill="white"/>
<path d="M68.897 97.3097C68.8646 97.3097 68.8316 97.3038 68.8007 97.2921C66.2787 96.3272 63.2885 94.2696 63.1614 91.6461C63.1606 91.6248 63.1621 91.6035 63.1658 91.5822C63.2922 90.9252 64.4496 85.1433 66.1964 84.4996C66.6454 84.3343 66.968 84.4643 67.1598 84.6039C67.8277 85.086 68.0166 86.48 68.0658 87.4229C69.3923 85.4307 72.0841 81.6601 73.2444 82.0444C73.4744 82.1201 73.639 82.2825 73.7213 82.514C73.9447 83.1438 73.4752 84.3056 73.0034 85.2301C73.9278 84.4923 75.1389 83.6633 75.7598 83.7045C76.1963 83.7383 76.527 83.958 76.6894 84.3218C76.8393 84.6576 76.8268 85.0904 76.674 85.4806C77.0025 85.5181 77.4236 85.6357 77.6793 85.9701C77.9108 86.2721 77.9593 86.6763 77.8255 87.173C78.021 87.2303 78.2532 87.3472 78.4053 87.5838C78.6398 87.9483 78.6045 88.4634 78.301 89.1138C77.5235 90.776 75.0617 93.4686 74.0336 94.3217C71.7747 96.1964 69.1064 97.2472 68.994 97.2906C68.9631 97.3038 68.93 97.3097 68.897 97.3097ZM63.7008 91.652C63.8367 93.969 66.5557 95.8348 68.894 96.7512C69.3915 96.5454 71.7343 95.5313 73.6905 93.908C74.5767 93.1724 77.0539 90.5122 77.8138 88.886C78.0276 88.4289 78.0776 88.071 77.9549 87.877C77.8174 87.6595 77.4765 87.6558 77.4735 87.6558C77.3846 87.6558 77.3016 87.6117 77.2516 87.5383C77.2016 87.4655 77.1899 87.3722 77.2222 87.2891C77.3986 86.835 77.4089 86.5006 77.2538 86.2971C77.0267 85.9995 76.455 85.9855 76.2522 86.0075C76.1464 86.0193 76.042 85.9649 75.9898 85.8708C75.9377 85.7775 75.9457 85.6614 76.0104 85.5762C76.2448 85.2697 76.3264 84.8244 76.1993 84.5408C76.117 84.357 75.9605 84.2593 75.7194 84.2402C75.7106 84.2395 75.7018 84.2395 75.6922 84.2395C75.094 84.2395 73.2966 85.6254 72.1913 86.6278C72.0914 86.7181 71.94 86.7211 71.8371 86.6344C71.7343 86.5477 71.7115 86.397 71.7842 86.2838C72.4574 85.2323 73.4406 83.3275 73.2157 82.694C73.1893 82.6191 73.1496 82.5794 73.0776 82.5552C72.4633 82.3531 69.9728 85.4395 68.0379 88.4517C67.9725 88.5531 67.8469 88.5994 67.7315 88.5634C67.6161 88.5274 67.5382 88.4186 67.5426 88.2974C67.5757 87.2553 67.4162 85.4498 66.8474 85.0397C66.7666 84.9809 66.6299 84.9141 66.3845 85.0045C65.1506 85.4586 64.0359 89.9251 63.7008 91.652Z" fill="#18181B"/>
<path d="M73.6015 88.4076C73.5288 88.4076 73.456 88.3782 73.4031 88.3201C73.3032 88.2107 73.3105 88.0402 73.42 87.9402L76.042 85.5416C76.1515 85.4417 76.322 85.449 76.4219 85.5585C76.5219 85.668 76.5145 85.8385 76.405 85.9385L73.7831 88.337C73.7316 88.3848 73.6662 88.4076 73.6015 88.4076Z" fill="#18181B"/>
<path d="M74.7737 89.9971C74.6987 89.9971 74.6237 89.9655 74.5701 89.9045C74.4731 89.7921 74.4849 89.6223 74.5973 89.5246L77.2964 87.1833C77.4089 87.0863 77.5786 87.0981 77.6764 87.2105C77.7734 87.323 77.7616 87.4927 77.6492 87.5904L74.95 89.9317C74.8986 89.9758 74.8361 89.9971 74.7737 89.9971Z" fill="#18181B"/>
<path d="M35.6754 65.6658C42.5904 77.9285 36.6175 83.5288 35.3226 87.7286C34.0278 91.929 39.4408 98.024 31.4463 95.9495C30.7261 95.7628 30.0375 95.0595 29.5819 93.8044C28.8213 91.7078 24.2211 86.727 24.4202 84.0315C24.6106 81.4595 29.5577 80.7819 29.748 78.2099C29.8494 76.8328 29.9493 75.3851 29.7487 74.0675C29.3864 71.6888 28.2217 70.6254 27.2039 69.7098C26.1861 68.7941 25.0493 67.3325 24.9207 64.8281C24.8428 63.3062 25.1882 61.7983 25.6754 60.7577C27.2105 57.4788 28.7015 58.6692 30.5394 59.823C32.392 60.9855 34.0572 62.7977 35.6754 65.6658Z" fill="#18181B"/>
<path d="M34.0572 96.6402C33.3642 96.6402 32.4824 96.4969 31.3786 96.2104C30.5174 95.987 29.7891 95.1646 29.3291 93.8963C29.0631 93.1629 28.2606 91.9937 27.4104 90.7562C25.8202 88.4407 24.0183 85.8165 24.152 84.0117C24.2571 82.5904 25.621 81.7277 26.9401 80.8929C28.2018 80.0948 29.3938 79.3409 29.479 78.1894C29.5746 76.8945 29.6833 75.427 29.482 74.1072C29.1314 71.8056 28.0108 70.7981 27.0231 69.9089C25.5336 68.5686 24.7576 66.9107 24.651 64.8413C24.5775 63.412 24.8693 61.8424 25.4314 60.6431C26.0362 59.3512 26.6682 58.6472 27.4192 58.4282C28.3951 58.1438 29.3637 58.7574 30.3873 59.4078L30.682 59.5944C32.6661 60.8393 34.3269 62.7264 35.9098 65.5328C41.5293 75.4976 38.7625 81.0796 36.7424 85.1551C36.2522 86.1442 35.8282 86.9989 35.5791 87.8072C35.1448 89.2145 35.51 90.887 35.8312 92.3619C36.1832 93.9764 36.4874 95.3697 35.6989 96.1273C35.344 96.4698 34.8119 96.6402 34.0572 96.6402ZM27.9263 58.8963C27.805 58.8963 27.686 58.9117 27.5699 58.9463C26.9857 59.116 26.4463 59.7466 25.9186 60.8724C25.3925 61.996 25.1191 63.4694 25.1889 64.8149C25.2874 66.7343 26.0053 68.2702 27.3832 69.5099C28.3863 70.4123 29.6348 71.5352 30.014 74.0271C30.2249 75.4072 30.114 76.907 30.0162 78.2298C29.9111 79.651 28.5472 80.5137 27.2282 81.3485C25.9664 82.1466 24.7745 82.9005 24.6892 84.0521C24.5702 85.6688 26.3911 88.3216 27.855 90.4527C28.7625 91.774 29.5459 92.916 29.8354 93.714C30.233 94.8112 30.8297 95.513 31.5139 95.6908C33.5634 96.2221 34.8097 96.239 35.3271 95.7422C35.898 95.1933 35.6239 93.9352 35.3065 92.4787C34.9706 90.9392 34.59 89.1939 35.0654 87.6507C35.3278 86.8005 35.7812 85.8863 36.2611 84.9177C38.2275 80.9502 40.9208 75.5159 35.4417 65.7996C33.9044 63.074 32.3016 61.2479 30.3969 60.0523L30.1 59.8641C29.2909 59.3497 28.5766 58.8963 27.9263 58.8963Z" fill="#18181B"/>
<path d="M12.0298 65.4498C10.4167 67.2936 10.1485 70.2903 10.6071 72.8888C11.0656 75.488 12.1282 77.8756 12.8352 80.3954C13.5428 82.9152 13.8706 85.7753 12.8785 88.1563C12.1973 89.7906 10.9774 91.0031 9.78036 92.1495C8.58401 93.2952 7.34503 94.468 6.60135 96.0641C5.85767 97.6595 5.73275 99.8097 6.72554 101.202C7.51331 102.307 8.79271 102.696 9.99567 102.94C11.8659 103.32 13.7655 103.498 15.6622 103.469C16.8078 103.452 17.9741 103.355 19.044 102.87C20.1147 102.385 21.0891 101.461 21.5014 100.194C22.0099 98.631 21.5977 96.8923 21.3647 95.2403C21.1318 93.5884 21.1832 91.627 22.2914 90.5857C22.9123 90.0022 23.7346 89.8443 24.471 89.4974C25.7562 88.8919 26.8166 87.6478 27.3391 86.131C27.8623 84.615 27.8403 82.8469 27.2811 81.3493C26.7843 80.0192 25.9091 78.9499 25.1463 77.8102C24.3835 76.6704 23.6964 75.3447 23.6942 73.8904C23.6913 72.3737 24.4247 71.0171 25.0236 69.6767C25.6225 68.3363 26.1119 66.7329 25.6122 65.3366C24.7487 62.9219 21.9203 62.7911 20.1022 62.1856C19.3534 61.9364 18.5693 61.5874 17.7801 61.7388C16.8174 61.9232 16.5521 61.7395 15.7019 62.2524C14.6275 62.8998 12.9109 64.4423 12.0298 65.4498Z" fill="#18181B"/>
<path d="M15.2683 103.741C13.4863 103.741 11.6961 103.561 9.94202 103.204C8.71627 102.955 7.35017 102.541 6.50655 101.359C5.39103 99.795 5.62765 97.5162 6.35737 95.9509C7.1106 94.3335 8.3459 93.1511 9.54005 92.0077L9.59443 91.9562C10.8775 90.7276 11.9915 89.5856 12.6301 88.0541C13.4525 86.0796 13.4348 83.5281 12.5765 80.4696C12.3156 79.5393 11.9996 78.6082 11.6932 77.7088C11.1722 76.1751 10.6335 74.59 10.3418 72.9373C9.79285 69.8288 10.3484 66.9636 11.8269 65.2742C12.7014 64.2748 14.4519 62.6933 15.5644 62.0217C16.1927 61.6425 16.5492 61.6102 17.0004 61.5705C17.2032 61.5521 17.4332 61.5315 17.7301 61.4742C18.4738 61.3324 19.1778 61.5786 19.8575 61.8167C19.9685 61.8556 20.0787 61.8938 20.1882 61.9306C20.5556 62.0525 20.9679 62.1562 21.4044 62.2649C23.0659 62.6801 25.1338 63.1975 25.8665 65.2463C26.3008 66.4617 26.1112 67.9042 25.2698 69.787C25.1882 69.9685 25.1044 70.1515 25.0206 70.3344C24.5004 71.4676 23.9617 72.639 23.9639 73.8912C23.9661 75.3903 24.7678 76.7615 25.3704 77.6617C25.5402 77.9153 25.7151 78.1651 25.8907 78.4157C26.5028 79.2887 27.1356 80.1926 27.5339 81.2567C28.1195 82.8241 28.1423 84.6333 27.5948 86.2206C27.0437 87.8175 25.9473 89.1013 24.5863 89.7428C24.3512 89.8538 24.1094 89.9457 23.875 90.0346C23.3569 90.2308 22.8682 90.416 22.4765 90.7841C21.4051 91.7902 21.4264 93.7434 21.6322 95.2051C21.6682 95.4623 21.7086 95.7217 21.7498 95.9818C21.9746 97.417 22.2069 98.8999 21.7579 100.28C21.3559 101.516 20.4072 102.55 19.1557 103.117C18.0079 103.638 16.7476 103.724 15.6666 103.741C15.5336 103.74 15.4013 103.741 15.2683 103.741ZM12.2318 65.6269C10.8591 67.1951 10.3506 69.8928 10.8716 72.8425C11.156 74.4541 11.6881 76.02 12.2025 77.5346C12.5104 78.4414 12.8293 79.3791 13.0938 80.3234C13.986 83.5009 13.9963 86.1714 13.1262 88.2606C12.4479 89.8883 11.2934 91.0729 9.96627 92.3442L9.91189 92.3957C8.75375 93.5046 7.55593 94.6517 6.84458 96.1773C6.20305 97.5551 5.96055 99.6657 6.94453 101.045C7.67718 102.073 8.86986 102.436 10.0486 102.676C11.8953 103.051 13.7795 103.228 15.6578 103.199C16.7351 103.183 17.877 103.102 18.9323 102.623C20.0464 102.118 20.89 101.202 21.2449 100.11C21.6542 98.8522 21.4316 97.4332 21.217 96.0612C21.1758 95.7981 21.1347 95.5357 21.0979 95.2763C20.8745 93.689 20.8679 91.5521 22.1069 90.3888C22.5765 89.9471 23.1394 89.734 23.6832 89.5283C23.9183 89.4393 24.1403 89.3548 24.3563 89.2534C25.5688 88.6824 26.5888 87.4817 27.0849 86.0428C27.5846 84.5937 27.564 82.8741 27.029 81.4426C26.655 80.4424 26.0421 79.568 25.4498 78.7221C25.272 78.4686 25.0949 78.2151 24.9229 77.9586C24.2814 76.9996 23.4275 75.5343 23.4252 73.8897C23.4223 72.5192 23.9859 71.2934 24.5312 70.1074C24.6143 69.9266 24.6973 69.7458 24.7781 69.565C25.549 67.8411 25.7386 66.4867 25.3594 65.4256C24.7237 63.6479 22.891 63.1894 21.2736 62.7852C20.8268 62.6735 20.405 62.5677 20.0177 62.4391C19.906 62.4016 19.7936 62.3619 19.6797 62.3222C19.0668 62.1077 18.4333 61.8857 17.8315 62.0011C17.5074 62.0628 17.2634 62.0849 17.0481 62.1047C16.6219 62.1429 16.3647 62.1657 15.8422 62.481C14.7715 63.1276 13.0806 64.6576 12.2318 65.6269Z" fill="#18181B"/>
<path d="M70.7378 98.4568C70.7378 98.4568 70.1999 99.3445 69.2953 100.774C65.6459 106.538 56.0281 121.116 51.7306 121.665C45.0728 122.518 32.8124 107.19 32.8124 107.19L31.6851 91.3691C31.6851 91.3691 32.0297 91.4205 32.6132 91.5469C32.6808 91.5631 32.7477 91.5763 32.8175 91.5925C32.9601 91.6248 33.1137 91.6601 33.2775 91.6998C33.401 91.7291 33.5281 91.7615 33.6626 91.7968C33.7082 91.807 33.7545 91.821 33.8 91.832C33.8919 91.8563 33.9859 91.8835 34.08 91.907C34.5621 92.0393 35.097 92.198 35.668 92.3891C35.7841 92.4265 35.8995 92.4669 36.0149 92.5074C36.2493 92.5882 36.4889 92.6742 36.7336 92.766C37.8315 93.1805 39.4298 93.789 40.1889 94.3644C43.2489 96.6895 49.5782 107.099 49.5782 107.099L59.9383 93.3032L61.3294 91.4492C64.0072 87.6676 71.9378 94.4356 70.7378 98.4568Z" fill="white"/>
<path d="M70.7378 98.4568C70.7378 98.4568 70.1999 99.3445 69.2953 100.774C66.8298 95.9326 62.4868 94.0271 59.9383 93.3032L61.3294 91.4492C64.0072 87.6676 71.9378 94.4356 70.7378 98.4568Z" fill="#B1E346"/>
<path d="M51.1809 121.968C44.3673 121.968 33.0923 107.971 32.6022 107.358C32.5684 107.316 32.5478 107.263 32.5441 107.209L31.4147 91.3874C31.4088 91.3059 31.4404 91.2265 31.4999 91.1707C31.5594 91.1148 31.6417 91.0906 31.7226 91.1016C31.7373 91.1038 32.0826 91.1552 32.6683 91.2824L32.877 91.3294C33.0189 91.361 33.1739 91.397 33.34 91.4374C33.4642 91.4675 33.592 91.4999 33.7287 91.5352L34.1454 91.6454C34.6936 91.7953 35.2323 91.9584 35.7518 92.1326C35.8606 92.1679 35.9715 92.2061 36.0818 92.245C36.3375 92.3332 36.5793 92.4207 36.8262 92.5125C37.9108 92.9218 39.5488 93.5398 40.3498 94.149C43.1386 96.2677 48.4664 104.779 49.601 106.62L61.1141 91.2868C62.0907 89.9074 63.833 89.687 65.8884 90.6879C68.8955 92.1524 71.782 95.898 70.995 98.5325C70.9884 98.5545 70.9796 98.5751 70.9671 98.595C70.4071 99.5187 57.1899 121.235 51.7637 121.931C51.5748 121.955 51.3794 121.968 51.1809 121.968ZM33.0747 107.086C33.9529 108.168 45.4784 122.201 51.6961 121.398C56.7791 120.746 69.9169 99.285 70.4887 98.3466C71.1552 95.998 68.3995 92.5096 65.6526 91.1721C64.598 90.6585 62.6624 90.0316 61.5484 91.6042L49.7921 107.26C49.7384 107.331 49.6488 107.368 49.5635 107.367C49.4746 107.363 49.393 107.314 49.3467 107.238C49.2835 107.134 43.0078 96.8445 40.0228 94.5775C39.2835 94.016 37.6257 93.3907 36.6351 93.0166C36.3933 92.9262 36.156 92.841 35.9238 92.7609C35.7959 92.7168 35.6886 92.6786 35.5813 92.6441C35.0691 92.4721 34.54 92.3119 34.0058 92.1657C33.9543 92.1524 33.8992 92.137 33.8448 92.1223L33.5979 92.0576C33.459 92.0216 33.3341 91.9893 33.2121 91.9606C33.0482 91.9202 32.8969 91.8857 32.7558 91.8541L32.5478 91.8078C32.3163 91.7578 32.1231 91.7196 31.9746 91.6917L33.0747 107.086Z" fill="#18181B"/>
<path d="M36.9739 129.815C36.9452 129.292 36.943 128.801 36.9717 128.347C37.0003 127.877 37.0613 127.447 37.1583 127.072C38.6347 121.396 41.8056 122.543 42.2685 116.113C42.5522 112.17 39.5422 106.608 39.5422 106.608C39.5422 106.608 39.2372 102.756 38.4693 99.0756L33.0637 91.6593C32.6264 91.5506 32.1561 91.4514 31.6557 91.3617C31.0796 91.2552 30.4601 91.1633 29.8105 91.0832C26.2074 90.6416 21.6028 90.6151 17.2054 91.2838C17.2054 91.2838 17.2032 91.2838 17.198 91.286C16.8247 91.3426 16.3287 91.444 15.7636 91.5815C13.8353 92.0518 11.1229 92.952 9.79505 94.0528C5.58723 97.5449 10.3741 126.986 10.3175 128.347C10.3153 128.388 10.3153 128.435 10.3175 128.489C10.3219 128.969 10.3815 130.037 9.85678 131.351C9.64661 131.878 9.44085 132.416 9.24243 132.969C8.60898 134.734 8.04902 136.648 7.62427 138.738H38.5641C38.2378 137.328 37.9402 135.962 37.6896 134.712C37.5478 133.996 37.4207 133.32 37.3141 132.697C37.1414 131.67 37.0209 130.696 36.9739 129.815Z" fill="white"/>
<path d="M14.1851 92.018C17.539 92.212 26.7872 101.28 28.8441 101.443C28.8441 101.443 31.3199 95.4329 31.6557 91.3617C31.0796 91.2552 30.4601 91.1633 29.8105 91.0832C26.2074 90.6416 21.6028 90.6151 17.2054 91.2838C17.2054 91.2838 17.2032 91.2838 17.198 91.286C16.8247 91.3426 14.7495 91.8813 14.1851 92.018Z" fill="#B1E346"/>
<path d="M38.5634 139.008C38.4407 139.008 38.3297 138.924 38.301 138.799C37.9564 137.301 37.6624 135.944 37.4266 134.767C37.2715 133.985 37.148 133.324 37.0496 132.744C36.8666 131.653 36.7512 130.673 36.7057 129.831C36.6763 129.286 36.6755 128.782 36.7035 128.333C36.7336 127.837 36.799 127.39 36.8982 127.006C37.5794 124.389 38.642 123.154 39.579 122.065C40.7452 120.71 41.7527 119.54 42.0003 116.096C42.2744 112.277 39.335 106.793 39.3056 106.738C39.288 106.705 39.2769 106.669 39.274 106.631C39.2711 106.593 38.9617 102.754 38.2062 99.1329C38.1761 98.9874 38.2687 98.8448 38.4149 98.8147C38.5597 98.7838 38.703 98.8771 38.7331 99.0234C39.4452 102.438 39.7649 106.041 39.806 106.533C40.1264 107.135 42.8124 112.314 42.5375 116.135C42.2766 119.756 41.1648 121.048 39.9875 122.416C39.044 123.512 38.0688 124.645 37.4192 127.141C37.3288 127.492 37.2686 127.903 37.2406 128.366C37.2142 128.795 37.2149 129.278 37.2428 129.802C37.2869 130.624 37.4001 131.584 37.5794 132.654C37.6771 133.228 37.7999 133.885 37.9535 134.662C38.1879 135.834 38.4811 137.185 38.825 138.679C38.8581 138.823 38.7677 138.968 38.6229 139.001C38.6031 139.006 38.5832 139.008 38.5634 139.008Z" fill="#18181B"/>
<path d="M7.62427 139.008C7.60664 139.008 7.58826 139.006 7.57063 139.002C7.42513 138.973 7.33106 138.83 7.36046 138.685C7.76169 136.714 8.29447 134.815 8.98964 132.878C9.17924 132.35 9.3872 131.803 9.60766 131.251C10.075 130.08 10.0589 129.12 10.0508 128.604L10.0493 128.492C10.0464 128.436 10.0471 128.38 10.05 128.332C10.0589 128.111 9.89426 126.817 9.68482 125.177C8.00126 111.964 6.47201 96.4617 9.62456 93.8455C11.3632 92.4038 15.3726 91.2971 17.1459 91.0215C17.1525 91.02 17.1598 91.0185 17.1664 91.0178C21.2295 90.3991 25.8503 90.3256 29.845 90.8157C31.0612 90.9649 32.1664 91.1611 33.1298 91.3977C33.2739 91.433 33.362 91.5792 33.3268 91.7233C33.2915 91.8673 33.1453 91.9577 33.0012 91.9202C32.0584 91.688 30.9745 91.4962 29.7796 91.3492C25.8378 90.8664 21.2773 90.9384 17.2634 91.5469C17.2561 91.5491 17.2487 91.5506 17.2414 91.5513C15.5791 91.8078 11.6102 92.8983 9.96921 94.2593C6.64029 97.0216 9.24097 117.427 10.2198 125.109C10.4763 127.121 10.599 128.1 10.588 128.358C10.5858 128.395 10.5858 128.433 10.588 128.477L10.5902 128.594C10.5983 129.109 10.6159 130.179 10.1088 131.45C9.89132 131.995 9.68556 132.537 9.49817 133.059C8.81181 134.971 8.28565 136.845 7.88956 138.79C7.86163 138.92 7.7492 139.008 7.62427 139.008Z" fill="#18181B"/>
<path d="M42.8248 120.84C42.8248 120.84 47.8153 116.856 49.4687 117.467C51.1222 118.078 48.315 121.157 48.315 121.157C48.315 121.157 55.6144 118.957 56.2853 120.067C56.9562 121.177 52.7278 122.458 52.7278 122.458C52.7278 122.458 56.491 122.346 57.159 123.014C57.827 123.681 57.1355 124.51 56.3786 124.672C56.3786 124.672 58.0093 125.792 56.2588 126.735C56.2588 126.735 57.2898 127.599 55.6555 128.341C54.0212 129.084 50.3917 129.522 49.1432 129.504C46.2177 129.461 43.4671 128.502 43.4671 128.502C42.4111 126.561 41.189 122.952 42.8248 120.84Z" fill="white"/>
<path d="M49.2255 129.774C49.1961 129.774 49.1667 129.774 49.1388 129.773C46.2037 129.73 43.4921 128.796 43.3782 128.756C43.315 128.734 43.2621 128.689 43.2305 128.63C41.9393 126.259 41.0031 122.752 42.6117 120.675C42.625 120.658 42.6397 120.642 42.6566 120.629C43.1798 120.212 47.8138 116.567 49.562 117.213C50.0103 117.379 50.1712 117.688 50.2271 117.919C50.4218 118.719 49.6598 119.902 49.0844 120.65C51.3867 119.997 55.8841 118.884 56.5153 119.926C56.641 120.133 56.6601 120.364 56.5726 120.593C56.3338 121.217 55.2219 121.795 54.263 122.191C55.4446 122.231 56.9011 122.374 57.3494 122.823C57.6595 123.132 57.7675 123.513 57.6551 123.896C57.5507 124.249 57.2604 124.57 56.8908 124.767C57.1157 125.009 57.3597 125.372 57.3369 125.791C57.3163 126.171 57.0914 126.51 56.6667 126.802C56.7776 126.972 56.8791 127.212 56.8408 127.491C56.7821 127.921 56.4212 128.289 55.7672 128.586C54.1307 129.33 50.6247 129.774 49.2255 129.774ZM43.653 128.28C44.1645 128.447 46.605 129.198 49.1461 129.235C50.3021 129.25 53.9095 128.839 55.5431 128.096C56.0024 127.887 56.2735 127.648 56.3059 127.421C56.3426 127.166 56.0861 126.942 56.0832 126.94C56.0163 126.882 55.9811 126.795 55.9906 126.706C56.0002 126.618 56.0516 126.54 56.1295 126.498C56.5587 126.267 56.7835 126.019 56.7982 125.764C56.8195 125.391 56.3911 125.01 56.225 124.893C56.1368 124.832 56.0935 124.724 56.1141 124.619C56.1354 124.514 56.2162 124.431 56.3213 124.409C56.699 124.328 57.0495 124.042 57.1377 123.745C57.195 123.552 57.1392 123.375 56.968 123.204C56.5638 122.801 54.2497 122.682 52.7344 122.727C52.5941 122.726 52.4831 122.634 52.4611 122.501C52.4398 122.368 52.5199 122.24 52.6485 122.201C53.8433 121.839 55.8282 121.03 56.0685 120.402C56.0972 120.328 56.0928 120.271 56.0538 120.207C55.7172 119.65 51.8203 120.382 48.3914 121.415C48.276 121.451 48.1504 121.403 48.0864 121.301C48.0218 121.199 48.0335 121.066 48.1151 120.976C48.8176 120.206 49.8692 118.729 49.7031 118.047C49.6796 117.95 49.6194 117.811 49.3747 117.72C48.1423 117.266 44.3938 119.935 43.0174 121.031C41.6153 122.88 42.4706 126.064 43.653 128.28Z" fill="#18181B"/>
<path d="M52.827 125.06C52.683 125.06 52.5632 124.946 52.5588 124.8C52.5537 124.652 52.6698 124.527 52.8189 124.522L56.3705 124.403C56.5087 124.397 56.6439 124.514 56.6483 124.663C56.6534 124.811 56.5373 124.935 56.3882 124.94L52.8366 125.06C52.8336 125.06 52.83 125.06 52.827 125.06Z" fill="#18181B"/>
<path d="M52.6859 127.03C52.5382 127.03 52.4177 126.911 52.417 126.764C52.4162 126.615 52.5353 126.493 52.6837 126.492L56.2566 126.466C56.2574 126.466 56.2581 126.466 56.2588 126.466C56.4065 126.466 56.5271 126.585 56.5278 126.733C56.5285 126.881 56.4095 127.003 56.261 127.004L52.6881 127.03C52.6867 127.03 52.6859 127.03 52.6859 127.03Z" fill="#18181B"/>
<path d="M44.3137 130.24C44.3137 130.24 43.4149 130.531 41.921 130.975C35.5857 132.859 18.5487 137.49 14.044 134.307C8.95805 130.714 5.07431 109.401 5.27639 103.922C5.54021 96.7798 10.6475 93.3054 10.6475 93.3054L15.9973 103.158C17.4663 106.85 20.4836 123.992 20.4836 123.992L39.7678 119.999L43.1857 119.291C46.4315 119.319 48.4414 129.476 44.3137 130.24Z" fill="white"/>
<path d="M44.3137 130.24C44.3137 130.24 43.4149 130.531 41.921 130.975C43.2231 126.171 40.8392 121.686 39.7678 119.998L43.1857 119.29C46.4315 119.319 48.4414 129.476 44.3137 130.24Z" fill="#B1E346"/>
<path d="M19.2733 135.662C16.9489 135.662 15.0383 135.338 13.8904 134.527C8.74567 130.892 4.80535 109.385 5.00744 103.912C5.27199 96.7166 10.4454 93.118 10.4976 93.0828C10.6203 92.999 10.7879 93.0313 10.8716 93.154C10.9554 93.2768 10.9231 93.4443 10.8003 93.5281C10.7504 93.5619 5.80035 97.0179 5.54536 103.932C5.34621 109.338 9.18218 130.542 14.2013 134.088C19.5944 137.898 43.9845 130.062 44.2299 129.983C44.2409 129.979 44.2527 129.976 44.2637 129.974C46.0626 129.642 46.5087 127.287 46.3265 125.193C46.092 122.5 44.7869 119.608 43.2114 119.561L20.538 124.255C20.4667 124.27 20.3925 124.255 20.3322 124.214C20.272 124.173 20.2308 124.109 20.2183 124.037C20.1882 123.866 17.1907 106.881 15.7482 103.255C15.693 103.117 15.7607 102.961 15.8988 102.906C16.0362 102.849 16.1935 102.917 16.2486 103.056C17.6272 106.52 20.2947 121.383 20.7011 123.671L43.1328 119.027C43.1519 119.023 43.1695 119.021 43.1901 119.021C45.158 119.039 46.6028 122.149 46.8636 125.145C47.0657 127.468 46.5183 130.09 44.3798 130.499C43.4039 130.816 28.2577 135.662 19.2733 135.662Z" fill="#18181B"/>
<path d="M29.8112 90.9752C29.8369 92.5809 27.6382 98.8345 27.6382 98.8345L17.198 91.286C21.1273 89.1454 20.1412 77.3678 20.1412 77.3678C20.1412 77.3678 30.114 79.6782 29.4849 81.2618C28.8853 82.7624 28.0887 89.6664 29.8112 90.9752Z" fill="white"/>
<path d="M27.6382 99.1035C27.5824 99.1035 27.5272 99.0859 27.4802 99.0528L17.04 91.5043C16.9651 91.4499 16.9232 91.361 16.9291 91.2692C16.935 91.1773 16.9879 91.0943 17.0687 91.0502C20.7996 89.0175 19.8818 77.5067 19.8722 77.3906C19.8648 77.3046 19.8994 77.2208 19.9641 77.165C20.0295 77.1084 20.1176 77.0885 20.2007 77.1062C21.0832 77.3105 28.8448 79.1506 29.6892 80.7614C29.8222 81.0156 29.7869 81.228 29.7348 81.3618C29.119 82.8991 28.4289 89.5871 29.9736 90.7614C30.039 90.8113 30.0787 90.8885 30.0794 90.9715C30.1059 92.6066 27.9814 98.6677 27.891 98.9249C27.8631 99.005 27.7984 99.0668 27.7176 99.0925C27.6926 99.0998 27.6654 99.1035 27.6382 99.1035ZM17.6764 91.3L27.5023 98.4046C27.9439 97.1194 29.4746 92.5721 29.54 91.0987C27.7727 89.4658 28.6435 82.6404 29.2351 81.1626C29.2424 81.1442 29.26 81.1001 29.213 81.0112C28.6788 79.9927 23.803 78.5178 20.4358 77.7146C20.5674 79.7083 20.9818 88.8845 17.6764 91.3Z" fill="#18181B"/>
<path d="M24.421 84.0315C26.968 85.7305 30.6137 86.7108 33.9734 84.0315C38.1746 80.6813 36.8842 67.1598 30.1977 64.2557C30.0089 64.1734 29.8171 64.0999 29.626 64.0315C24.5246 62.2451 18.8853 65.7754 18.5098 68.9529C18.2217 71.3956 19.9413 75.1125 19.9912 75.2191C19.9016 75.1669 17.4538 73.7141 16.8607 76.1972C16.1898 79.0109 19.5922 80.2418 20.4189 80.4998C20.5321 80.5328 20.596 80.5497 20.596 80.5497" fill="white"/>
<path d="M29.4511 85.9568C27.1782 85.9568 25.2499 84.9074 24.2718 84.2549C24.1484 84.1726 24.1146 84.005 24.1969 83.8816C24.2792 83.7581 24.4467 83.7243 24.5702 83.8066C26.0854 84.8171 30.017 86.8409 33.8059 83.8199C35.6453 82.3531 36.5087 78.5612 35.9546 74.3835C35.4557 70.621 33.6538 66.0487 30.0904 64.5011C29.9251 64.4291 29.7487 64.36 29.5349 64.2836C27.0261 63.4047 24.0807 63.7839 21.6572 65.2969C20.0045 66.3294 18.9272 67.7073 18.7765 68.9837C18.4973 71.3478 20.2168 75.0669 20.2345 75.1044C20.2845 75.211 20.2587 75.3373 20.172 75.4167C20.0853 75.4961 19.9574 75.5108 19.8553 75.4513C19.7333 75.38 18.6766 74.7884 17.9123 75.1162C17.5295 75.28 17.2627 75.6644 17.1209 76.2589C16.5176 78.7905 19.5525 79.9479 20.4976 80.2418C20.5997 80.2712 20.66 80.2874 20.6622 80.2881C20.8062 80.3256 20.8922 80.4726 20.8547 80.6159C20.8172 80.7599 20.671 80.8451 20.527 80.8091C20.527 80.8091 20.4601 80.7922 20.3418 80.7577C18.1585 80.0779 16.0311 78.5075 16.5969 76.1347C16.7806 75.366 17.1517 74.8568 17.6999 74.6223C18.2959 74.3673 18.9705 74.5033 19.4636 74.6811C18.9668 73.4715 18.0145 70.8407 18.2408 68.922C18.4106 67.4854 19.5812 65.9598 21.3713 64.8421C23.9316 63.2438 27.0503 62.8455 29.7135 63.778C29.9405 63.8596 30.1279 63.9323 30.3043 64.0095C34.0726 65.646 35.9693 70.4057 36.4867 74.3144C37.0738 78.7405 36.1523 82.6375 34.1395 84.2424C32.5427 85.5166 30.9238 85.9568 29.4511 85.9568Z" fill="#18181B"/>
<path d="M27.065 74.2857C27.4553 74.1839 27.6639 73.6881 27.5309 73.1784C27.3979 72.6686 26.9736 72.338 26.5833 72.4399C26.1929 72.5417 25.9843 73.0375 26.1173 73.5472C26.2504 74.057 26.6746 74.3876 27.065 74.2857Z" fill="#18181B"/>
<path d="M31.5822 72.5081C31.9725 72.4063 32.1811 71.9105 32.0481 71.4008C31.9151 70.891 31.4908 70.5604 31.1005 70.6622C30.7101 70.7641 30.5015 71.2599 30.6345 71.7696C30.7675 72.2793 31.1918 72.61 31.5822 72.5081Z" fill="#18181B"/>
<path d="M26.9217 70.4814C26.9217 70.4814 25.5174 70.0111 24.3901 71.6006L26.9217 70.4814Z" fill="white"/>
<path d="M24.3894 71.8696C24.3357 71.8696 24.2814 71.8534 24.2343 71.8196C24.1131 71.7336 24.0844 71.5661 24.1704 71.4448C25.3984 69.7127 26.9416 70.2044 27.007 70.2264C27.1481 70.2734 27.2238 70.4263 27.1767 70.5666C27.1297 70.707 26.9776 70.7842 26.8372 70.7371C26.7821 70.7195 25.5968 70.3631 24.6091 71.7564C24.5569 71.8299 24.4739 71.8696 24.3894 71.8696Z" fill="#18181B"/>
<path d="M32.076 69.0168C32.076 69.0168 30.6717 68.5465 29.5444 70.136L32.076 69.0168Z" fill="white"/>
<path d="M29.5437 70.405C29.4901 70.405 29.4357 70.3888 29.3879 70.355C29.2667 70.269 29.2387 70.1015 29.324 69.9795C30.5527 68.2482 32.0959 68.7398 32.1605 68.7611C32.3016 68.8081 32.3773 68.961 32.3303 69.1013C32.2833 69.2424 32.1319 69.3174 31.9908 69.2718C31.9357 69.2534 30.7511 68.897 29.7627 70.2911C29.7112 70.3653 29.6282 70.405 29.5437 70.405Z" fill="#18181B"/>
<path d="M29.7936 73.0659C30.4314 74.3783 31.0693 75.6901 31.7064 77.0025C31.8115 77.2186 31.9188 77.4457 31.9107 77.6852C31.9004 77.9968 31.6924 78.2746 31.4338 78.4495C31.1751 78.6244 30.8701 78.7126 30.5703 78.7985" fill="white"/>
<path d="M30.571 79.0675C30.4542 79.0675 30.3469 78.9911 30.3124 78.8728C30.2712 78.7302 30.3543 78.581 30.4968 78.5399C30.7731 78.4605 31.0583 78.3789 31.2839 78.2261C31.4984 78.0813 31.6359 77.8704 31.6425 77.6764C31.6483 77.4971 31.5506 77.2965 31.4646 77.1201L29.5518 73.1827C29.4871 73.049 29.5422 72.8881 29.6767 72.8234C29.8105 72.7587 29.9714 72.8146 30.0361 72.9483L31.9489 76.885C32.0562 77.1062 32.1907 77.3817 32.1804 77.6941C32.1686 78.063 31.946 78.4289 31.5851 78.6729C31.289 78.8728 30.9473 78.9712 30.6453 79.0572C30.621 79.0646 30.596 79.0675 30.571 79.0675Z" fill="#18181B"/>
<path d="M28.5553 81.2816C29.5885 81.7299 30.8113 81.7204 31.8379 81.2559L28.5553 81.2816Z" fill="white"/>
<path d="M30.1669 81.8791C29.5768 81.8791 28.9874 81.7622 28.448 81.5278C28.3121 81.469 28.2489 81.3103 28.3084 81.1736C28.3672 81.0369 28.5252 80.9745 28.6626 81.034C29.6253 81.4514 30.7709 81.4433 31.727 81.0097C31.8629 80.948 32.0217 81.0083 32.0834 81.1442C32.1444 81.2794 32.0849 81.4389 31.9489 81.5006C31.3926 81.7534 30.7797 81.8791 30.1669 81.8791Z" fill="#18181B"/>
<path d="M12.8682 77.9285C15.6019 82.6749 20.2271 82.0114 20.2271 82.0114L20.4182 80.499C19.5915 80.2418 16.1891 79.0102 16.86 76.1964C17.453 73.7133 19.9009 75.1661 19.9905 75.2183C19.9927 75.2205 19.9927 75.2205 19.9927 75.2205L19.9949 75.2396C20.0184 75.3675 20.1838 76.0663 20.8812 75.3506C21.6469 74.5665 21.0634 72.456 20.7202 71.2486C20.3778 70.0434 22.2678 70.2139 21.6653 68.9521C21.0627 67.6904 33.8507 69.5437 34.7737 61.4066C35.0934 58.5899 28.7155 56.6836 24.7722 55.3161C15.8885 52.2355 4.00288 70.1353 14.906 71.9886C14.906 71.9886 10.1323 73.1842 12.8682 77.9285Z" fill="#18181B"/>
<path d="M19.676 82.3075C18.3033 82.3075 14.8443 81.8989 12.6353 78.063C11.7336 76.4992 11.5212 75.1279 12.004 73.9889C12.4325 72.9785 13.3106 72.3817 13.9779 72.0569C12.1687 71.5455 10.9745 70.4843 10.5005 68.9529C9.60987 66.0737 11.3948 61.7351 14.8421 58.4025C18.0902 55.2624 21.835 54.0132 24.8612 55.0625C25.1889 55.1757 25.5328 55.2933 25.8885 55.4145C30.1081 56.8512 35.3594 58.6398 35.0419 61.4375C34.3622 67.4354 27.5691 68.1864 23.9205 68.5899C23.1107 68.6795 22.2017 68.7802 21.943 68.9095C22.287 69.7149 21.7615 70.1074 21.411 70.369C21.0539 70.6357 20.8723 70.7922 20.9811 71.1751C21.3236 72.3832 21.9614 74.6304 21.0752 75.538C20.9554 75.6607 20.5938 76.0333 20.1955 75.9135C19.9251 75.8312 19.8068 75.5732 19.7568 75.3954C19.4504 75.2345 18.5737 74.8325 17.9138 75.1154C17.5309 75.2793 17.2642 75.6636 17.1224 76.2581C16.519 78.7897 19.554 79.9471 20.499 80.2411C20.624 80.28 20.7026 80.4028 20.6864 80.5321L20.4954 82.0444C20.4799 82.1642 20.3866 82.2597 20.2668 82.2774C20.2551 82.2789 20.0383 82.3075 19.676 82.3075ZM22.6397 55.236C20.2543 55.236 17.6044 56.4801 15.2161 58.7898C11.9622 61.9364 10.1948 66.1435 11.0149 68.7942C11.5051 70.3778 12.8293 71.3632 14.9516 71.724C15.0772 71.7454 15.1698 71.8519 15.175 71.979C15.1801 72.1062 15.0949 72.2193 14.9721 72.2509C14.9538 72.2553 13.1188 72.7352 12.4986 74.2027C12.0863 75.1779 12.2892 76.3867 13.1012 77.7947C15.4197 81.8203 19.0793 81.8313 19.9868 81.7652L20.1235 80.6864C18.0218 79.9736 16.0509 78.4289 16.5984 76.1347C16.7821 75.366 17.1532 74.8568 17.7014 74.6223C18.6883 74.1991 19.892 74.8501 20.1228 74.9854C20.1434 74.9971 20.1647 75.0133 20.1808 75.0295C20.2235 75.0721 20.2529 75.1294 20.2602 75.1889C20.28 75.3013 20.3286 75.3888 20.3528 75.4013C20.3521 75.4006 20.4557 75.4042 20.6886 75.1647C21.3566 74.4798 20.7526 72.3487 20.4623 71.3243C20.247 70.5674 20.7327 70.2051 21.0877 69.9398C21.4815 69.6459 21.6329 69.5092 21.4235 69.0705C21.3588 68.9352 21.361 68.7934 21.4294 68.67C21.6256 68.3172 22.2767 68.232 23.861 68.0571C27.3604 67.6706 33.8757 66.9497 34.507 61.3787C34.7752 59.0117 29.3225 57.1547 25.7143 55.926C25.3572 55.8048 25.0126 55.6872 24.6841 55.5733C24.0352 55.3462 23.3488 55.236 22.6397 55.236Z" fill="#18181B"/>
<path d="M26.02 66.8468L26.0105 66.3089C27.5625 66.2817 28.8588 65.9326 29.8641 65.2698C31.0458 64.4915 31.7791 63.246 31.7791 62.0187C31.7791 60.6894 30.8077 59.4511 29.6135 59.2586L29.6995 58.7273C31.1435 58.9602 32.3178 60.4373 32.3178 62.0195C32.3178 63.4253 31.4911 64.8428 30.1603 65.7195C29.0682 66.4382 27.6757 66.8181 26.02 66.8468Z" fill="white"/>
<path d="M25.0794 65.2058L25.0611 64.6679C25.9208 64.6385 26.7725 64.4034 27.525 63.986C28.135 63.6479 28.5612 63.246 28.7919 62.7911C29.0587 62.2657 29.0381 61.6447 28.7405 61.2457L29.1719 60.9238C29.5959 61.4918 29.6348 62.3208 29.2718 63.0351C28.9911 63.5869 28.4914 64.0661 27.7859 64.457C26.9592 64.9148 26.0237 65.1735 25.0794 65.2058Z" fill="white"/>
<path d="M15.926 63.9375L15.4601 63.6678C15.9503 62.8227 16.7828 62.0974 18.0064 61.4515C18.4054 61.2413 18.8191 61.0487 19.2189 60.8636C19.7884 60.599 20.3778 60.3256 20.9186 59.9994C21.9724 59.3637 22.6639 58.6149 22.9741 57.7735L23.4789 57.9601C23.1247 58.9191 22.3568 59.7605 21.1964 60.4609C20.6306 60.8018 20.028 61.0818 19.4452 61.3515C19.0514 61.5345 18.6443 61.7233 18.2577 61.9276C17.126 62.5251 16.3632 63.182 15.926 63.9375Z" fill="white"/>
<path d="M84.1909 130.262H109.374C110.434 130.262 111.384 130.913 111.767 131.9C112.418 133.582 111.177 135.395 109.374 135.395H84.1909V130.262Z" fill="white"/>
<path d="M109.374 135.664H84.1909C84.0425 135.664 83.9219 135.543 83.9219 135.395V130.262C83.9219 130.113 84.0425 129.993 84.1909 129.993H109.374C110.535 129.993 111.598 130.72 112.018 131.803C112.356 132.676 112.242 133.658 111.714 134.431C111.185 135.203 110.31 135.664 109.374 135.664ZM84.4599 135.126H109.374C110.143 135.126 110.834 134.761 111.269 134.126C111.704 133.491 111.794 132.715 111.515 131.998C111.175 131.121 110.314 130.531 109.373 130.531H84.4591V135.126H84.4599Z" fill="#18181B"/>
<path d="M94.9302 135.395H64.2321C62.7778 135.395 61.5337 134.351 61.2809 132.919L57.4655 109.554C57.1414 107.719 58.5531 106.036 60.4167 106.036H87.5419C88.9962 106.036 90.2403 107.08 90.4931 108.512L94.9302 135.395Z" fill="white"/>
<path d="M94.9302 135.663H64.2321C62.6448 135.663 61.2919 134.529 61.0156 132.966L57.1995 109.597C57.0319 108.648 57.2921 107.676 57.9145 106.934C58.5362 106.193 59.4489 105.767 60.4167 105.767H87.5419C89.1292 105.767 90.482 106.902 90.7584 108.465L95.1947 135.351C95.2079 135.429 95.1851 135.509 95.1344 135.569C95.0837 135.629 95.0088 135.663 94.9302 135.663ZM60.4167 106.305C59.6083 106.305 58.8463 106.661 58.3267 107.279C57.8072 107.898 57.5897 108.711 57.73 109.507L61.5462 132.875C61.7762 134.178 62.9057 135.126 64.2321 135.126H94.6127L90.2285 108.555C89.9985 107.252 88.869 106.305 87.5426 106.305H60.4167Z" fill="#18181B"/>
<path d="M94.9287 135.394H92.6815L88.2451 108.511C87.9923 107.08 86.749 106.035 85.2939 106.035H87.5411C88.9962 106.035 90.2395 107.08 90.4923 108.511L94.9287 135.394Z" fill="#18181B"/>
<path d="M94.9287 135.663H92.6815C92.5499 135.663 92.4375 135.567 92.4162 135.438L87.9806 108.555C87.7506 107.252 86.6211 106.304 85.2947 106.304C85.1462 106.304 85.0257 106.184 85.0257 106.035C85.0257 105.887 85.1462 105.766 85.2947 105.766H87.5419C89.1299 105.766 90.482 106.901 90.7576 108.465L95.194 135.351C95.2072 135.428 95.1844 135.509 95.1337 135.569C95.083 135.628 95.0081 135.663 94.9287 135.663ZM92.91 135.125H94.6112L90.227 108.555C89.997 107.252 88.8676 106.304 87.5411 106.304H87.0929C87.8211 106.784 88.3495 107.551 88.5104 108.465L92.91 135.125Z" fill="#18181B"/>
<path d="M75.0727 126.095C73.7272 126.095 72.4919 125.249 71.9246 124.061C72.2281 124.153 72.5433 124.202 72.8674 124.202C74.598 124.202 75.8554 122.798 75.6775 121.068C75.6379 120.681 75.5269 120.308 75.3623 119.965C76.6806 120.359 77.7344 121.552 77.8799 122.961C78.0614 124.691 76.8033 126.095 75.0727 126.095Z" fill="#18181B"/>
<path d="M75.0727 126.364C73.6692 126.364 72.3067 125.485 71.6821 124.177C71.6358 124.081 71.6512 123.967 71.721 123.885C71.7901 123.804 71.9011 123.773 72.0032 123.803C72.2847 123.889 72.5757 123.932 72.8674 123.932C73.6236 123.932 74.3033 123.64 74.7825 123.109C75.266 122.574 75.4887 121.858 75.41 121.094C75.3748 120.749 75.277 120.409 75.1205 120.081C75.0742 119.985 75.0889 119.871 75.1587 119.79C75.2278 119.709 75.338 119.675 75.4402 119.707C76.9055 120.145 77.9946 121.441 78.1489 122.932C78.2444 123.848 77.9747 124.711 77.389 125.362C76.8063 126.008 75.984 126.364 75.0727 126.364ZM72.4662 124.448C73.0739 125.29 74.0616 125.826 75.0727 125.826C75.8296 125.826 76.5094 125.533 76.9885 125.002C77.4706 124.467 77.6925 123.751 77.6132 122.989C77.5029 121.922 76.7982 120.944 75.8311 120.444C75.8862 120.641 75.9252 120.84 75.9458 121.041C76.0398 121.958 75.7694 122.821 75.1822 123.471C74.6002 124.116 73.7779 124.471 72.8674 124.471C72.7329 124.471 72.5992 124.464 72.4662 124.448Z" fill="#18181B"/>
<path d="M112.883 47.4545V54.6988C112.883 57.6022 110.531 59.9574 107.627 59.9574H89.8038C86.9003 59.9574 84.5451 57.603 84.5451 54.6988V47.4545C84.5451 44.5511 86.8996 42.1959 89.8038 42.1959H107.627C110.531 42.1966 112.883 44.5511 112.883 47.4545Z" fill="white"/>
<path d="M107.627 60.2264H89.8038C86.7556 60.2264 84.2761 57.747 84.2761 54.6988V47.4538C84.2761 44.4056 86.7556 41.9262 89.8038 41.9262H107.627C110.674 41.9262 113.152 44.4056 113.152 47.4538V54.6988C113.153 57.747 110.674 60.2264 107.627 60.2264ZM89.8038 42.4656C87.0524 42.4656 84.8148 44.704 84.8148 47.4545V54.6995C84.8148 57.4508 87.0532 59.6885 89.8038 59.6885H107.627C110.377 59.6885 112.614 57.4501 112.614 54.6995V47.4545C112.614 44.7032 110.377 42.4656 107.627 42.4656H89.8038Z" fill="#18181B"/>
<path d="M101.914 58.0872L108.595 62.1253L108.953 56.2677" fill="white"/>
<path d="M108.595 62.3943C108.546 62.3943 108.499 62.381 108.455 62.3553L101.775 58.3172C101.648 58.2408 101.606 58.0747 101.684 57.9476C101.76 57.8205 101.925 57.7793 102.053 57.8565L108.353 61.6645L108.684 56.2508C108.693 56.1024 108.824 55.9907 108.969 55.9988C109.117 56.0076 109.231 56.1354 109.221 56.2839L108.864 62.1415C108.858 62.2355 108.804 62.3193 108.721 62.3634C108.681 62.384 108.638 62.3943 108.595 62.3943Z" fill="#18181B"/>
<path d="M107.825 47.7044H99.9074C99.7589 47.7044 99.6384 47.5839 99.6384 47.4354C99.6384 47.287 99.7589 47.1665 99.9074 47.1665H107.825C107.973 47.1665 108.094 47.287 108.094 47.4354C108.094 47.5839 107.974 47.7044 107.825 47.7044Z" fill="#18181B"/>
<path d="M97.4515 47.7044H88.8933C88.7448 47.7044 88.6243 47.5839 88.6243 47.4354C88.6243 47.287 88.7448 47.1665 88.8933 47.1665H97.4515C97.5999 47.1665 97.7204 47.287 97.7204 47.4354C97.7204 47.5839 97.6006 47.7044 97.4515 47.7044Z" fill="#18181B"/>
<path d="M107.825 50.7835H104.49C104.342 50.7835 104.221 50.6629 104.221 50.5145C104.221 50.3661 104.342 50.2455 104.49 50.2455H107.825C107.974 50.2455 108.094 50.3661 108.094 50.5145C108.094 50.6629 107.974 50.7835 107.825 50.7835Z" fill="#18181B"/>
<path d="M101.374 50.7835H88.894C88.7456 50.7835 88.625 50.6629 88.625 50.5145C88.625 50.3661 88.7456 50.2455 88.894 50.2455H101.374C101.523 50.2455 101.643 50.3661 101.643 50.5145C101.643 50.6629 101.523 50.7835 101.374 50.7835Z" fill="#18181B"/>
<path d="M102.107 53.8625H93.362C93.2135 53.8625 93.093 53.742 93.093 53.5935C93.093 53.4451 93.2135 53.3246 93.362 53.3246H102.107C102.255 53.3246 102.376 53.4451 102.376 53.5935C102.376 53.742 102.256 53.8625 102.107 53.8625Z" fill="#18181B"/>
<path d="M91.6608 53.8625H88.894C88.7456 53.8625 88.625 53.742 88.625 53.5935C88.625 53.4451 88.7456 53.3246 88.894 53.3246H91.6608C91.8092 53.3246 91.9297 53.4451 91.9297 53.5935C91.9297 53.742 91.8092 53.8625 91.6608 53.8625Z" fill="#18181B"/>
<path d="M36.6138 43.4018V48.2151C36.6138 50.1441 38.1761 51.7087 40.1059 51.7087H48.8272C50.7562 51.7087 52.3207 50.1441 52.3207 48.2151V43.4018C52.3207 41.4728 50.7562 39.9083 48.8272 39.9083H40.1059C38.1761 39.9083 36.6138 41.4728 36.6138 43.4018Z" fill="white"/>
<path d="M48.8265 51.9776H40.1059C38.0321 51.9776 36.3448 50.2897 36.3448 48.2151V43.4018C36.3448 41.3273 38.0321 39.6393 40.1059 39.6393H48.8272C50.9017 39.6393 52.5897 41.3273 52.5897 43.4018V48.2151C52.5897 50.2897 50.9017 51.9776 48.8265 51.9776ZM40.1059 40.1772C38.329 40.1772 36.8828 41.6234 36.8828 43.4018V48.2151C36.8828 49.9928 38.3282 51.4397 40.1059 51.4397H48.8272C50.6055 51.4397 52.0518 49.9935 52.0518 48.2151V43.4018C52.0518 41.6242 50.6055 40.1772 48.8272 40.1772H40.1059Z" fill="#18181B"/>
<path d="M43.9007 50.466L39.4621 53.149L39.2248 49.2572" fill="white"/>
<path d="M39.4621 53.4179C39.4195 53.4179 39.3761 53.4077 39.3372 53.3871C39.2542 53.343 39.1998 53.2592 39.1939 53.1652L38.9565 49.2733C38.947 49.1249 39.0601 48.997 39.2086 48.9882C39.357 48.9801 39.4842 49.0918 39.4937 49.2403L39.7039 52.6875L43.7618 50.2345C43.8897 50.1574 44.0543 50.1985 44.1314 50.3257C44.2086 50.4528 44.1674 50.6181 44.0403 50.6953L39.6017 53.3783C39.5591 53.4047 39.5106 53.4179 39.4621 53.4179Z" fill="#18181B"/>
<path d="M45.2477 43.6582H40.2124C40.064 43.6582 39.9435 43.5377 39.9435 43.3893C39.9435 43.2408 40.064 43.1203 40.2124 43.1203H45.2477C45.3961 43.1203 45.5166 43.2408 45.5166 43.3893C45.5166 43.5377 45.3961 43.6582 45.2477 43.6582Z" fill="#18181B"/>
<path d="M48.7221 43.6582H46.81C46.6616 43.6582 46.541 43.5377 46.541 43.3893C46.541 43.2408 46.6616 43.1203 46.81 43.1203H48.7221C48.8705 43.1203 48.9911 43.2408 48.9911 43.3893C48.9911 43.5377 48.8705 43.6582 48.7221 43.6582Z" fill="#18181B"/>
<path d="M42.3332 47.3884H40.2117C40.0632 47.3884 39.9427 47.2679 39.9427 47.1195C39.9427 46.971 40.0632 46.8505 40.2117 46.8505H42.3332C42.4817 46.8505 42.6022 46.971 42.6022 47.1195C42.6029 47.2679 42.4824 47.3884 42.3332 47.3884Z" fill="#18181B"/>
<path d="M48.7221 47.3884H44.3151C44.1667 47.3884 44.0462 47.2679 44.0462 47.1195C44.0462 46.971 44.1667 46.8505 44.3151 46.8505H48.7221C48.8705 46.8505 48.9911 46.971 48.9911 47.1195C48.9911 47.2679 48.8705 47.3884 48.7221 47.3884Z" fill="#18181B"/>
<path d="M45.1896 62.3516V70.7981C45.1896 73.9176 47.7161 76.447 50.8356 76.447H62.83C65.9494 76.447 68.4788 73.9176 68.4788 70.7981V62.3516C68.4788 59.2321 65.9494 56.7028 62.83 56.7028H50.8356C47.7161 56.7028 45.1896 59.2321 45.1896 62.3516Z" fill="#E0F2FE"/>
<path d="M64.066 75.1169H52.0723C48.811 75.1169 46.1574 72.4619 46.1574 69.1991V60.7519C46.1574 57.4891 48.811 54.834 52.0723 54.834H64.0667C67.3303 54.834 69.9846 57.4891 69.9846 60.7519V69.1983C69.9846 72.4619 67.3295 75.1169 64.066 75.1169ZM52.0723 55.3719C49.1072 55.3719 46.6954 57.7852 46.6954 60.7519V69.1983C46.6954 72.165 49.1072 74.5783 52.0723 74.5783H64.0667C67.0334 74.5783 69.4466 72.165 69.4466 69.1983V60.7519C69.4466 57.786 67.0334 55.3719 64.0667 55.3719H52.0723Z" fill="#18181B"/>
<path d="M58.2092 72.8381L51.0325 77.1767L50.6482 70.8834" fill="#E0F2FE"/>
<path d="M51.0325 77.4457C50.9899 77.4457 50.9465 77.4354 50.9076 77.4148C50.8245 77.3707 50.7702 77.287 50.7643 77.1929L50.3807 70.9003C50.3711 70.7518 50.4843 70.624 50.6327 70.6152C50.7819 70.6071 50.909 70.7188 50.9179 70.8672L51.275 76.716L58.071 72.6081C58.1989 72.5302 58.3635 72.5721 58.4406 72.6992C58.5178 72.8264 58.4766 72.9917 58.3495 73.0689L51.1729 77.4075C51.1288 77.4325 51.081 77.4457 51.0325 77.4457Z" fill="#18181B"/>
<path d="M57.3126 68.146C57.3126 68.2033 57.3067 68.2709 57.2943 68.3503C57.2825 68.4297 57.2656 68.509 57.245 68.5884C57.2244 68.6678 57.198 68.7435 57.1657 68.8147C57.1333 68.886 57.098 68.9419 57.062 68.983C56.9966 69.044 56.9202 69.0888 56.8328 69.1175C56.7453 69.1462 56.6321 69.1601 56.494 69.1601C56.3845 69.1601 56.2948 69.152 56.225 69.1359C56.156 69.1197 56.1016 69.0962 56.0634 69.0661C56.0244 69.0359 55.9972 68.9962 55.9811 68.947C55.9649 68.8978 55.9568 68.8434 55.9568 68.7817C55.9568 68.7288 55.962 68.6634 55.9722 68.5862C55.9825 68.509 55.9972 68.4297 56.0178 68.3481C56.0384 68.2665 56.0648 68.1886 56.0972 68.1129C56.1295 68.0373 56.1684 67.9777 56.2133 67.9329C56.2779 67.8675 56.3536 67.8241 56.4396 67.8014C56.5249 67.7793 56.6351 67.7676 56.7696 67.7676C56.8835 67.7676 56.9761 67.7771 57.0473 67.7955C57.1186 67.8139 57.1745 67.8396 57.2156 67.8719C57.256 67.9042 57.2832 67.9454 57.295 67.9939C57.306 68.0424 57.3126 68.0931 57.3126 68.146ZM60.3182 62.6911C60.3182 63.0211 60.2682 63.3408 60.1683 63.6501C60.0684 63.9595 59.914 64.2373 59.7039 64.4842C59.4937 64.7304 59.2262 64.9332 58.9007 65.0919C58.5751 65.2507 58.1856 65.3447 57.7337 65.3726L57.4037 66.8328C57.3876 66.8938 57.3405 66.9401 57.2634 66.9702C57.1862 67.0004 57.0679 67.0158 56.9092 67.0158C56.8232 67.0158 56.7512 67.0129 56.6924 67.0062C56.6336 67.0004 56.5866 66.9901 56.552 66.9761C56.5175 66.9621 56.494 66.9423 56.4822 66.9181C56.4697 66.8938 56.4675 66.8651 56.4756 66.8328L56.7688 65.1404C56.785 65.0464 56.8085 64.9707 56.8386 64.9112C56.8695 64.8524 56.9077 64.8031 56.9547 64.7642C57.0018 64.7252 57.0532 64.6988 57.1105 64.6848C57.1679 64.6709 57.2347 64.6635 57.3119 64.6635H57.3486C57.7028 64.6635 58.0005 64.6077 58.2408 64.4952C58.4811 64.3835 58.6765 64.2388 58.8272 64.0617C58.9778 63.8846 59.0866 63.6869 59.1542 63.4694C59.2211 63.2518 59.2549 63.0365 59.2549 62.8249C59.2549 62.6412 59.2284 62.4714 59.1755 62.3149C59.1226 62.1576 59.044 62.0239 58.9403 61.9114C58.8367 61.7997 58.7052 61.7108 58.5465 61.6454C58.3877 61.5808 58.1981 61.5477 57.9784 61.5477C57.7337 61.5477 57.5154 61.5756 57.3214 61.63C57.1282 61.6851 56.9599 61.7461 56.8173 61.813C56.6748 61.8806 56.5579 61.9401 56.4661 61.993C56.3749 62.0459 56.3044 62.0724 56.2552 62.0724C56.2147 62.0724 56.1861 62.0555 56.1699 62.0209C56.1537 61.9864 56.1457 61.9239 56.1457 61.8343C56.1457 61.7939 56.1486 61.7439 56.1552 61.6844C56.1611 61.6256 56.1729 61.5675 56.189 61.5102C56.2052 61.4529 56.2258 61.3993 56.25 61.3485C56.2743 61.2978 56.3029 61.256 56.336 61.2229C56.3889 61.17 56.4786 61.1134 56.6042 61.0517C56.7306 60.9907 56.8783 60.9348 57.0473 60.8834C57.2164 60.8327 57.3964 60.7901 57.5882 60.7548C57.7793 60.7202 57.9644 60.7026 58.1438 60.7026C58.4083 60.7026 58.6457 60.7269 58.8558 60.7761C59.0653 60.8253 59.2505 60.8937 59.4114 60.9811C59.5723 61.0686 59.7097 61.1744 59.8236 61.2986C59.9375 61.4228 60.0323 61.558 60.108 61.705C60.183 61.8519 60.2374 62.0085 60.2697 62.1753C60.3013 62.345 60.3182 62.5155 60.3182 62.6911Z" fill="#3B82F6"/>
<path d="M85.1477 30.9665C88.11 30.9665 90.5114 28.5651 90.5114 25.6027C90.5114 22.6404 88.11 20.239 85.1477 20.239C82.1854 20.239 79.7839 22.6404 79.7839 25.6027C79.7839 28.5651 82.1854 30.9665 85.1477 30.9665Z" fill="#FEE2E2"/>
<path d="M84.5642 30.2662C81.4579 30.2662 78.9308 27.739 78.9308 24.6327C78.9308 21.5265 81.4579 19 84.5642 19C87.6705 19 90.1969 21.5272 90.1969 24.6327C90.1969 27.7382 87.6697 30.2662 84.5642 30.2662ZM84.5642 19.5387C81.7548 19.5387 79.4694 21.8241 79.4694 24.6334C79.4694 27.4428 81.7548 29.7282 84.5642 29.7282C87.3736 29.7282 89.659 27.4428 89.659 24.6334C89.6583 21.8241 87.3728 19.5387 84.5642 19.5387Z" fill="#18181B"/>
<path d="M83.7897 27.0519C83.6522 27.0519 83.5141 26.999 83.409 26.8939L82.414 25.8989C82.2038 25.6887 82.2038 25.3477 82.414 25.1376C82.6242 24.9274 82.9651 24.9274 83.1753 25.1376L83.7897 25.7519L86.5351 23.0065C86.7453 22.7963 87.0862 22.7963 87.2964 23.0065C87.5066 23.2166 87.5066 23.5576 87.2964 23.7678L84.1703 26.8939C84.0652 26.9997 83.9278 27.0519 83.7897 27.0519Z" fill="#EF4444"/>
<path d="M104.567 23.0616H101.704C101.556 23.0616 101.435 22.9411 101.435 22.7926C101.435 22.6442 101.556 22.5237 101.704 22.5237H104.567C104.716 22.5237 104.836 22.6442 104.836 22.7926C104.836 22.9411 104.716 23.0616 104.567 23.0616Z" fill="#18181B"/>
<path d="M99.7685 23.0616H96.796C96.6475 23.0616 96.527 22.9411 96.527 22.7926C96.527 22.6442 96.6475 22.5237 96.796 22.5237H99.7685C99.9169 22.5237 100.037 22.6442 100.037 22.7926C100.037 22.9411 99.9169 23.0616 99.7685 23.0616Z" fill="#18181B"/>
<path d="M95.0918 23.0616H92.4889C92.3405 23.0616 92.22 22.9411 92.22 22.7926C92.22 22.6442 92.3405 22.5237 92.4889 22.5237H95.0918C95.2403 22.5237 95.3608 22.6442 95.3608 22.7926C95.3608 22.9411 95.2403 23.0616 95.0918 23.0616Z" fill="#18181B"/>
<path d="M104.567 26.3104H101.977C101.828 26.3104 101.708 26.1899 101.708 26.0414C101.708 25.893 101.828 25.7725 101.977 25.7725H104.567C104.716 25.7725 104.836 25.893 104.836 26.0414C104.836 26.1899 104.716 26.3104 104.567 26.3104Z" fill="#18181B"/>
<path d="M100.273 26.3104H92.4889C92.3405 26.3104 92.22 26.1899 92.22 26.0414C92.22 25.893 92.3405 25.7725 92.4889 25.7725H100.273C100.421 25.7725 100.542 25.893 100.542 26.0414C100.542 26.1899 100.421 26.3104 100.273 26.3104Z" fill="#18181B"/>
<path d="M70.5225 43.5708C73.4848 43.5708 75.8862 41.1694 75.8862 38.2071C75.8862 35.2448 73.4848 32.8433 70.5225 32.8433C67.5602 32.8433 65.1587 35.2448 65.1587 38.2071C65.1587 41.1694 67.5602 43.5708 70.5225 43.5708Z" fill="#FEE2E2"/>
<path d="M69.939 42.8705C66.8327 42.8705 64.3063 40.3433 64.3063 37.237C64.3063 34.1308 66.8335 31.6043 69.939 31.6043C73.0453 31.6043 75.5724 34.1315 75.5724 37.237C75.5724 40.3426 73.0453 42.8705 69.939 42.8705ZM69.939 32.143C67.1296 32.143 64.8442 34.4284 64.8442 37.2378C64.8442 40.0472 67.1296 42.3326 69.939 42.3326C72.7484 42.3326 75.0338 40.0472 75.0338 37.2378C75.0338 34.4284 72.7484 32.143 69.939 32.143Z" fill="#18181B"/>
<path d="M69.1652 39.6562C69.0278 39.6562 68.8896 39.6033 68.7845 39.4982L67.7895 38.5032C67.5794 38.2931 67.5794 37.9521 67.7895 37.7419C67.9997 37.5317 68.3407 37.5317 68.5508 37.7419L69.1652 38.3563L71.9106 35.6108C72.1208 35.4006 72.4618 35.4006 72.672 35.6108C72.8821 35.821 72.8821 36.162 72.672 36.3721L69.5459 39.4982C69.4408 39.604 69.3034 39.6562 69.1652 39.6562Z" fill="#EF4444"/>
<path d="M89.9427 35.6659H87.0796C86.9312 35.6659 86.8107 35.5454 86.8107 35.3969C86.8107 35.2485 86.9312 35.128 87.0796 35.128H89.9427C90.0911 35.128 90.2116 35.2485 90.2116 35.3969C90.2116 35.5454 90.0911 35.6659 89.9427 35.6659Z" fill="#18181B"/>
<path d="M85.1433 35.6659H82.1715C82.0231 35.6659 81.9025 35.5454 81.9025 35.3969C81.9025 35.2485 82.0231 35.128 82.1715 35.128H85.1433C85.2917 35.128 85.4122 35.2485 85.4122 35.3969C85.4122 35.5454 85.2925 35.6659 85.1433 35.6659Z" fill="#18181B"/>
<path d="M80.4674 35.6659H77.8645C77.716 35.6659 77.5955 35.5454 77.5955 35.3969C77.5955 35.2485 77.716 35.128 77.8645 35.128H80.4674C80.6158 35.128 80.7363 35.2485 80.7363 35.3969C80.7363 35.5454 80.6158 35.6659 80.4674 35.6659Z" fill="#18181B"/>
<path d="M85.6481 38.9147H77.8645C77.716 38.9147 77.5955 38.7942 77.5955 38.6458C77.5955 38.4973 77.716 38.3768 77.8645 38.3768H85.6481C85.7966 38.3768 85.9171 38.4973 85.9171 38.6458C85.9171 38.7942 85.7966 38.9147 85.6481 38.9147Z" fill="#18181B"/>
</svg>
