<svg width="161" height="161" viewBox="0 0 161 161" fill="none" xmlns="http://www.w3.org/2000/svg">
<path d="M86.601 72.7107C86.5903 72.7164 77.2355 84.2556 77.2355 84.2556L74.2984 80.7821L65.3124 80.57C63.6885 83.2106 61.8822 85.8689 62.0575 87.3963C62.0575 87.3963 68.08 99.6152 73.7499 99.5947C81.2744 99.5677 96.0395 75.5045 96.0395 75.5045L91.8743 67.951C91.8743 67.951 91.8743 67.951 91.875 67.9481C91.8949 67.8247 91.0272 69.7899 91.0776 69.7906" fill="white"/>
<path d="M73.7357 99.8415C67.9828 99.8415 62.0851 88.01 61.8368 87.5056C61.824 87.48 61.8162 87.4531 61.8127 87.4247C61.6488 85.9923 63.045 83.7504 64.5228 81.3766C64.7165 81.0659 64.9109 80.7537 65.1031 80.4409C65.1492 80.3664 65.2337 80.321 65.3181 80.3238L74.304 80.5359C74.3742 80.5373 74.4409 80.5693 74.4863 80.6232L77.2312 83.8696C86.43 72.5234 86.4307 72.522 86.486 72.4929C86.6059 72.4297 86.7549 72.4751 86.818 72.5957C86.8677 72.6894 86.8507 72.8001 86.784 72.8746C86.5555 73.1491 77.5178 84.2974 77.4263 84.4102C77.3802 84.467 77.3114 84.5003 77.2376 84.501C77.1709 84.5039 77.0943 84.4698 77.0475 84.4138L74.182 81.0254L65.4479 80.819C65.2798 81.0921 65.1095 81.3646 64.9407 81.6363C63.587 83.81 62.1887 86.0569 62.2972 87.3261C62.6789 88.0845 68.4439 99.3485 73.7357 99.3485C73.7407 99.3485 73.7443 99.3485 73.7492 99.3485C80.7799 99.3229 94.6057 77.3441 95.755 75.4967L91.8863 68.4809C91.6792 68.9392 91.3762 69.6409 91.3223 69.809C91.3131 69.9367 91.2067 70.0367 91.0769 70.0367C91.0761 70.0367 91.0754 70.0367 91.0747 70.0367C90.9719 70.036 90.8789 69.9694 90.8442 69.8729C90.7555 69.6274 91.7019 67.7665 91.7147 67.7559C91.7934 67.6899 91.9062 67.6785 91.9963 67.7289C92.0474 67.758 92.0857 67.8055 92.1056 67.8594L96.2551 75.3853C96.2977 75.4626 96.2956 75.557 96.2495 75.6329C95.6436 76.6205 81.3255 99.8131 73.7506 99.8408C73.7457 99.8415 73.7407 99.8415 73.7357 99.8415Z" fill="#18181B"/>
<path d="M98.5581 79.1525C97.4592 79.6406 96.1467 79.0858 95.626 77.9145L88.8018 62.5435L93.2522 60.5677L99.6351 76.2175C100.108 77.3767 99.6315 78.6757 98.5581 79.1525Z" fill="#18181B"/>
<path d="M97.721 79.5767C97.4046 79.5767 97.0861 79.5122 96.7796 79.3823C96.168 79.1241 95.6785 78.6381 95.4018 78.0138L88.5776 62.6428C88.5514 62.5832 88.5492 62.5151 88.5726 62.4548C88.596 62.3945 88.6429 62.3449 88.7025 62.3186L93.1536 60.3428C93.2146 60.3158 93.2834 60.3151 93.3451 60.3393C93.4068 60.3641 93.4558 60.413 93.4806 60.4748L99.8636 76.1246C100.39 77.415 99.8607 78.8439 98.6582 79.3781C98.3588 79.5101 98.041 79.5767 97.721 79.5767ZM89.126 62.6684L95.8502 77.8145C96.0765 78.3238 96.4738 78.7197 96.9704 78.929C97.4606 79.1362 97.9892 79.1355 98.4581 78.9276C99.4159 78.5019 99.833 77.3526 99.4081 76.3097L93.1209 60.8948L89.126 62.6684Z" fill="#18181B"/>
<path d="M113.347 48.1381C116.12 54.3834 116.546 60.257 114.299 61.2552C114.043 61.3687 113.762 61.4155 113.463 61.3949L113.459 61.3935C101.687 62.1157 94.7469 61.5836 89.4686 63.4537L86.2527 56.2102C90.5917 53.5746 95.0705 47.2499 103.692 39.0387C103.696 39.0344 103.702 39.0295 103.705 39.0252C103.867 38.8563 104.05 38.7244 104.254 38.6336C106.502 37.6354 110.573 41.8907 113.347 48.1381Z" fill="white"/>
<path d="M89.4694 63.6999C89.3743 63.6999 89.285 63.6445 89.2445 63.5537L86.0286 56.3102C85.9782 56.1974 86.0201 56.0641 86.1258 56.0002C88.6039 54.4947 91.2104 51.6832 94.5094 48.1239C97.0251 45.4102 99.8764 42.334 103.518 38.8655C103.52 38.8627 103.523 38.8606 103.524 38.8591C103.714 38.6605 103.925 38.5108 104.155 38.4086C106.564 37.3388 110.7 41.57 113.572 48.0387C114.924 51.0844 115.769 54.1414 115.95 56.6472C116.138 59.236 115.586 60.9522 114.398 61.48C114.108 61.6091 113.789 61.663 113.451 61.6403C109.821 61.8624 106.649 61.966 103.85 62.0575C97.6458 62.2597 93.1628 62.4058 89.551 63.6857C89.524 63.6949 89.4964 63.6999 89.4694 63.6999ZM86.5649 56.3067L89.6021 63.1472C93.2465 61.9106 97.7069 61.7652 103.834 61.5659C106.637 61.4743 109.813 61.3708 113.445 61.148C113.462 61.1473 113.48 61.148 113.497 61.1501C113.748 61.1629 113.985 61.1239 114.198 61.0295C115.169 60.5989 115.628 59.014 115.459 56.6813C115.282 54.2308 114.452 51.232 113.122 48.2374C110.454 42.2276 106.439 37.9326 104.354 38.857C104.183 38.9329 104.025 39.0464 103.883 39.194C103.88 39.1968 103.865 39.2132 103.862 39.2153C100.229 42.6753 97.3812 45.7472 94.8691 48.4573C91.6247 51.9592 89.0452 54.7416 86.5649 56.3067Z" fill="#18181B"/>
<path d="M86.2533 56.2103L89.4692 63.4538L86.8166 64.6315C85.6531 65.1479 84.2917 64.6237 83.7766 63.463L82.4301 60.4294C81.9136 59.2659 82.4379 57.9044 83.6014 57.388L86.2533 56.2103Z" fill="#FFEDD5"/>
<path d="M85.8846 65.0755C84.9069 65.0755 83.9733 64.5108 83.5519 63.5623L82.2053 60.5287C81.6349 59.2438 82.216 57.7334 83.5015 57.163L86.1542 55.9853C86.2783 55.93 86.4237 55.986 86.4791 56.1102L89.695 63.3537C89.7504 63.4778 89.6943 63.6233 89.5702 63.6786L86.9175 64.8563C86.5812 65.0053 86.2301 65.0755 85.8846 65.0755ZM86.1279 56.5344L83.7002 57.6121C82.6629 58.0725 82.1933 59.2914 82.6537 60.3286L84.0003 63.3622C84.46 64.398 85.6788 64.8662 86.716 64.4058L89.1438 63.3281L86.1279 56.5344Z" fill="#18181B"/>
<path d="M113.215 59.7752C111.835 59.7752 109.807 57.0552 108.278 54.3259C108.104 54.0159 107.926 53.6881 107.75 53.3519C107.332 52.5438 106.944 51.7379 106.598 50.9567C106.241 50.1558 105.904 49.3278 105.594 48.495C105.463 48.1395 105.34 47.7905 105.224 47.4485C104.129 44.1971 103.445 40.5072 104.808 39.9021C104.931 39.8467 105.077 39.9028 105.133 40.0269C105.188 40.1511 105.132 40.2965 105.008 40.3512C104.293 40.6683 104.297 43.1542 105.69 47.2903C105.804 47.628 105.926 47.9721 106.055 48.3233C106.361 49.1462 106.695 49.9649 107.047 50.7567C107.389 51.5293 107.772 52.326 108.186 53.1241C108.359 53.4547 108.534 53.7782 108.707 54.0847C110.839 57.8931 112.679 59.5652 113.395 59.246C113.52 59.1906 113.665 59.2467 113.72 59.3708C113.776 59.495 113.72 59.6397 113.596 59.6951C113.476 59.7497 113.348 59.7752 113.215 59.7752Z" fill="#18181B"/>
<path d="M111.394 52.2884L108.493 54.206C108.317 53.8938 108.141 53.5696 107.968 53.2383C107.578 52.4856 107.191 51.691 106.822 50.8574C106.451 50.0231 106.119 49.2022 105.824 48.4098C105.694 48.0572 105.571 47.7103 105.456 47.3704L108.827 46.5049C109.322 46.2843 110.297 47.4016 111.005 48.9965C111.716 50.5949 111.891 52.0677 111.394 52.2884Z" fill="#18181B"/>
<path d="M108.493 54.4522C108.474 54.4522 108.455 54.4501 108.436 54.4451C108.369 54.4295 108.313 54.3862 108.279 54.3266C108.106 54.0187 107.928 53.6909 107.75 53.3525C107.331 52.5431 106.943 51.7371 106.598 50.9574C106.241 50.1565 105.904 49.3285 105.594 48.4956C105.464 48.1402 105.34 47.7911 105.224 47.4492C105.202 47.3846 105.208 47.3137 105.241 47.2534C105.274 47.1931 105.33 47.1491 105.396 47.1321L108.75 46.2708C108.856 46.2289 109.022 46.2027 109.24 46.2857C109.85 46.5205 110.632 47.545 111.231 48.8965C111.892 50.3849 112.258 52.1387 111.516 52.5033L108.629 54.411C108.588 54.438 108.541 54.4522 108.493 54.4522ZM105.776 47.5421C105.865 47.7997 105.958 48.06 106.056 48.3247C106.362 49.1476 106.695 49.9663 107.047 50.7581C107.389 51.5292 107.772 52.326 108.187 53.1255C108.318 53.3759 108.449 53.6207 108.578 53.8548L111.259 52.0833C111.27 52.0762 111.282 52.0691 111.294 52.0635C111.522 51.962 111.547 50.8233 110.781 49.0958C110.187 47.7578 109.467 46.9008 109.062 46.7447C109.028 46.7319 108.966 46.7121 108.927 46.7291C108.915 46.7348 108.902 46.7397 108.888 46.7426L105.776 47.5421Z" fill="#18181B"/>
<path d="M110.563 51.9805C110.361 51.9805 110.083 51.8627 109.729 51.4569C109.408 51.0901 109.086 50.5616 108.823 49.9677C108.559 49.3739 108.383 48.7808 108.325 48.297C108.238 47.5584 108.459 47.2974 108.66 47.208C108.784 47.1526 108.93 47.2087 108.985 47.3328C109.04 47.457 108.984 47.6017 108.86 47.6571C108.754 47.7401 108.718 48.5176 109.272 49.767C109.827 51.0163 110.424 51.5094 110.564 51.4867C110.687 51.4321 110.832 51.4881 110.886 51.6123C110.942 51.7364 110.884 51.8818 110.76 51.9372C110.705 51.9634 110.639 51.9805 110.563 51.9805Z" fill="white"/>
<path d="M99.8641 76.5791C101.31 76.0433 102.236 74.9427 101.931 74.1208C101.627 73.2989 100.207 73.067 98.7613 73.6028C97.3151 74.1386 96.3897 75.2393 96.6942 76.0612C96.9988 76.8831 98.4179 77.115 99.8641 76.5791Z" fill="white"/>
<path d="M98.3466 77.1079C98.1615 77.1079 97.9813 77.0944 97.8103 77.066C97.12 76.9532 96.6418 76.6247 96.4623 76.1409C96.2828 75.657 96.4318 75.0958 96.8816 74.5609C97.2988 74.0643 97.9358 73.6401 98.6744 73.3669C100.272 72.7745 101.804 73.0661 102.161 74.0295C102.34 74.5134 102.191 75.0746 101.741 75.6095C101.324 76.1061 100.687 76.5304 99.9486 76.8035C99.4072 77.0043 98.8553 77.1079 98.3466 77.1079ZM100.285 73.5542C99.8436 73.5542 99.3441 73.6429 98.8461 73.8273C98.1856 74.0721 97.6223 74.4446 97.259 74.8773C96.9277 75.2711 96.8092 75.6591 96.9242 75.9699C97.0391 76.2806 97.3825 76.4977 97.8904 76.5807C98.4474 76.6708 99.1185 76.5871 99.7783 76.3424C100.439 76.0976 101.002 75.7251 101.365 75.2924C101.697 74.8986 101.815 74.5106 101.7 74.1998C101.544 73.7805 100.99 73.5542 100.285 73.5542Z" fill="#18181B"/>
<path d="M99.3806 74.5246C100.995 73.9263 102.058 72.775 101.753 71.9531C101.448 71.1312 99.8926 70.9499 98.2778 71.5482C96.663 72.1466 95.6009 73.2979 95.9054 74.1198C96.2099 74.9417 97.7658 75.1229 99.3806 74.5246Z" fill="white"/>
<path d="M97.5571 75.1171C97.4074 75.1171 97.2619 75.1093 97.1229 75.093C96.3701 75.0057 95.8551 74.6879 95.6742 74.1991C95.4933 73.7102 95.6763 73.1342 96.1899 72.5773C96.6639 72.0636 97.3747 71.6138 98.1913 71.3116C99.0079 71.0086 99.8394 70.8873 100.535 70.9675C101.287 71.0555 101.802 71.3726 101.983 71.8614C102.341 72.8256 101.235 74.0941 99.4662 74.7496C98.8135 74.9901 98.1509 75.1171 97.5571 75.1171ZM100.098 71.4343C99.5634 71.4343 98.9611 71.5507 98.363 71.7727C97.6174 72.0487 96.9746 72.4531 96.5525 72.9114C96.1757 73.3193 96.0239 73.7266 96.136 74.0288C96.2481 74.331 96.6284 74.541 97.1803 74.6049C97.799 74.6772 98.5503 74.5644 99.2952 74.2877C100.906 73.6904 101.748 72.639 101.522 72.0317C101.41 71.7295 101.03 71.5202 100.478 71.4556C100.356 71.4414 100.228 71.4343 100.098 71.4343Z" fill="#18181B"/>
<path d="M97.7904 72.7626C99.5734 72.1019 100.746 70.8307 100.41 69.9232C100.074 69.0157 98.3558 68.8156 96.5727 69.4762C94.7897 70.1369 93.6168 71.4082 93.9531 72.3157C94.2893 73.2232 96.0074 73.4233 97.7904 72.7626Z" fill="white"/>
<path d="M95.7778 73.3918C95.6132 73.3918 95.4543 73.3832 95.301 73.3648C94.4795 73.269 93.919 72.9249 93.7225 72.395C93.333 71.3443 94.5476 69.958 96.4865 69.2393C97.3847 68.9066 98.2992 68.7725 99.0611 68.8605C99.8827 68.9563 100.443 69.3003 100.64 69.8303C100.836 70.3603 100.635 70.9874 100.075 71.5947C99.5542 72.1594 98.7731 72.6532 97.8756 72.986C97.1584 73.2527 96.4305 73.3918 95.7778 73.3918ZM98.5822 69.3259C97.9891 69.3259 97.3215 69.455 96.6582 69.7005C95.0336 70.3028 93.9006 71.4585 94.1843 72.224C94.3113 72.5667 94.7391 72.8043 95.3585 72.8767C96.0445 72.9569 96.8788 72.832 97.7053 72.5255C98.5319 72.219 99.2456 71.7707 99.7145 71.262C100.137 70.8037 100.306 70.3447 100.18 70.002C100.053 69.6593 99.6251 69.4217 99.0058 69.3493C98.8688 69.3344 98.7277 69.3259 98.5822 69.3259Z" fill="#18181B"/>
<path d="M96.8911 70.1116C98.5059 69.5133 99.568 68.362 99.2635 67.5401C98.959 66.7182 97.4031 66.5369 95.7883 67.1352C94.1735 67.7335 93.1114 68.8848 93.4159 69.7067C93.7204 70.5286 95.2763 70.7099 96.8911 70.1116Z" fill="white"/>
<path d="M95.0733 70.7036C94.1319 70.7036 93.4068 70.3836 93.1848 69.7856C92.8279 68.8221 93.9332 67.5529 95.7026 66.8981C96.5192 66.5952 97.3514 66.4731 98.0459 66.554C98.7987 66.642 99.3137 66.9591 99.4946 67.4479C99.8522 68.4114 98.7462 69.6806 96.9768 70.3361C96.3049 70.5844 95.6487 70.7036 95.0733 70.7036ZM97.6082 67.0215C97.074 67.0215 96.4717 67.1379 95.8736 67.36C94.2624 67.9573 93.421 69.0087 93.6459 69.6153C93.8708 70.2226 95.1939 70.4716 96.8051 69.875C98.4163 69.2776 99.2577 68.2262 99.0328 67.6189C98.9207 67.3167 98.5404 67.1074 97.9885 67.0428C97.8664 67.0279 97.7387 67.0215 97.6082 67.0215Z" fill="#18181B"/>
<path d="M90.933 71.4869C90.9847 71.4904 94.2064 67.2188 93.8708 66.193C93.4579 64.9209 91.0266 65.5211 89.8823 66.2391C88.6641 67.0039 86.6003 72.7114 86.6003 72.7114" fill="white"/>
<path d="M86.601 72.9568C86.5733 72.9568 86.5449 72.9526 86.5172 72.9419C86.3895 72.8958 86.3236 72.7546 86.3697 72.6269C86.5839 72.0345 88.4987 66.8172 89.7523 66.0305C90.564 65.5204 92.2574 64.9457 93.3145 65.3295C93.7118 65.4735 93.9849 65.746 94.1055 66.117C94.4872 67.2834 91.4465 71.2414 91.3167 71.4095C91.1095 71.6777 91.0599 71.7387 90.9187 71.7323C90.7832 71.7238 90.6796 71.6075 90.6881 71.472C90.6924 71.401 90.7264 71.3386 90.7768 71.2974C91.1599 70.8852 93.8927 67.0514 93.6373 66.2695C93.5635 66.0411 93.4025 65.885 93.1464 65.7921C92.3667 65.5097 90.8697 65.9106 90.0141 66.4476C89.0741 67.0379 87.3984 71.23 86.8322 72.7951C86.7961 72.8944 86.701 72.9568 86.601 72.9568Z" fill="#18181B"/>
<path d="M58.1079 44.7973C57.7021 45.7713 56.8486 46.6099 55.8036 46.7646C54.975 46.8873 54.1286 46.573 53.4525 46.0807C52.3607 45.2868 51.6349 44.0098 51.5072 42.6675C51.3816 41.3245 51.8562 39.9354 52.7785 38.9514C53.7029 37.9674 55.058 37.4048 56.4059 37.4438L57.0061 36.8734C57.766 38.3689 58.2505 40.0063 58.4229 41.6764C58.5308 42.7264 58.5109 43.8204 58.1079 44.7973Z" fill="#18181B"/>
<path d="M55.437 47.037C54.7318 47.037 53.9897 46.7752 53.3079 46.2793C52.1614 45.4457 51.3974 44.1041 51.2626 42.6902C51.1306 41.277 51.6301 39.8162 52.5992 38.7832C53.5392 37.7829 54.9042 37.1962 56.2734 37.1962C56.2855 37.1962 56.2975 37.1962 56.3089 37.1962L56.836 36.6953C56.8921 36.6421 56.9701 36.618 57.0474 36.6315C57.1241 36.645 57.19 36.6932 57.2248 36.762C58.0052 38.298 58.4905 39.9432 58.6664 41.6516C58.8033 42.9818 58.6983 44.0112 58.3344 44.8916C58.3344 44.8916 58.3344 44.8923 58.3337 44.8923C57.8555 46.0402 56.8992 46.8511 55.8385 47.0086C55.7073 47.0271 55.5725 47.037 55.437 47.037ZM56.2734 37.6879C55.0376 37.6879 53.8067 38.2171 52.9582 39.1195C52.0841 40.0517 51.6336 41.3692 51.7521 42.6441C51.8734 43.919 52.5637 45.1293 53.5974 45.8813C54.3054 46.3964 55.0773 46.6234 55.7676 46.5205C56.6452 46.3907 57.4745 45.6763 57.881 44.7022C58.2124 43.9005 58.3067 42.9463 58.1783 41.7012C58.0222 40.1858 57.593 38.6648 56.9332 37.282L56.5757 37.6219C56.5281 37.6673 56.4636 37.6928 56.399 37.6893C56.3571 37.6886 56.3153 37.6879 56.2734 37.6879Z" fill="#18181B"/>
<path d="M65.0293 71.0264C68.1538 73.2413 75.0291 81.5405 75.0291 81.5405C73.0178 81.4873 63.9893 83.8895 62.8804 90.3618L56.887 78.0833L57.507 68.0588C57.5077 68.0588 61.7226 68.6824 65.0293 71.0264Z" fill="white"/>
<path d="M39.3564 111.367L39.8772 121.718C41.0896 126.022 53.9839 134.952 55.9526 137.975C57.949 141.039 57.0757 144.015 57.0757 144.015H74.8851C74.8851 144.015 75.2093 137.183 73.0412 132.713C70.4006 127.268 60.2626 115.59 60.2626 115.59L62.5023 111.896L39.3564 111.367Z" fill="#18181B"/>
<path d="M74.8852 144.261H57.0759C56.9985 144.261 56.9255 144.225 56.8793 144.162C56.8325 144.101 56.8183 144.02 56.8396 143.946C56.8481 143.917 57.6534 141.034 55.7463 138.108C54.9972 136.958 52.6063 134.915 49.838 132.548C45.4139 128.766 40.3988 124.479 39.6397 121.784C39.6347 121.766 39.6319 121.748 39.6304 121.73L39.1097 111.379C39.1062 111.311 39.131 111.244 39.1792 111.195C39.2268 111.146 39.2927 111.118 39.3609 111.12L62.5074 111.65C62.5954 111.652 62.6756 111.7 62.7174 111.777C62.7593 111.854 62.7579 111.948 62.7117 112.023L60.5642 115.563C61.705 116.888 70.7903 127.509 73.2613 132.605C75.4315 137.08 75.1427 143.744 75.1293 144.026C75.125 144.158 75.0165 144.261 74.8852 144.261ZM57.3859 143.769H74.6468C74.6774 142.537 74.7121 136.721 72.82 132.82C70.2234 127.467 60.1776 115.867 60.0768 115.751C60.0066 115.67 59.9967 115.554 60.052 115.462L62.0711 112.133L39.6141 111.619L40.12 121.678C40.8663 124.234 46.0162 128.636 50.1566 132.175C52.9539 134.566 55.3696 136.631 56.1571 137.84C57.8378 140.416 57.5562 142.906 57.3859 143.769Z" fill="#18181B"/>
<path d="M61.1296 87.4609L62.8799 90.3611C63.9909 83.8902 73.0172 81.4866 75.0292 81.5405C75.0292 81.5405 73.8153 80.1273 73.047 79.21C70.571 79.4647 62.6961 82.0577 61.1296 87.4609Z" fill="#B1E346"/>
<path d="M62.8806 90.6073C62.7877 90.6073 62.7011 90.5548 62.66 90.4689L56.6665 78.1904C56.6481 78.1521 56.6395 78.1096 56.6417 78.0677L57.2617 68.0432C57.266 67.9743 57.2986 67.9105 57.3525 67.8672C57.4058 67.8239 57.4753 67.8055 57.5434 67.8154C57.7179 67.8417 61.854 68.4745 65.1707 70.8256C68.2859 73.0334 74.9363 81.0439 75.218 81.3837C75.2797 81.4582 75.2917 81.5618 75.2499 81.6483C75.2073 81.7349 75.1193 81.7817 75.0221 81.7867C74.9994 81.7859 74.9753 81.7859 74.9505 81.7859C72.7058 81.7859 64.1619 84.335 63.1225 90.4037C63.1041 90.5087 63.0204 90.5902 62.9146 90.6059C62.904 90.6066 62.8927 90.6073 62.8806 90.6073ZM57.1376 78.0337L62.7919 89.6183C64.33 83.8519 71.9878 81.5909 74.5255 81.322C73.1449 79.6789 67.5715 73.1299 64.8869 71.2272C62.1371 69.2783 58.7041 68.5291 57.7364 68.3482L57.1376 78.0337Z" fill="#18181B"/>
<path d="M50.7418 122.289C48.8546 131.676 46.7681 134.631 44.4816 144.015C38.5236 144.015 32.5649 144.015 26.6069 144.015C28.4614 130.171 29.8803 122.75 30.8644 108.905C38.5619 110.234 46.2552 111.564 53.9449 112.893" fill="#18181B"/>
<path d="M44.4816 144.261H26.607C26.5361 144.261 26.4687 144.23 26.4218 144.177C26.375 144.124 26.3537 144.053 26.3629 143.983C26.8518 140.335 27.3023 137.187 27.7379 134.143C28.9425 125.726 29.8946 119.078 30.6189 108.888C30.6239 108.82 30.658 108.755 30.7126 108.712C30.7672 108.67 30.8375 108.652 30.9063 108.664C38.6038 109.992 46.2971 111.321 53.9869 112.651C54.121 112.673 54.2103 112.801 54.1869 112.934C54.1635 113.069 54.0379 113.157 53.9024 113.135C46.3021 111.821 38.6975 110.507 31.0893 109.194C30.3664 119.247 29.42 125.861 28.2238 134.212C27.7996 137.177 27.3604 140.241 26.8865 143.769H44.2872C45.3117 139.598 46.2914 136.715 47.2386 133.924C48.3872 130.543 49.4719 127.348 50.4992 122.24C50.5262 122.106 50.6546 122.019 50.7887 122.047C50.922 122.074 51.0079 122.203 50.9809 122.337C49.948 127.477 48.8582 130.686 47.704 134.082C46.7455 136.904 45.7544 139.822 44.7186 144.073C44.6938 144.184 44.5951 144.261 44.4816 144.261Z" fill="#18181B"/>
<path d="M44.4816 144.261H26.607C26.5361 144.261 26.4687 144.23 26.4218 144.177C26.375 144.124 26.3537 144.053 26.3629 143.983C26.8518 140.335 27.3023 137.187 27.7379 134.143C28.9425 125.726 29.8946 119.078 30.6189 108.888C30.6239 108.82 30.658 108.755 30.7126 108.712C30.7672 108.67 30.8375 108.652 30.9063 108.664C38.6038 109.992 46.2971 111.321 53.9869 112.651C54.121 112.673 54.2103 112.801 54.1869 112.934C54.1635 113.069 54.0379 113.157 53.9024 113.135C46.3021 111.821 38.6975 110.507 31.0893 109.194C30.3664 119.247 29.42 125.861 28.2238 134.212C27.7996 137.177 27.3604 140.241 26.8865 143.769H44.2872C45.3117 139.598 46.2914 136.715 47.2386 133.924C48.3872 130.543 49.4719 127.348 50.4992 122.24C50.5262 122.106 50.6546 122.019 50.7887 122.047C50.922 122.074 51.0079 122.203 50.9809 122.337C49.948 127.477 48.8582 130.686 47.704 134.082C46.7455 136.904 45.7544 139.822 44.7186 144.073C44.6938 144.184 44.5951 144.261 44.4816 144.261Z" fill="#18181B"/>
<path d="M34.9927 67.2465C36.2222 67.045 37.5134 66.8896 38.8365 66.7789C37.5134 66.8917 36.2229 67.0471 34.9927 67.2465Z" fill="white"/>
<path d="M47.9458 66.6293C44.9774 66.4867 41.8296 66.5257 38.8442 66.779C41.8296 66.5236 44.9774 66.4838 47.9458 66.6293Z" fill="white"/>
<path d="M62.9409 113.66C62.9409 118.16 28.7545 117.471 28.7545 112.971C28.7566 112.944 28.7566 112.917 28.7595 112.887C28.7616 112.857 28.7616 112.828 28.7644 112.798C28.7644 112.778 28.7644 112.759 28.7666 112.739C28.7687 112.69 28.7687 112.641 28.7715 112.587C28.8134 110.746 29.8648 105.64 29.1043 101.19C27.4598 91.5636 23.5067 79.6449 25.9728 72.71C27.3122 68.9442 32.8679 67.6289 33.102 67.5799C33.102 67.5799 33.102 67.5799 33.1042 67.5799C33.3354 67.531 33.5689 67.4841 33.8072 67.4373C34.1641 67.3706 34.5302 67.3068 34.8991 67.2458C36.1286 67.0464 37.4198 66.8918 38.7429 66.7782C38.745 66.7804 38.7478 66.7804 38.75 66.7782C41.7353 66.525 44.8832 66.4859 47.8515 66.6285C48.019 66.6356 48.1836 66.6456 48.3481 66.6534C48.8107 66.6803 49.2704 66.7101 49.7231 66.7442C49.8877 66.7562 50.0522 66.769 50.2147 66.7839C50.4162 66.8009 50.6156 66.818 50.8121 66.8378C50.8589 66.84 50.9057 66.8449 50.9497 66.8499C51.2746 66.8818 51.5918 66.9137 51.906 66.9485C53.32 67.1081 54.641 67.3125 55.8236 67.5586C56.8765 67.7779 57.8179 68.0283 58.6175 68.3064L62.159 79.2107C63.4942 90.2306 62.5159 106.398 62.9409 113.66Z" fill="white"/>
<path d="M32.1733 67.8133C33.0978 69.3429 39.4651 77.1504 47.0193 76.0387C54.8744 74.8802 56.1954 70.6639 55.9194 67.5579C49.5528 66.2398 39.17 66.0901 32.1733 67.8133Z" fill="#B1E346"/>
<path d="M47.8869 116.956C40.1347 116.956 28.6018 115.895 28.6018 112.971L28.6125 112.778C28.6118 112.77 28.6125 112.74 28.616 112.71L28.6196 112.577C28.6309 112.078 28.7132 111.362 28.8175 110.456C29.0921 108.068 29.5071 104.457 28.9559 101.232C28.5401 98.7993 27.9633 96.1587 27.4057 93.6047C25.7165 85.8702 23.9698 77.8726 25.835 72.6276C27.2369 68.6866 33.0863 67.3514 33.1452 67.3387C33.1501 67.3379 33.1551 67.3365 33.1608 67.3358C33.3885 67.2876 33.6191 67.2415 33.8546 67.1954C34.215 67.1287 34.5832 67.0641 34.9536 67.0024C36.1632 66.8066 37.4629 66.6484 38.8172 66.5327C38.8229 66.532 38.8293 66.532 38.835 66.532C41.7345 66.2865 44.8894 66.2355 47.9592 66.3823L48.4551 66.4071C48.9227 66.4348 49.3838 66.4639 49.8379 66.4987C50.0039 66.5107 50.1699 66.5235 50.3338 66.5384C50.5352 66.5554 50.7353 66.5732 50.9332 66.593C50.973 66.5944 51.0241 66.6001 51.073 66.6058C51.3958 66.6377 51.7144 66.6696 52.0301 66.7044C53.4688 66.8669 54.7941 67.0733 55.9711 67.3181C57.043 67.5409 57.993 67.7955 58.7954 68.0744C58.9238 68.1191 58.9919 68.2588 58.9472 68.3872C58.9025 68.5156 58.7628 68.5837 58.6343 68.5391C57.8518 68.2673 56.9224 68.0183 55.8717 67.7998C54.7104 67.5579 53.3993 67.3543 51.9769 67.1939C51.664 67.1592 51.3476 67.128 51.0241 67.096C50.9815 67.0918 50.9396 67.0868 50.8978 67.0847C50.6906 67.0641 50.4927 67.0471 50.2919 67.03C50.1294 67.0151 49.9656 67.0031 49.8024 66.991C49.3505 66.9563 48.8922 66.9272 48.4317 66.9002L47.9387 66.8754C44.8859 66.7292 41.7494 66.781 38.869 67.0251C38.8633 67.0258 38.8584 67.0258 38.8527 67.0258C37.514 67.1407 36.2299 67.2968 35.0359 67.4898C34.6698 67.5508 34.3051 67.6146 33.9497 67.6806C33.7149 67.7267 33.4829 67.7728 33.253 67.8218C33.2487 67.8225 33.2438 67.8232 33.2395 67.8239C32.9621 67.8878 27.5866 69.1825 26.3025 72.7936C24.4842 77.9059 26.2152 85.8341 27.8903 93.5004C28.4493 96.0594 29.0268 98.7056 29.4447 101.15C30.0073 104.444 29.5873 108.096 29.3099 110.512C29.207 111.406 29.1261 112.112 29.1148 112.593L29.1098 112.753C29.107 112.78 29.1077 112.789 29.1077 112.799L29.097 112.993C29.0977 114.897 37.5289 116.465 47.8911 116.465C51.9761 116.465 55.6958 116.201 58.3655 115.723C61.1784 115.218 62.7924 114.466 62.7924 113.659C62.6356 110.986 62.669 107.138 62.7087 102.684C62.7733 95.3294 62.8542 86.1767 62.0149 79.2397C61.9986 79.1049 62.0943 78.9822 62.2291 78.9659C62.3639 78.9517 62.4867 79.0453 62.503 79.1808C63.3458 86.1491 63.2649 95.3194 63.2004 102.688C63.1614 107.133 63.1273 110.973 63.2841 113.645C63.2848 114.775 61.6587 115.632 58.4527 116.207C55.7504 116.69 52.0003 116.956 47.8869 116.956Z" fill="#18181B"/>
<path d="M28.8524 113.134C28.8453 113.134 28.8382 113.134 28.8304 113.133C28.6949 113.121 28.5949 113.002 28.6069 112.866L28.6119 112.78C28.6226 112.644 28.741 112.546 28.8765 112.554C29.012 112.565 29.1128 112.683 29.1021 112.819L29.1 112.855C29.0993 112.874 29.0986 112.892 29.0965 112.91C29.0858 113.037 28.9787 113.134 28.8524 113.134Z" fill="#18181B"/>
<path d="M33.0835 67.6047C33.0835 67.6047 40.5491 74.6758 46.7156 74.0167C55.4468 73.0831 54.389 67.2699 54.389 67.2699L51.0816 66.7257C49.2881 65.3636 50.1174 58.0825 50.7417 56.5195C51.3973 54.8736 41.5664 52.4672 41.5664 52.4672C41.5664 52.4672 42.0517 64.6123 37.9617 66.8399C37.9617 66.8399 37.9596 66.8399 37.9553 66.8421C36.2306 67.1053 33.0835 67.6047 33.0835 67.6047Z" fill="white"/>
<path d="M45.8763 74.3062C39.8743 74.3062 33.209 68.0616 32.9146 67.7835C32.8465 67.719 32.821 67.6218 32.8486 67.5324C32.8763 67.443 32.9522 67.377 33.0451 67.3621C33.0451 67.3621 36.1455 66.8705 37.8786 66.6044C41.7522 64.4243 41.3259 52.5963 41.3216 52.4764C41.3188 52.3991 41.3521 52.3253 41.4117 52.2763C41.4713 52.2274 41.5508 52.2104 41.626 52.2281C42.4879 52.4395 50.0713 54.3373 50.9262 55.996C51.0333 56.2031 51.0482 56.4153 50.9709 56.6104C50.3295 58.218 49.6137 65.1593 51.1858 66.493L54.4294 67.0272C54.5323 67.0443 54.6132 67.1237 54.6316 67.2259C54.6465 67.3082 54.9828 69.2663 53.5824 71.1385C52.2919 72.8632 49.9904 73.9139 46.7418 74.2615C46.4559 74.2913 46.1665 74.3062 45.8763 74.3062ZM33.6312 67.7672C35.2168 69.162 41.4848 74.3232 46.69 73.772C49.7918 73.4407 51.9769 72.4581 53.1829 70.8519C54.2315 69.4557 54.2102 67.9737 54.1677 67.4827L51.0425 66.9684C51.0028 66.962 50.9659 66.9457 50.9333 66.9215C48.9858 65.4423 49.9031 57.9583 50.514 56.428C50.5303 56.3869 50.5424 56.3259 50.4891 56.2216C49.879 55.0382 44.3013 53.4114 41.8232 52.7843C41.8714 54.7892 41.9225 64.9634 38.0801 67.0556C38.0659 67.0634 38.0503 67.0698 38.0347 67.0748C38.0212 67.079 38.0071 67.0826 37.9936 67.0847C36.6953 67.2834 34.5925 67.6147 33.6312 67.7672Z" fill="#18181B"/>
<path d="M51.0824 66.7775C51.0824 66.7775 50.3942 67.4522 48.6575 67.5984L51.0824 66.7775Z" fill="white"/>
<path d="M48.6568 67.8445C48.5305 67.8445 48.4226 67.7474 48.412 67.6189C48.4007 67.4834 48.5014 67.365 48.6362 67.3536C50.2459 67.2174 50.9043 66.6066 50.9107 66.6009C51.0086 66.5072 51.164 66.5101 51.2576 66.6073C51.3513 66.7045 51.3498 66.8584 51.2534 66.9528C51.2229 66.9826 50.4815 67.6913 48.6766 67.8431C48.671 67.8438 48.6639 67.8445 48.6568 67.8445Z" fill="#18181B"/>
<path d="M41.2749 54.4501C41.2749 54.4501 41.4196 54.7558 41.697 55.2425L41.2749 54.4501Z" fill="white"/>
<path d="M41.697 55.4887C41.6111 55.4887 41.5288 55.444 41.4834 55.3646C41.2046 54.8758 41.0585 54.5679 41.0528 54.5558C40.9946 54.4331 41.0471 54.2862 41.1698 54.2287C41.2926 54.1713 41.4394 54.2231 41.4976 54.3458C41.499 54.3486 41.6423 54.6509 41.9112 55.1219C41.9786 55.2397 41.9375 55.3901 41.8197 55.4575C41.78 55.4781 41.7381 55.4887 41.697 55.4887Z" fill="#18181B"/>
<path d="M45.704 60.0491C48.0218 61.834 51.1426 62.7407 54.8077 60.0916C58.5926 57.3546 59.4141 47.9628 56.3401 42.4461C55.4646 40.8719 54.2692 39.6133 52.7375 38.9145C47.8139 36.6719 43.0109 39.5267 42.2362 42.8959C41.6559 45.4287 41.9311 49.5854 41.9311 49.5854C41.9311 49.5854 39.3388 47.274 38.6258 50.2764C37.905 53.3185 41.697 55.2411 41.697 55.2411" fill="white"/>
<path d="M50.2274 61.9873C48.6354 61.9873 47.0626 61.4063 45.5536 60.2435C45.4457 60.1605 45.4259 60.0065 45.5089 59.8987C45.5919 59.7909 45.7458 59.771 45.8537 59.854C48.7 62.0469 51.6641 62.0597 54.6636 59.8923C58.3662 57.2148 59.1445 47.9849 56.1251 42.5661C55.217 40.9336 54.0428 39.7808 52.6353 39.1387C50.3721 38.1072 47.8706 38.1114 45.7714 39.148C44.0616 39.9922 42.8293 41.4147 42.476 42.9513C41.9105 45.4195 42.1737 49.5279 42.1766 49.5691C42.1829 49.6684 42.129 49.7628 42.0389 49.806C41.9495 49.8493 41.8417 49.8351 41.7672 49.7692C41.7559 49.7585 40.6151 48.7575 39.7602 49.0271C39.3409 49.1597 39.0394 49.5989 38.8648 50.3339C38.198 53.1497 41.7722 55.0042 41.8084 55.0226C41.9297 55.0844 41.9779 55.2319 41.9162 55.3532C41.8552 55.4746 41.7069 55.5235 41.5856 55.4611C41.4238 55.3795 37.6297 53.4143 38.386 50.2204C38.6038 49.3052 39.016 48.7454 39.6126 48.5581C40.3511 48.3261 41.1684 48.744 41.6565 49.0711C41.6026 47.8614 41.531 44.8697 41.9949 42.8421C42.3816 41.1621 43.7111 39.6162 45.5521 38.7074C47.7848 37.6056 50.4403 37.5999 52.8375 38.6918C54.3429 39.3778 55.593 40.6016 56.5536 42.3277C59.6731 47.9246 58.8189 57.4944 54.9509 60.2917C53.3873 61.4219 51.7981 61.9873 50.2274 61.9873Z" fill="#18181B"/>
<path d="M44.427 58.909C44.82 59.3098 45.2464 59.6965 45.704 60.0491L44.427 58.909Z" fill="white"/>
<path d="M45.704 60.2946C45.6515 60.2946 45.599 60.2782 45.5543 60.2435C45.1144 59.9044 44.676 59.5135 44.2517 59.0807C44.1567 58.9835 44.1581 58.8281 44.2553 58.7331C44.3518 58.638 44.5078 58.6394 44.6029 58.7366C45.0116 59.1531 45.4323 59.5291 45.8551 59.854C45.9629 59.937 45.9828 60.0909 45.8998 60.1988C45.8501 60.2619 45.7778 60.2946 45.704 60.2946Z" fill="#18181B"/>
<path d="M34.6466 42.6264C34.2543 42.5413 33.9676 42.1823 33.8534 41.7978C33.7392 41.4132 33.7662 41.0025 33.7988 40.6023C33.8705 39.7155 33.9769 38.789 34.477 38.0533C35.1652 37.0402 36.4741 36.6088 37.6987 36.6166C38.9232 36.6244 40.1115 36.9969 41.3048 37.2729C42.4981 37.5489 43.7666 37.7262 44.9322 37.3509C46.5405 36.8337 49.3585 34.24 50.8242 33.3993C52.0388 32.7026 53.5031 32.4514 54.8809 32.704C56.055 32.919 57.1724 33.5057 57.9514 34.4095C58.7303 35.3134 59.1489 36.5414 58.9978 37.7248C58.7977 39.2934 59.0283 41.1593 56.0919 42.0241C55.3044 42.2561 52.6659 42.283 51.8522 42.3951C50.8817 42.5292 49.9558 42.9407 49.1903 43.5487C48.4632 44.1269 46.8243 43.5891 46.1106 44.1517C45.1316 44.9236 45.0393 46.3397 43.7928 46.3397C43.7928 46.3397 44.5087 49.6989 43.7928 49.9352C43.077 50.1686 41.9312 49.5861 41.9312 49.5861C41.9312 49.5861 39.3389 47.2747 38.6259 50.2771C37.9051 53.3193 41.6971 55.2419 41.6971 55.2419L41.4219 57.5781C32.2955 55.9769 32.7971 44.5809 34.6806 42.4143" fill="#18181B"/>
<path d="M41.4218 57.825C41.4076 57.825 41.3934 57.8235 41.3792 57.8214C36.8856 57.0332 34.9232 53.9925 34.0683 51.5811C32.8403 48.1183 33.2979 44.3113 34.1953 42.6931C33.9307 42.5129 33.7228 42.222 33.6171 41.868C33.4951 41.4565 33.5157 41.0422 33.5533 40.5825C33.6278 39.6588 33.7455 38.6918 34.2734 37.9149C34.9317 36.9465 36.1981 36.3704 37.6645 36.3704C37.6766 36.3704 37.688 36.3704 37.7 36.3704C38.6996 36.3768 39.6758 36.6188 40.6201 36.8536C40.867 36.9146 41.1132 36.9756 41.3601 37.0331C42.4406 37.2828 43.702 37.4878 44.857 37.1168C45.8062 36.8117 47.2528 35.7078 48.5291 34.7344C49.3492 34.1087 50.1239 33.5177 50.7021 33.1864C51.96 32.4642 53.4988 32.201 54.9255 32.4628C56.2068 32.6976 57.3476 33.3319 58.1379 34.2499C58.9836 35.2318 59.3965 36.5428 59.2418 37.7567C59.2177 37.9468 59.1999 38.1419 59.1815 38.3385C59.0481 39.7999 58.8963 41.4558 56.1614 42.261C55.642 42.4143 54.4296 42.4788 53.359 42.5363C52.7532 42.5682 52.1813 42.5994 51.8855 42.6399C50.971 42.7661 50.092 43.1478 49.3428 43.7431C48.9115 44.0864 48.263 44.095 47.6366 44.1035C47.1031 44.1106 46.5518 44.1184 46.2624 44.3468C45.9169 44.6192 45.6856 44.9917 45.4621 45.3514C45.128 45.8884 44.7846 46.4411 44.0886 46.5631C44.322 47.7415 44.6399 49.9167 43.8694 50.1707C43.0656 50.4339 41.8695 49.833 41.8191 49.8075C41.8006 49.7975 41.7829 49.7862 41.7673 49.772C41.7559 49.7621 40.6151 48.7603 39.7603 49.0299C39.341 49.1626 39.0395 49.6017 38.8649 50.3367C38.198 53.1525 41.7723 55.007 41.8084 55.0255C41.9 55.0723 41.9532 55.1709 41.9411 55.2738L41.6658 57.61C41.658 57.6767 41.6226 57.7377 41.5687 57.7781C41.5261 57.8079 41.4743 57.825 41.4218 57.825ZM34.6565 42.8719C33.8023 44.3042 33.3454 48.0714 34.5316 51.4165C35.3262 53.6584 37.1296 56.4727 41.2082 57.2886L41.4331 55.3795C40.7017 54.9687 37.7064 53.0908 38.3861 50.2211C38.6039 49.3059 39.016 48.7461 39.6127 48.5588C40.6627 48.2296 41.8709 49.2122 42.0681 49.3804C42.3852 49.5357 43.2245 49.8621 43.7155 49.7017C43.9439 49.6265 43.9219 48.1324 43.5516 46.3914C43.536 46.3191 43.5544 46.2432 43.6012 46.1857C43.6481 46.1282 43.7183 46.0942 43.7921 46.0942C44.3887 46.0942 44.6569 45.7125 45.0443 45.0896C45.2791 44.7122 45.5451 44.2851 45.958 43.9587C46.378 43.6274 47.0144 43.6189 47.6295 43.6097C48.1736 43.6026 48.7362 43.5941 49.0363 43.3557C49.8543 42.7058 50.8164 42.2894 51.8181 42.1511C52.1338 42.1071 52.6893 42.078 53.3328 42.0432C54.3239 41.99 55.5576 41.924 56.0223 41.7871C58.4373 41.0762 58.5607 39.7233 58.692 38.2916C58.7104 38.0887 58.7289 37.8887 58.7537 37.6929C58.8913 36.6145 58.5217 35.4467 57.7647 34.5684C57.0475 33.7355 56.0074 33.1595 54.8361 32.9445C53.5222 32.704 52.1047 32.9466 50.9462 33.6107C50.3964 33.9264 49.6344 34.5074 48.8271 35.1232C47.5195 36.1207 46.0375 37.2516 45.0074 37.5829C43.7382 37.9908 42.3959 37.7752 41.2494 37.5105C41.0004 37.4531 40.7514 37.3913 40.5023 37.3289C39.5857 37.1019 38.6386 36.8663 37.6979 36.8607C37.6872 36.8607 37.6766 36.8607 37.6653 36.8607C36.3613 36.8607 35.2474 37.3559 34.6813 38.1895C34.2202 38.8677 34.1173 39.7262 34.0449 40.6201C34.0116 41.0301 33.9924 41.3955 34.0903 41.7261C34.162 41.9659 34.301 42.1652 34.4713 42.2823C34.4798 42.2724 34.4883 42.2624 34.4968 42.2525C34.5855 42.1496 34.7409 42.1397 34.8438 42.2284C34.9395 42.3121 34.9551 42.4533 34.8835 42.5554C34.8948 42.5938 34.897 42.6356 34.8877 42.6775C34.8622 42.7903 34.7657 42.8676 34.6565 42.8719Z" fill="#18181B"/>
<path d="M49.0313 49.2957C49.4468 49.2342 49.7185 48.7447 49.6381 48.2025C49.5578 47.6602 49.1559 47.2706 48.7404 47.3321C48.3249 47.3937 48.0532 47.8832 48.1335 48.4254C48.2138 48.9676 48.6158 49.3573 49.0313 49.2957Z" fill="#18181B"/>
<path d="M54.6751 48.468C55.0906 48.4065 55.3623 47.917 55.2819 47.3748C55.2016 46.8325 54.7996 46.4429 54.3842 46.5044C53.9687 46.566 53.697 47.0555 53.7773 47.5977C53.8576 48.1399 54.2596 48.5296 54.6751 48.468Z" fill="#18181B"/>
<path d="M49.5896 46.1041C49.5896 46.1041 48.1891 45.4599 46.844 46.9782L49.5896 46.1041Z" fill="white"/>
<path d="M46.844 47.2236C46.7858 47.2236 46.7277 47.2031 46.6808 47.1619C46.5794 47.0718 46.5695 46.9164 46.6596 46.815C48.109 45.179 49.6762 45.8735 49.6918 45.8806C49.8152 45.9374 49.8691 46.0835 49.8124 46.207C49.7556 46.3297 49.6102 46.3836 49.4874 46.3283C49.4364 46.3056 48.2267 45.7877 47.0278 47.1413C46.9795 47.196 46.9121 47.2236 46.844 47.2236Z" fill="#18181B"/>
<path d="M55.5774 44.9087C55.5774 44.9087 54.1769 44.2645 52.8318 45.7827L55.5774 44.9087Z" fill="white"/>
<path d="M52.8311 46.0282C52.7729 46.0282 52.7147 46.0076 52.6679 45.9665C52.5665 45.8764 52.5565 45.721 52.6466 45.6196C54.096 43.9836 55.6632 44.6781 55.6788 44.6852C55.8023 44.742 55.8562 44.8881 55.7994 45.0116C55.7427 45.1343 55.5972 45.1882 55.4745 45.1329C55.4234 45.1102 54.2138 44.5923 53.0148 45.9459C52.9673 46.0005 52.8992 46.0282 52.8311 46.0282Z" fill="#18181B"/>
<path d="M51.9912 48.3375C52.5041 49.767 53.0164 51.1966 53.5293 52.6261C53.6137 52.8616 53.6996 53.1085 53.6641 53.3554C53.6187 53.6768 53.3718 53.9414 53.0852 54.0925C52.7986 54.2436 52.4722 54.3018 52.153 54.3572" fill="white"/>
<path d="M52.1521 54.6034C52.0343 54.6034 51.9307 54.5189 51.9101 54.3998C51.8867 54.2657 51.9768 54.1387 52.1102 54.1153C52.4075 54.0635 52.7147 54.0103 52.9701 53.8755C53.2219 53.7421 53.3901 53.5349 53.4206 53.3207C53.4475 53.1277 53.3681 52.9049 53.2978 52.7084L51.7597 48.4198C51.7136 48.2921 51.7803 48.1509 51.908 48.1055C52.0357 48.0594 52.1769 48.1261 52.2223 48.2538L53.7604 52.5424C53.8455 52.7801 53.9519 53.0759 53.9072 53.3895C53.8547 53.7591 53.5901 54.1032 53.1999 54.3097C52.8757 54.4806 52.5139 54.5438 52.1946 54.5991C52.1804 54.6019 52.1662 54.6034 52.1521 54.6034Z" fill="#18181B"/>
<path d="M49.7874 56.7005C50.8068 57.2808 52.0732 57.4078 53.187 57.0425L49.7874 56.7005Z" fill="white"/>
<path d="M51.8874 57.4929C51.1127 57.4929 50.3373 57.2964 49.6654 56.9147C49.5476 56.8473 49.5065 56.6976 49.5732 56.5792C49.6406 56.4614 49.7903 56.4203 49.9088 56.4869C50.8665 57.0325 52.0634 57.1524 53.1105 56.809C53.2403 56.7658 53.3787 56.8367 53.4205 56.9658C53.4631 57.0949 53.3929 57.234 53.2638 57.2758C52.8211 57.4213 52.3549 57.4929 51.8874 57.4929Z" fill="#18181B"/>
<path d="M61.9455 87.6234L71.5841 120.399C72.4205 123.242 70.7931 126.225 67.9496 127.061L21.7664 140.642C18.9229 141.479 15.9404 139.851 15.104 137.008L5.46535 104.232C4.6289 101.389 6.25639 98.4063 9.09987 97.5699L55.283 83.9888C58.1265 83.1531 61.1098 84.7799 61.9455 87.6234Z" fill="white"/>
<path d="M20.2553 141.107C17.8297 141.107 15.5864 139.52 14.8684 137.077L5.23052 104.302C4.80769 102.864 4.97015 101.347 5.68812 100.031C6.40608 98.7149 7.5937 97.7572 9.03176 97.3343L55.2149 83.7533C56.653 83.3298 58.1698 83.4929 59.4858 84.2109C60.8019 84.9289 61.7596 86.1158 62.1824 87.5545L71.8211 120.33C72.6944 123.299 70.9889 126.425 68.0205 127.297L21.8374 140.879C21.3095 141.033 20.7782 141.107 20.2553 141.107ZM56.8048 84.0144C56.3195 84.0144 55.8314 84.0839 55.3533 84.2251L9.17011 97.8061C7.85762 98.1921 6.77429 99.0661 6.11947 100.266C5.46464 101.467 5.31637 102.851 5.70231 104.163L15.3409 136.938C16.1376 139.647 18.9889 141.201 21.6976 140.406L67.8808 126.824C70.5895 126.027 72.1453 123.175 71.3486 120.467L61.71 87.6929C61.324 86.3804 60.45 85.2971 59.2496 84.6422C58.4869 84.2258 57.6498 84.0144 56.8048 84.0144Z" fill="#18181B"/>
<path d="M71.5842 120.399C72.4206 123.242 70.7931 126.225 67.9496 127.061L21.7665 140.642C18.923 141.478 15.9404 139.851 15.104 137.008L31.7435 115.637L37.4907 108.8L46.024 111.437L71.5842 120.399Z" fill="white"/>
<path d="M20.2553 141.107C17.8297 141.107 15.5864 139.52 14.8684 137.077C14.8464 137.001 14.862 136.919 14.9103 136.856L31.5498 115.486L37.3027 108.642C37.3665 108.566 37.4694 108.536 37.5638 108.565L46.0971 111.203L71.6657 120.167C71.7402 120.193 71.7976 120.253 71.8204 120.329C72.6937 123.298 70.9882 126.424 68.0198 127.297L21.8367 140.878C21.3095 141.033 20.7781 141.107 20.2553 141.107ZM15.3771 137.058C16.2213 139.692 19.0294 141.19 21.6976 140.407L67.8808 126.825C70.5497 126.04 72.0992 123.261 71.3826 120.588L45.9438 111.669L37.5744 109.083L31.9321 115.795L15.3771 137.058Z" fill="#18181B"/>
<path d="M61.9455 87.6234L43.6786 115.807C41.9503 118.191 38.8259 119.11 36.0825 118.041L5.46608 104.232C4.62964 101.389 6.25712 98.4063 9.1006 97.5699L55.2838 83.9888C58.1265 83.1531 61.1098 84.7799 61.9455 87.6234Z" fill="#FFEDD5"/>
<path d="M38.4286 118.729C37.6127 118.729 36.7869 118.58 35.9923 118.27L5.36532 104.457C5.30005 104.427 5.2511 104.371 5.23052 104.302C4.80769 102.864 4.97015 101.347 5.68812 100.031C6.40608 98.7149 7.5937 97.7572 9.03176 97.3343L55.2149 83.7533C56.653 83.3298 58.1698 83.4929 59.4858 84.2109C60.8019 84.9289 61.7596 86.1158 62.1824 87.5545C62.2023 87.6234 62.1917 87.6971 62.1527 87.7574L43.8857 115.941C42.586 117.733 40.5378 118.729 38.4286 118.729ZM5.6718 104.056L36.1832 117.817C38.811 118.841 41.8169 117.957 43.4792 115.662L61.6766 87.585C61.2758 86.3208 60.4166 85.2786 59.2489 84.6415C58.0485 83.9867 56.6643 83.8384 55.3526 84.2244L9.1694 97.8054C7.85691 98.1913 6.77358 99.0654 6.11876 100.266C5.48238 101.434 5.32488 102.775 5.6718 104.056Z" fill="#18181B"/>
<path d="M66.9194 115.974C66.7449 116.847 65.5473 116.918 64.5953 116.527C65.4069 117.034 65.6921 117.29 65.8198 117.705C66.1128 118.639 65.0798 119.067 64.3051 118.851C64.3051 118.851 65.2643 120.663 63.2012 120.685C63.2012 120.685 63.3367 122.478 61.7624 122.382C59.9058 122.267 56.4727 120.42 55.3362 119.8C52.6701 118.354 50.607 116.148 50.607 116.148C50.607 116.148 35.3694 111.394 30.5125 105.887C27.1554 102.081 24.0742 86.6316 24.0742 86.6316L36.5478 83.7689C36.5478 83.7689 39.182 95.9325 39.4324 96.4341C39.6836 96.9356 54.0677 107.958 54.0677 107.958C54.0677 107.958 60.2108 107.548 61.4354 108.908C62.6577 110.265 58.9487 111.468 58.9487 111.468C58.9487 111.468 67.3664 113.736 66.9194 115.974Z" fill="white"/>
<path d="M61.8823 122.633C61.8383 122.633 61.7929 122.631 61.7467 122.628C60.4435 122.548 58.247 121.669 55.2177 120.017C52.7325 118.669 50.7964 116.703 50.4721 116.365C49.2675 115.985 35.0685 111.426 30.3273 106.051C26.9652 102.239 23.9585 87.314 23.8322 86.6805C23.806 86.55 23.889 86.4223 24.0181 86.3925L36.4917 83.5298C36.5555 83.5156 36.6229 83.527 36.6783 83.5617C36.7336 83.5965 36.7726 83.6533 36.7868 83.7171C37.8347 88.5563 39.4622 95.9076 39.6523 96.3262C40.0141 96.803 48.4892 103.374 54.1428 107.707C55.1091 107.648 60.3967 107.388 61.6169 108.743C61.9603 109.125 61.9567 109.485 61.8936 109.721C61.6864 110.493 60.5201 111.104 59.7326 111.435C61.8808 112.07 67.5721 113.958 67.1592 116.022C67.0903 116.365 66.8874 116.636 66.5731 116.805C66.3248 116.938 66.0077 117.008 65.6608 116.998C65.8559 117.19 65.9786 117.386 66.0538 117.632C66.1858 118.052 66.1049 118.443 65.8254 118.731C65.5572 119.008 65.1216 119.161 64.6846 119.152C64.7804 119.479 64.8428 119.942 64.6165 120.323C64.4086 120.672 64.0156 120.873 63.4452 120.921C63.4289 121.249 63.3409 121.826 62.9514 122.221C62.6825 122.494 62.3235 122.633 61.8823 122.633ZM24.3629 86.8181C24.7666 88.7684 27.6455 102.265 30.6969 105.726C35.4538 111.118 50.5282 115.866 50.68 115.913C50.7204 115.926 50.7573 115.949 50.7864 115.98C50.807 116.002 52.8552 118.174 55.4532 119.584C59.1473 121.598 60.9309 122.084 61.7773 122.137C62.1377 122.157 62.4051 122.074 62.6009 121.876C63.0046 121.468 62.9564 120.711 62.9557 120.703C62.9507 120.636 62.9741 120.568 63.0202 120.519C63.0663 120.469 63.1309 120.44 63.1983 120.439C63.7176 120.433 64.0525 120.309 64.1951 120.07C64.4412 119.657 64.0915 118.972 64.0879 118.965C64.0418 118.878 64.0525 118.772 64.1135 118.696C64.1752 118.619 64.2766 118.587 64.371 118.614C64.7676 118.724 65.2415 118.628 65.4735 118.389C65.6253 118.232 65.6629 118.027 65.5856 117.778C65.4827 117.444 65.2422 117.22 64.4654 116.735C64.3568 116.668 64.3185 116.528 64.3767 116.414C64.4349 116.301 64.5704 116.25 64.6888 116.299C65.294 116.548 65.958 116.577 66.3426 116.371C66.5285 116.272 66.6384 116.126 66.6789 115.926C66.9719 114.46 62.0539 112.56 58.8855 111.706C58.7805 111.677 58.7067 111.583 58.7039 111.474C58.7011 111.366 58.7706 111.268 58.8742 111.234C59.7667 110.944 61.2473 110.242 61.4211 109.593C61.4509 109.482 61.4658 109.308 61.2537 109.072C60.3144 108.029 55.7604 108.092 54.0847 108.204C54.0244 108.207 53.9662 108.19 53.9187 108.153C50.5339 105.56 39.47 97.0562 39.2131 96.544C38.9684 96.0538 36.801 86.0931 36.3612 84.064L24.3629 86.8181Z" fill="#18181B"/>
<path d="M31.6419 68.0588C31.6419 68.0588 24.9596 69.8055 22.9816 76.8695C21.6109 81.7647 23.3583 90.3618 23.3583 90.3618C25.039 93.2755 40.4625 89.3899 38.7818 86.4761L35.4509 75.5634" fill="white"/>
<path d="M23.3583 90.3611C23.3583 90.3611 23.1788 89.4736 22.9773 88.1086C25.4909 90.1447 37.5459 87.1963 38.1901 84.545L38.7803 86.4755C40.4624 89.3892 25.0375 93.2748 23.3583 90.3611Z" fill="#B1E346"/>
<path d="M26.685 91.6417C25.1547 91.6417 23.6649 91.3849 23.1448 90.4839C23.1314 90.4612 23.1221 90.4356 23.1172 90.4101C23.0455 90.0568 21.374 81.698 22.7447 76.8028C24.7376 69.6856 31.5114 67.8382 31.5795 67.8204C31.7115 67.7878 31.8455 67.8644 31.8796 67.9964C31.9144 68.1276 31.8356 68.2617 31.7044 68.2965C31.6391 68.3135 25.1334 70.0963 23.2186 76.9355C21.9281 81.5448 23.4641 89.6212 23.5918 90.271C24.7652 92.1184 33.2957 90.7591 37.1217 88.5513C37.7595 88.1831 38.2079 87.822 38.4555 87.4772C38.7641 87.0473 38.6683 86.7699 38.569 86.5982C38.5598 86.5819 38.552 86.5648 38.547 86.5471L35.2169 75.6343C35.1771 75.5045 35.2502 75.3669 35.38 75.3271C35.5092 75.2867 35.6475 75.3605 35.6872 75.4903L39.0096 86.3776C39.1784 86.6869 39.2806 87.1707 38.8549 87.7638C38.5669 88.1654 38.066 88.5733 37.3672 88.977C35.5092 90.0483 32.3819 91.0124 29.3987 91.4317C28.6346 91.5395 27.652 91.6417 26.685 91.6417Z" fill="#18181B"/>
<path d="M64.305 119.097C64.2688 119.097 64.2326 119.09 64.1986 119.073L60.8812 117.471C60.7592 117.412 60.7074 117.266 60.767 117.143C60.8258 117.02 60.9734 116.969 61.0954 117.029L64.4128 118.63C64.5349 118.689 64.5866 118.836 64.5271 118.958C64.4838 119.046 64.3965 119.097 64.305 119.097Z" fill="#18181B"/>
<path d="M63.2005 120.933C63.1629 120.933 63.1238 120.924 63.0884 120.905L59.7958 119.208C59.6752 119.146 59.6277 118.997 59.6901 118.877C59.7525 118.756 59.9008 118.709 60.0214 118.771L63.314 120.468C63.4346 120.531 63.4821 120.679 63.4197 120.799C63.3757 120.885 63.2899 120.933 63.2005 120.933Z" fill="#18181B"/>
<path d="M64.5952 116.775C64.5633 116.775 64.5314 116.769 64.5001 116.756L61.5212 115.505C61.3956 115.452 61.3374 115.308 61.3899 115.183C61.4424 115.058 61.5864 114.997 61.712 115.051L64.691 116.302C64.8166 116.355 64.8747 116.499 64.8222 116.624C64.7825 116.718 64.6917 116.775 64.5952 116.775Z" fill="#18181B"/>
<path d="M132.364 28.0918C132.364 28.0918 135.135 22.8015 141.393 22.5993C147.65 22.3971 154.023 28.9148 154.602 29.2043C155.182 29.4937 154.342 32.7388 147.65 29.8995C147.65 29.8995 147.831 30.6643 148.152 31.3865C148.417 31.9853 147.524 33.2112 144.666 32.0236C144.666 32.0236 144.502 33.2503 143.295 33.2212C142.088 33.1921 141.556 32.4777 141.556 32.4777C141.556 32.4777 141.431 34.7855 139.461 34.5443C137.491 34.3031 135.82 32.4003 135.82 32.4003L132.364 28.0918Z" fill="#F3E8FF"/>
<path d="M121.485 28.6672C121.485 28.6672 122.367 22.7611 117.434 18.9066C112.5 15.0522 103.509 16.5569 102.871 16.4491C102.232 16.3412 100.997 19.4571 108.075 21.1116C108.075 21.1116 107.477 21.6217 106.793 22.0161C106.225 22.3432 106.223 23.86 109.232 24.5872C109.232 24.5872 108.641 25.6741 109.633 26.3629C110.624 27.0518 111.475 26.7879 111.475 26.7879C111.475 26.7879 110.215 28.7254 111.948 29.6924C113.681 30.6594 116.152 30.1081 116.152 30.1081L121.485 28.6672Z" fill="#F3E8FF"/>
<path d="M139.743 34.8075C139.642 34.8075 139.538 34.8011 139.432 34.7876C137.392 34.5379 135.707 32.643 135.636 32.5621L132.173 28.2451C132.112 28.1685 132.101 28.0635 132.146 27.9769C132.175 27.9223 135.057 22.5574 141.385 22.3524C146.723 22.1686 152.05 26.7304 154.054 28.443C154.356 28.7013 154.642 28.946 154.713 28.9829C155.018 29.1354 155.09 29.5952 154.879 30.0513C154.68 30.4834 153.43 32.4727 148.022 30.3167C148.105 30.5891 148.226 30.9438 148.378 31.2851C148.52 31.6043 148.428 31.9981 148.145 32.2882C147.854 32.5848 146.964 33.1644 144.839 32.3549C144.67 32.8572 144.22 33.4752 143.29 33.4652C142.55 33.4475 142.04 33.1928 141.73 32.9679C141.636 33.3865 141.422 33.9881 140.943 34.3896C140.612 34.6685 140.209 34.8075 139.743 34.8075ZM132.661 28.0684L136.013 32.2464C136.022 32.2563 137.64 34.0732 139.491 34.3003C139.951 34.3556 140.333 34.2605 140.626 34.015C141.248 33.4936 141.31 32.4748 141.311 32.4649C141.317 32.3613 141.386 32.2726 141.486 32.2428C141.584 32.213 141.692 32.2485 141.754 32.3315C141.772 32.3556 142.239 32.9502 143.3 32.9757C144.259 32.9885 144.407 32.0939 144.422 31.9903C144.433 31.9151 144.478 31.8484 144.544 31.8108C144.61 31.7732 144.689 31.7675 144.76 31.7966C146.427 32.4897 147.419 32.328 147.792 31.9463C147.964 31.7696 147.973 31.588 147.927 31.4859C147.602 30.7516 147.419 29.9882 147.411 29.9563C147.39 29.8662 147.421 29.7711 147.492 29.7115C147.563 29.6512 147.661 29.637 147.747 29.6732C152.598 31.7313 154.007 30.4678 154.324 30.0315C154.542 29.73 154.526 29.466 154.483 29.4164C154.378 29.366 154.189 29.2064 153.735 28.8183C151.771 27.139 146.558 22.6844 141.401 22.8447C135.927 23.0221 133.15 27.2462 132.661 28.0684Z" fill="#18181B"/>
<path d="M147.65 30.145C147.551 30.145 147.457 30.084 147.42 29.9861C147.415 29.9719 146.877 28.5878 145.55 27.7613C145.434 27.6896 145.4 27.5378 145.471 27.4229C145.543 27.3072 145.695 27.2725 145.81 27.3441C147.283 28.2607 147.856 29.7499 147.88 29.8123C147.927 29.9393 147.864 30.0805 147.737 30.1287C147.708 30.1393 147.679 30.145 147.65 30.145Z" fill="#18181B"/>
<path d="M144.666 32.2691C144.56 32.2691 144.462 32.2003 144.43 32.0938C144.423 32.0704 143.703 29.7143 142.643 28.9808C142.532 28.9034 142.504 28.7502 142.581 28.6388C142.658 28.5274 142.812 28.4991 142.923 28.5764C144.124 29.4079 144.87 31.8491 144.902 31.9527C144.941 32.0825 144.867 32.2194 144.737 32.2591C144.714 32.2662 144.689 32.2691 144.666 32.2691Z" fill="#18181B"/>
<path d="M141.556 32.7232C141.446 32.7232 141.346 32.648 141.318 32.5366C141.168 31.9279 140.672 30.2302 140.194 29.6846C140.104 29.5824 140.114 29.4271 140.216 29.3377C140.318 29.2483 140.474 29.2582 140.563 29.3604C141.218 30.1067 141.772 32.3245 141.796 32.4181C141.828 32.5501 141.748 32.6834 141.616 32.7161C141.596 32.721 141.576 32.7232 141.556 32.7232Z" fill="#18181B"/>
<path d="M114.533 30.5118C113.696 30.5118 112.685 30.3841 111.828 29.9066C111.3 29.6122 110.968 29.205 110.841 28.6956C110.691 28.089 110.873 27.4768 111.044 27.083C110.662 27.0823 110.099 26.9865 109.491 26.5644C108.729 26.0352 108.735 25.2597 108.895 24.7546C106.702 24.1544 106.324 23.1619 106.265 22.7511C106.207 22.3496 106.366 21.9778 106.668 21.8033C106.992 21.6167 107.298 21.4017 107.526 21.2307C101.889 19.7828 102.052 17.438 102.146 16.9719C102.245 16.4788 102.574 16.1497 102.911 16.2071C102.989 16.2192 103.364 16.1901 103.76 16.1603C106.388 15.9581 113.371 15.4225 117.584 18.7136C122.573 22.6113 121.736 28.6438 121.727 28.7041C121.713 28.8006 121.643 28.8793 121.548 28.9056L116.215 30.3458C116.155 30.3586 115.449 30.5118 114.533 30.5118ZM111.473 26.5417C111.55 26.5417 111.623 26.5772 111.67 26.6403C111.732 26.7226 111.736 26.8347 111.681 26.9213C111.675 26.9298 111.125 27.796 111.32 28.58C111.412 28.9503 111.664 29.2525 112.067 29.4774C113.7 30.3876 116.074 29.8733 116.099 29.8683L121.259 28.4742C121.349 27.5215 121.597 22.473 117.282 19.101C113.22 15.9269 106.375 16.4519 103.798 16.6505C103.203 16.6959 102.957 16.713 102.829 16.6924C102.778 16.7073 102.609 16.9102 102.608 17.2827C102.605 17.8211 102.998 19.6728 108.13 20.8718C108.22 20.8931 108.291 20.9633 108.313 21.0534C108.335 21.1435 108.304 21.2386 108.234 21.2989C108.209 21.3201 107.611 21.8281 106.914 22.2297C106.817 22.2857 106.717 22.4368 106.752 22.6816C106.828 23.2094 107.534 23.9245 109.288 24.3488C109.363 24.3665 109.425 24.4183 109.455 24.4878C109.486 24.5581 109.483 24.6382 109.447 24.7049C109.398 24.7965 108.991 25.6187 109.772 26.1614C110.644 26.7666 111.372 26.5616 111.403 26.5531C111.426 26.5445 111.449 26.5417 111.473 26.5417Z" fill="#18181B"/>
<path d="M108.075 21.3564C107.994 21.3564 107.916 21.3173 107.869 21.245C107.794 21.1315 107.826 20.9789 107.94 20.9044C107.996 20.8675 109.336 20.0034 111.068 20.1318C111.203 20.1418 111.305 20.2595 111.295 20.395C111.285 20.5306 111.168 20.6334 111.032 20.6221C109.474 20.5071 108.222 21.3074 108.209 21.3159C108.168 21.3443 108.121 21.3564 108.075 21.3564Z" fill="#18181B"/>
<path d="M109.231 24.8326C109.156 24.8326 109.083 24.7993 109.034 24.7347C108.953 24.6262 108.974 24.4722 109.083 24.3906C109.169 24.3254 111.223 22.7915 112.671 22.8313C112.807 22.8348 112.914 22.9476 112.911 23.0831C112.907 23.2186 112.794 23.3151 112.659 23.3229C112.645 23.3222 112.631 23.3222 112.616 23.3222C111.328 23.3222 109.399 24.7681 109.38 24.783C109.335 24.8156 109.283 24.8326 109.231 24.8326Z" fill="#18181B"/>
<path d="M111.474 27.0327C111.404 27.0327 111.335 27.0029 111.286 26.9447C111.198 26.8404 111.212 26.685 111.316 26.5985C111.391 26.5361 113.146 25.0717 114.115 24.8554C114.248 24.8249 114.379 24.9093 114.409 25.0419C114.438 25.1746 114.355 25.3059 114.222 25.3357C113.515 25.4939 112.113 26.5729 111.632 26.9759C111.586 27.0142 111.53 27.0327 111.474 27.0327Z" fill="#18181B"/>
<path d="M117.58 24.3367L137.047 29.2809L132.837 42.4909L110.434 35.4999L117.58 24.3367Z" fill="white"/>
<path d="M132.837 42.7371C132.813 42.7371 132.788 42.7335 132.764 42.7257L110.362 35.7348C110.289 35.7121 110.23 35.656 110.204 35.5844C110.178 35.512 110.187 35.4318 110.229 35.3673L117.374 24.2048C117.432 24.1154 117.539 24.0721 117.642 24.0991L137.109 29.0432C137.175 29.0595 137.23 29.1028 137.264 29.1624C137.296 29.222 137.303 29.2915 137.283 29.3568L133.072 42.5668C133.038 42.6704 132.942 42.7371 132.837 42.7371ZM110.815 35.3609L132.677 42.183L136.734 29.4547L117.691 24.6184L110.815 35.3609Z" fill="#18181B"/>
<path d="M137.047 29.2809L121.172 33.2212L117.58 24.3367" fill="#FFEDD5"/>
<path d="M121.172 33.4667C121.075 33.4667 120.983 33.4078 120.945 33.3127L117.353 24.429C117.302 24.3034 117.363 24.1601 117.488 24.109C117.615 24.0586 117.758 24.119 117.808 24.2445L121.32 32.9303L136.988 29.0418C137.119 29.0106 137.254 29.0894 137.286 29.2213C137.319 29.3533 137.239 29.4867 137.107 29.5193L121.231 33.4589C121.211 33.4646 121.192 33.4667 121.172 33.4667Z" fill="#18181B"/>
<path d="M132.63 76.9553C132.63 76.9553 134.68 73.042 139.31 72.8916C143.939 72.7419 148.654 77.5633 149.082 77.7776C149.511 77.9918 148.889 80.3919 143.939 78.2919C143.939 78.2919 144.074 78.8574 144.311 79.3923C144.507 79.835 143.846 80.7424 141.732 79.8641C141.732 79.8641 141.61 80.7715 140.717 80.7502C139.824 80.7289 139.432 80.2004 139.432 80.2004C139.432 80.2004 139.339 81.908 137.881 81.7292C136.424 81.5505 135.188 80.1436 135.188 80.1436L132.63 76.9553Z" fill="#F3E8FF"/>
<path d="M124.581 77.3817C124.581 77.3817 125.234 73.0122 121.585 70.1609C117.935 67.3096 111.284 68.4227 110.811 68.3426C110.339 68.2624 109.425 70.5674 114.661 71.7919C114.661 71.7919 114.219 72.1694 113.713 72.4609C113.293 72.7029 113.291 73.8252 115.517 74.363C115.517 74.363 115.08 75.1675 115.813 75.6769C116.547 76.1863 117.176 75.9912 117.176 75.9912C117.176 75.9912 116.244 77.425 117.527 78.1401C118.809 78.8552 120.637 78.448 120.637 78.448L124.581 77.3817Z" fill="#F3E8FF"/>
<path d="M138.09 81.9882C138.013 81.9882 137.933 81.9832 137.851 81.9733C136.319 81.786 135.056 80.3664 135.003 80.3061L132.439 77.11C132.378 77.0334 132.367 76.9284 132.412 76.8418C132.434 76.8014 134.584 72.7994 139.302 72.6468C143.269 72.5191 147.23 75.8961 148.718 77.1682C148.926 77.3462 149.141 77.5293 149.195 77.5598C149.45 77.6875 149.515 78.0635 149.345 78.4331C149.195 78.7588 148.264 80.2472 144.316 78.7119C144.373 78.8886 144.447 79.0943 144.536 79.2937C144.651 79.5541 144.578 79.8733 144.35 80.1067C144.13 80.3323 143.461 80.7722 141.897 80.194C141.75 80.5735 141.388 81.0091 140.712 80.9964C140.207 80.9843 139.841 80.8261 139.599 80.6693C139.518 80.9808 139.352 81.3859 139.017 81.6661C138.761 81.8796 138.45 81.9882 138.09 81.9882ZM132.928 76.9333L135.379 79.9897C135.384 79.9946 136.566 81.3206 137.911 81.4852C138.236 81.5242 138.494 81.4611 138.7 81.2901C139.137 80.9254 139.185 80.194 139.186 80.1869C139.192 80.0833 139.262 79.9953 139.361 79.9655C139.459 79.9365 139.567 79.9712 139.628 80.0542C139.64 80.0698 139.972 80.487 140.723 80.5047C140.731 80.5047 140.739 80.5047 140.746 80.5047C141.39 80.5047 141.484 79.8598 141.488 79.8322C141.498 79.7563 141.542 79.6896 141.609 79.6512C141.675 79.6136 141.755 79.608 141.826 79.6371C143.029 80.1372 143.737 80.0294 143.999 79.7619C144.097 79.6612 144.113 79.5541 144.086 79.4923C143.842 78.9432 143.706 78.3735 143.7 78.3494C143.679 78.2593 143.71 78.1642 143.78 78.1046C143.851 78.0443 143.95 78.0302 144.035 78.0656C147.405 79.4952 148.499 78.7105 148.755 78.436C148.946 78.2295 148.958 78.0401 148.944 77.9819C148.85 77.9266 148.706 77.8031 148.399 77.5406C146.951 76.3026 143.101 73.0214 139.318 73.1371C135.378 73.2655 133.341 76.2523 132.928 76.9333Z" fill="#18181B"/>
<path d="M143.939 78.5388C143.84 78.5388 143.746 78.4785 143.709 78.3799C143.705 78.37 143.314 77.3647 142.352 76.7659C142.236 76.6943 142.201 76.5424 142.273 76.4275C142.345 76.3119 142.496 76.2764 142.611 76.3488C143.72 77.0383 144.151 78.1593 144.169 78.2068C144.216 78.3338 144.152 78.475 144.025 78.5232C143.997 78.5332 143.967 78.5388 143.939 78.5388Z" fill="#18181B"/>
<path d="M141.731 80.1103C141.625 80.1103 141.527 80.0414 141.495 79.9357C141.49 79.918 140.963 78.1962 140.198 77.6662C140.086 77.5889 140.058 77.4356 140.135 77.3242C140.213 77.2129 140.366 77.1845 140.477 77.2618C141.384 77.8897 141.942 79.7158 141.966 79.7938C142.005 79.9237 141.931 80.0606 141.801 80.1003C141.779 80.1067 141.754 80.1103 141.731 80.1103Z" fill="#18181B"/>
<path d="M139.43 80.4458C139.32 80.4458 139.22 80.3706 139.192 80.2592C139.081 79.813 138.72 78.57 138.375 78.1763C138.285 78.0741 138.295 77.9188 138.397 77.8294C138.5 77.74 138.655 77.7499 138.744 77.8521C139.23 78.4062 139.626 79.9655 139.669 80.1408C139.702 80.2727 139.622 80.4061 139.49 80.4387C139.47 80.4437 139.45 80.4458 139.43 80.4458Z" fill="#18181B"/>
<path d="M119.439 78.8091C118.812 78.8091 118.051 78.7133 117.406 78.3537C117 78.1266 116.743 77.8116 116.646 77.4172C116.541 76.9943 116.646 76.5694 116.764 76.2693C116.476 76.2537 116.087 76.165 115.673 75.8777C115.11 75.4868 115.084 74.9235 115.189 74.5304C113.586 74.0742 113.305 73.3251 113.26 73.0129C113.213 72.6901 113.343 72.3893 113.59 72.2474C113.779 72.1382 113.96 72.0161 114.111 71.9069C110.017 70.8179 110.143 69.0669 110.214 68.7158C110.294 68.3163 110.568 68.0546 110.853 68.0992C110.911 68.1071 111.193 68.0844 111.466 68.0638C113.418 67.9141 118.601 67.5168 121.737 69.9658C125.456 72.8717 124.833 77.3718 124.826 77.4172C124.811 77.5137 124.741 77.5924 124.646 77.6187L120.701 78.6843C120.654 78.6949 120.125 78.8091 119.439 78.8091ZM117.174 75.745C117.251 75.745 117.325 75.7805 117.372 75.8443C117.433 75.9266 117.438 76.0387 117.382 76.1246C117.378 76.1302 116.985 76.7489 117.124 77.3015C117.188 77.5612 117.359 77.7648 117.646 77.9244C118.833 78.5864 120.565 78.2111 120.583 78.2068L124.355 77.1873C124.423 76.3942 124.54 72.7809 121.434 70.3539C118.448 68.0212 113.403 68.4086 111.503 68.554C111.1 68.5845 110.911 68.5987 110.803 68.5881C110.756 68.6264 110.654 68.7867 110.688 69.0662C110.732 69.4387 111.152 70.7178 114.717 71.5507C114.807 71.572 114.878 71.6422 114.9 71.7323C114.922 71.8224 114.892 71.9175 114.821 71.9778C114.802 71.9941 114.355 72.3737 113.835 72.6731C113.777 72.7071 113.726 72.8029 113.746 72.9427C113.799 73.3123 114.307 73.8167 115.574 74.1225C115.649 74.1402 115.711 74.192 115.741 74.2615C115.772 74.3311 115.769 74.4119 115.732 74.4786C115.7 74.5404 115.422 75.1044 115.953 75.4726C116.57 75.9011 117.084 75.7599 117.105 75.7528C117.128 75.7486 117.151 75.745 117.174 75.745Z" fill="#18181B"/>
<path d="M114.661 72.0374C114.581 72.0374 114.502 71.9984 114.455 71.926C114.38 71.8125 114.412 71.6607 114.526 71.5862C114.568 71.5585 115.578 70.9073 116.88 71.0044C117.015 71.0144 117.117 71.1321 117.107 71.2677C117.097 71.4032 116.978 71.506 116.844 71.4947C115.711 71.4124 114.805 71.992 114.795 71.9977C114.753 72.0246 114.707 72.0374 114.661 72.0374Z" fill="#18181B"/>
<path d="M115.517 74.6085C115.442 74.6085 115.369 74.5751 115.32 74.5106C115.239 74.402 115.26 74.2481 115.369 74.1665C115.433 74.1182 116.959 72.9689 118.064 73.0001C118.199 73.0037 118.307 73.1165 118.304 73.252C118.3 73.3882 118.184 73.4946 118.052 73.4918C117.118 73.4705 115.68 74.5482 115.666 74.5588C115.62 74.5921 115.568 74.6085 115.517 74.6085Z" fill="#18181B"/>
<path d="M117.176 76.2367C117.106 76.2367 117.037 76.2069 116.988 76.1488C116.9 76.0445 116.914 75.8891 117.018 75.8026C117.157 75.6862 118.396 74.6603 119.115 74.5C119.248 74.4709 119.379 74.5539 119.409 74.6866C119.439 74.8193 119.355 74.9505 119.222 74.9803C118.712 75.0945 117.686 75.8849 117.334 76.18C117.288 76.2176 117.232 76.2367 117.176 76.2367Z" fill="#18181B"/>
<path d="M121.693 74.1779L136.094 77.8358L132.98 87.6085L116.406 82.4359L121.693 74.1779Z" fill="white"/>
<path d="M132.98 87.854C132.956 87.854 132.931 87.8504 132.907 87.8426L116.333 82.6707C116.26 82.648 116.201 82.592 116.176 82.5203C116.15 82.4479 116.158 82.3678 116.2 82.3032L121.486 74.0452C121.544 73.9558 121.651 73.9118 121.754 73.9395L136.155 77.5974C136.221 77.6137 136.277 77.657 136.31 77.7166C136.343 77.7762 136.35 77.8457 136.329 77.911L133.215 87.6837C133.181 87.7873 133.084 87.854 132.98 87.854ZM116.787 82.2975L132.82 87.3006L135.782 78.0096L121.805 74.4595L116.787 82.2975Z" fill="#18181B"/>
<path d="M136.094 77.8358L124.35 80.7502L121.693 74.1779" fill="#FFEDD5"/>
<path d="M124.35 80.9964C124.252 80.9964 124.161 80.9375 124.122 80.8425L121.465 74.2701C121.414 74.1445 121.475 74.0012 121.6 73.9501C121.727 73.8991 121.87 73.9601 121.92 74.0856L124.498 80.4601L136.035 77.5967C136.166 77.5648 136.3 77.6442 136.333 77.7762C136.365 77.9082 136.285 78.0415 136.153 78.0742L124.409 80.9886C124.39 80.9936 124.37 80.9964 124.35 80.9964Z" fill="#18181B"/>
<path d="M54.6517 41.1862C54.524 41.1862 54.4161 41.0883 54.4069 40.9585C54.397 40.8229 54.4984 40.7052 54.6339 40.6945C55.3491 40.6406 56.0514 40.1107 56.3827 39.3757C56.6828 38.7088 56.7141 37.8787 56.47 37.038C56.2728 36.3598 55.9188 35.6865 55.3214 34.8543C55.2419 34.7444 55.2675 34.5904 55.3782 34.511C55.4888 34.4315 55.6421 34.457 55.7215 34.5677C56.3529 35.4474 56.7297 36.1668 56.9432 36.9004C57.2199 37.8532 57.1809 38.8039 56.8325 39.5772C56.4232 40.486 55.5754 41.1167 54.6723 41.1848C54.6637 41.1862 54.6581 41.1862 54.6517 41.1862Z" fill="white"/>
<path d="M42.8895 45.8182C42.8817 45.8182 42.8732 45.8175 42.8647 45.8168C42.7292 45.8033 42.6306 45.6827 42.6441 45.5479C42.7682 44.2936 43.5096 43.0982 44.578 42.4291C45.6919 41.7318 47.0207 41.6147 48.3055 41.5012L48.5034 41.4834C49.7293 41.3742 51.1185 41.189 52.0854 40.3724C52.189 40.2845 52.3444 40.298 52.4316 40.4015C52.5196 40.5058 52.5061 40.6605 52.4026 40.7477C51.3263 41.6566 49.8478 41.8566 48.5467 41.973L48.3488 41.9907C47.1214 42.0992 45.8529 42.2106 44.8391 42.8456C43.8969 43.4351 43.2428 44.4894 43.1336 45.5954C43.1215 45.7231 43.0151 45.8182 42.8895 45.8182Z" fill="white"/>
<path d="M38.22 54.9857C38.1845 54.9857 38.1483 54.9779 38.115 54.9616C37.0089 54.4366 36.0732 53.5576 35.4801 52.4878C34.887 51.4172 34.6372 50.1579 34.7777 48.9419C34.7933 48.8071 34.916 48.7092 35.0501 48.7255C35.1849 48.7411 35.2821 48.8632 35.2658 48.998C35.1374 50.1125 35.3658 51.2675 35.91 52.2487C36.4541 53.2305 37.3119 54.0358 38.3257 54.5175C38.4484 54.5757 38.5009 54.7225 38.4427 54.8453C38.4002 54.9339 38.3122 54.9857 38.22 54.9857Z" fill="white"/>
<path d="M36.5612 42.0276C36.5407 42.0276 36.5194 42.0248 36.4981 42.0191C35.8752 41.8538 35.358 41.4771 35.0792 40.984C34.7514 40.4065 34.7777 39.6885 35.143 39.1969C35.424 38.8195 35.8929 38.5747 36.4626 38.508C36.8911 38.4576 37.3154 38.5094 37.7247 38.5591L37.8461 38.574C40.244 38.8599 42.6632 38.7769 45.0363 38.3278C45.1704 38.3037 45.2981 38.3902 45.3237 38.5236C45.3492 38.657 45.2612 38.7861 45.1279 38.811C42.7058 39.27 40.2355 39.3544 37.7879 39.0628L37.6651 39.0479C37.2671 38.9997 36.8904 38.9536 36.5194 38.9968C36.0916 39.0465 35.734 39.2267 35.5375 39.4906C35.2899 39.8233 35.2771 40.3377 35.507 40.7414C35.7212 41.1195 36.1285 41.4118 36.6244 41.5431C36.7556 41.5778 36.8337 41.7126 36.7989 41.8439C36.7691 41.9552 36.6698 42.0276 36.5612 42.0276Z" fill="white"/>
</svg>
