<svg width="18" height="18" viewBox="0 0 18 18" fill="none" xmlns="http://www.w3.org/2000/svg">
<path d="M13.2078 4.67236H4.79219C3.75934 4.67236 2.92206 5.50965 2.92206 6.54249V10.7503C2.92206 11.7831 3.75934 12.6204 4.79219 12.6204H13.2078C14.2406 12.6204 15.0779 11.7831 15.0779 10.7503V6.54249C15.0779 5.50965 14.2406 4.67236 13.2078 4.67236Z" fill="#FA8292"/>
<path d="M15.0779 6.54249V10.7503C15.0779 11.2463 14.8809 11.7219 14.5302 12.0727C14.1794 12.4234 13.7038 12.6204 13.2078 12.6204H12.2727C12.7687 12.6204 13.2444 12.4234 13.5951 12.0727C13.9458 11.7219 14.1428 11.2463 14.1428 10.7503V6.54249C14.1428 6.0465 13.9458 5.57083 13.5951 5.22011C13.2444 4.86939 12.7687 4.67236 12.2727 4.67236H13.2078C13.7038 4.67236 14.1794 4.86939 14.5302 5.22011C14.8809 5.57083 15.0779 6.0465 15.0779 6.54249Z" fill="#F55D7D"/>
<path d="M15.6343 3.49886L13.1189 6.93989C13.0756 6.99976 13.0187 7.0485 12.9528 7.08212C12.887 7.11573 12.8141 7.13325 12.7402 7.13325C12.6663 7.13325 12.5935 7.11573 12.5276 7.08212C12.4618 7.0485 12.4049 6.99976 12.3615 6.93989L9.37868 2.83496C9.33533 2.77509 9.27841 2.72635 9.21258 2.69274C9.14675 2.65913 9.07389 2.6416 8.99998 2.6416C8.92606 2.6416 8.8532 2.65913 8.78737 2.69274C8.72154 2.72635 8.66462 2.77509 8.62127 2.83496L5.63842 6.93989C5.59507 6.99976 5.53815 7.0485 5.47232 7.08212C5.40649 7.11573 5.33363 7.13325 5.25971 7.13325C5.1858 7.13325 5.11294 7.11573 5.04711 7.08212C4.98128 7.0485 4.92436 6.99976 4.88101 6.93989L2.36569 3.48015C2.3068 3.39851 2.22313 3.33806 2.12712 3.30779C2.03111 3.27751 1.9279 3.27903 1.83283 3.31212C1.73775 3.34522 1.6559 3.40811 1.59944 3.49145C1.54298 3.57479 1.51493 3.67413 1.51946 3.7747V15.8931H16.4805V3.7747C16.4808 3.67576 16.4498 3.57925 16.3918 3.49907C16.3339 3.4189 16.2519 3.35918 16.1579 3.32851C16.0638 3.29785 15.9624 3.29782 15.8683 3.32843C15.7742 3.35904 15.6923 3.41871 15.6343 3.49886Z" fill="#FFD933"/>
<path d="M16.4805 3.77475V15.8932H1.51947V11.1477H14.1428C14.3908 11.1477 14.6287 11.0492 14.804 10.8739C14.9794 10.6985 15.0779 10.4607 15.0779 10.2127V4.26566L15.6343 3.4989C15.6923 3.41876 15.7743 3.35909 15.8683 3.32848C15.9624 3.29787 16.0638 3.2979 16.1579 3.32856C16.2519 3.35923 16.3339 3.41894 16.3918 3.49912C16.4498 3.5793 16.4809 3.6758 16.4805 3.77475Z" fill="#FFC900"/>
<path d="M16.4805 12.6204H1.51947C1.26126 12.6204 1.05194 12.8297 1.05194 13.088V15.4256C1.05194 15.6838 1.26126 15.8932 1.51947 15.8932H16.4805C16.7387 15.8932 16.948 15.6838 16.948 15.4256V13.088C16.948 12.8297 16.7387 12.6204 16.4805 12.6204Z" fill="#A758EC"/>
<path d="M16.948 13.088V15.4256C16.948 15.5496 16.8988 15.6685 16.8111 15.7562C16.7234 15.8439 16.6045 15.8932 16.4805 15.8932H1.51947C1.39548 15.8932 1.27656 15.8439 1.18888 15.7562C1.1012 15.6685 1.05194 15.5496 1.05194 15.4256V14.888H15.0779C15.2019 14.888 15.3208 14.8387 15.4085 14.751C15.4962 14.6633 15.5454 14.5444 15.5454 14.4204V12.6204H16.4805C16.6045 12.6204 16.7234 12.6697 16.8111 12.7574C16.8988 12.845 16.948 12.964 16.948 13.088Z" fill="#9948E6"/>
<path d="M8.8083 11.0028L7.6909 9.42718C7.66335 9.38733 7.6486 9.34004 7.6486 9.2916C7.6486 9.24315 7.66335 9.19586 7.6909 9.15601L8.8083 7.57575C8.83047 7.54578 8.85937 7.52142 8.89266 7.50464C8.92595 7.48786 8.96271 7.47912 8.99999 7.47912C9.03727 7.47912 9.07403 7.48786 9.10732 7.50464C9.14061 7.52142 9.16951 7.54578 9.19168 7.57575L10.3091 9.15601C10.3366 9.19586 10.3514 9.24315 10.3514 9.2916C10.3514 9.34004 10.3366 9.38733 10.3091 9.42718L9.19168 11.0028C9.17014 11.0336 9.14146 11.0588 9.10808 11.0762C9.07471 11.0936 9.03763 11.1027 8.99999 11.1027C8.96235 11.1027 8.92527 11.0936 8.8919 11.0762C8.85852 11.0588 8.82984 11.0336 8.8083 11.0028ZM2.82856 9.42718L1.71116 11.0028C1.6897 11.0336 1.661 11.0587 1.62757 11.0758C1.59414 11.0929 1.55702 11.1015 1.51947 11.1009V7.47757C1.55702 7.47697 1.59414 7.48561 1.62757 7.50273C1.661 7.51985 1.6897 7.54493 1.71116 7.57575L2.82856 9.15601C2.85611 9.19586 2.87086 9.24315 2.87086 9.2916C2.87086 9.34004 2.85611 9.38733 2.82856 9.42718ZM16.4805 7.48224V11.0963C16.4367 11.1052 16.3912 11.1011 16.3496 11.0845C16.3081 11.0679 16.2723 11.0395 16.2467 11.0028L15.1293 9.42718C15.1018 9.38733 15.087 9.34004 15.087 9.2916C15.087 9.24315 15.1018 9.19586 15.1293 9.15601L16.2467 7.57575C16.2723 7.53904 16.3081 7.51062 16.3496 7.49401C16.3912 7.47739 16.4367 7.4733 16.4805 7.48224Z" fill="#FA8292"/>
<path d="M8.80832 11.0028L7.69092 9.42719C7.66338 9.38734 7.64862 9.34005 7.64862 9.2916C7.64862 9.24316 7.66338 9.19587 7.69092 9.15602L8.80832 7.57576C8.8305 7.54579 8.85939 7.52143 8.89268 7.50465C8.92597 7.48787 8.96273 7.47913 9.00001 7.47913C9.03729 7.47913 9.07405 7.48787 9.10735 7.50465C9.14064 7.52143 9.16953 7.54579 9.1917 7.57576L10.3091 9.15602C10.3366 9.19587 10.3514 9.24316 10.3514 9.2916C10.3514 9.34005 10.3366 9.38734 10.3091 9.42719L9.1917 11.0028C9.17016 11.0336 9.14148 11.0588 9.10811 11.0762C9.07473 11.0936 9.03765 11.1027 9.00001 11.1027C8.96237 11.1027 8.92529 11.0936 8.89192 11.0762C8.85854 11.0588 8.82987 11.0336 8.80832 11.0028Z" fill="#FA8292"/>
<path d="M10.3091 9.42719L9.19171 11.0028C9.16967 11.0367 9.13904 11.0641 9.10295 11.0824C9.06686 11.1006 9.02659 11.1089 8.98622 11.1066C8.94586 11.1042 8.90684 11.0912 8.87313 11.0688C8.83943 11.0465 8.81223 11.0156 8.79431 10.9794L9.89301 9.42719C9.92056 9.38734 9.93531 9.34005 9.93531 9.2916C9.93531 9.24316 9.92056 9.19587 9.89301 9.15602L8.79431 7.59913V7.57576C8.81648 7.54579 8.84538 7.52143 8.87867 7.50465C8.91196 7.48787 8.94872 7.47913 8.986 7.47913C9.02328 7.47913 9.06004 7.48787 9.09333 7.50465C9.12662 7.52143 9.15552 7.54579 9.17769 7.57576L10.2951 9.15602C10.3247 9.19442 10.342 9.24096 10.3445 9.28941C10.347 9.33786 10.3346 9.38593 10.3091 9.42719Z" fill="#F55D7D"/>
<path d="M2.82856 9.42718L1.71116 11.0028C1.6897 11.0336 1.661 11.0587 1.62757 11.0758C1.59414 11.0929 1.55702 11.1015 1.51947 11.1009V7.47757C1.55702 7.47697 1.59414 7.48561 1.62757 7.50273C1.661 7.51985 1.6897 7.54493 1.71116 7.57575L2.82856 9.15601C2.85611 9.19586 2.87086 9.24315 2.87086 9.29159C2.87086 9.34004 2.85611 9.38733 2.82856 9.42718ZM16.4805 7.48224V11.0963C16.4367 11.1052 16.3912 11.1011 16.3496 11.0845C16.3081 11.0679 16.2723 11.0395 16.2467 11.0028L15.1293 9.42718C15.1018 9.38733 15.087 9.34004 15.087 9.29159C15.087 9.24315 15.1018 9.19586 15.1293 9.15601L16.2467 7.57575C16.2723 7.53904 16.3081 7.51062 16.3496 7.49401C16.3912 7.47739 16.4367 7.4733 16.4805 7.48224Z" fill="#FA8292"/>
<path d="M16.7143 12.4287V3.77466C16.7146 3.62666 16.6681 3.48235 16.5815 3.36238C16.4948 3.2424 16.3724 3.15292 16.2318 3.10674C16.0912 3.06056 15.9396 3.06005 15.7987 3.10529C15.6577 3.15052 15.5347 3.23917 15.4473 3.35856L14.3906 4.80791C14.0433 4.56696 13.6305 4.43808 13.2078 4.43856H10.8187L9.56571 2.73207C9.49886 2.64569 9.41312 2.57576 9.31506 2.52765C9.217 2.47954 9.10922 2.45453 8.99999 2.45453C8.89077 2.45453 8.78299 2.47954 8.68493 2.52765C8.58687 2.57576 8.50113 2.64569 8.43428 2.73207L7.18129 4.45259H4.7922C4.36915 4.45466 3.95668 4.58509 3.60935 4.82661L2.55272 3.37259C2.46525 3.2532 2.34226 3.16454 2.20134 3.11931C2.06042 3.07408 1.9088 3.07459 1.76819 3.12077C1.62758 3.16695 1.50518 3.25643 1.41851 3.3764C1.33185 3.49638 1.28536 3.64069 1.28571 3.78869V12.4287C1.14967 12.4775 1.03189 12.5669 0.948279 12.6848C0.864669 12.8027 0.819256 12.9434 0.818176 13.0879V15.4256C0.818176 15.6116 0.892063 15.7899 1.02358 15.9215C1.1551 16.053 1.33348 16.1269 1.51947 16.1269H16.4805C16.6665 16.1269 16.8449 16.053 16.9764 15.9215C17.1079 15.7899 17.1818 15.6116 17.1818 15.4256V13.0879C17.1807 12.9434 17.1353 12.8027 17.0517 12.6848C16.9681 12.5669 16.8503 12.4775 16.7143 12.4287ZM16.2467 10.6006L15.3117 9.29155L16.2467 7.98246V10.6006ZM13.2078 4.90609C13.541 4.90077 13.8676 4.99876 14.1429 5.18661L12.9273 6.8183C12.9055 6.84733 12.8773 6.8709 12.8448 6.88713C12.8123 6.90336 12.7765 6.91181 12.7403 6.91181C12.704 6.91181 12.6682 6.90336 12.6357 6.88713C12.6033 6.8709 12.575 6.84733 12.5532 6.8183L11.1506 4.90609H13.2078ZM4.7922 4.90609H6.83999L5.4374 6.8183C5.41562 6.84733 5.38739 6.8709 5.35493 6.88713C5.32247 6.90336 5.28667 6.91181 5.25038 6.91181C5.21409 6.91181 5.1783 6.90336 5.14584 6.88713C5.11338 6.8709 5.08515 6.84733 5.06337 6.8183L3.87584 5.18661C4.14645 5.00375 4.4656 4.90606 4.7922 4.90609ZM2.17402 3.63441L4.69402 7.09415C4.76087 7.18053 4.84661 7.25045 4.94467 7.29856C5.04273 7.34667 5.15051 7.37168 5.25973 7.37168C5.36896 7.37168 5.47674 7.34667 5.5748 7.29856C5.67286 7.25045 5.7586 7.18053 5.82545 7.09415L8.81298 2.99389C8.83476 2.96485 8.86299 2.94129 8.89545 2.92506C8.92791 2.90883 8.9637 2.90038 8.99999 2.90038C9.03629 2.90038 9.07208 2.90883 9.10454 2.92506C9.137 2.94129 9.16523 2.96485 9.18701 2.99389L12.1745 7.09415C12.2414 7.18053 12.3271 7.25045 12.4252 7.29856C12.5233 7.34667 12.631 7.37168 12.7403 7.37168C12.8495 7.37168 12.9573 7.34667 13.0553 7.29856C13.1534 7.25045 13.2391 7.18053 13.306 7.09415L15.8213 3.63441C15.8501 3.59312 15.8914 3.56222 15.9391 3.54631C15.9869 3.53039 16.0385 3.5303 16.0863 3.54606C16.1341 3.56181 16.1755 3.59257 16.2044 3.63376C16.2333 3.67494 16.2482 3.72436 16.2467 3.77466V7.28583C16.0831 7.36064 16.1345 7.32324 14.9377 9.02038C14.8813 9.09956 14.851 9.19435 14.851 9.29155C14.851 9.38875 14.8813 9.48354 14.9377 9.56272C16.1392 11.3066 16.0831 11.2178 16.2467 11.2926V12.3866H1.75324V11.2739C1.81094 11.2421 1.86178 11.1992 1.90285 11.1477L3.02493 9.56739C3.08026 9.48867 3.10995 9.39479 3.10995 9.29856C3.10995 9.20234 3.08026 9.10846 3.02493 9.02973C1.8187 7.32324 1.88415 7.40739 1.75324 7.30921V3.77466C1.75324 3.7256 1.76868 3.67778 1.79737 3.63798C1.82605 3.59818 1.86654 3.56841 1.91308 3.55289C1.95963 3.53738 2.00988 3.5369 2.05671 3.55153C2.10354 3.56616 2.14458 3.59515 2.17402 3.63441ZM1.75324 8.03856L2.63688 9.27752L1.75324 10.5399V8.03856ZM16.7143 15.4256C16.7143 15.4876 16.6897 15.547 16.6458 15.5909C16.602 15.6347 16.5425 15.6593 16.4805 15.6593H1.51947C1.45748 15.6593 1.39802 15.6347 1.35418 15.5909C1.31034 15.547 1.28571 15.4876 1.28571 15.4256V13.0879C1.28571 13.0259 1.31034 12.9665 1.35418 12.9226C1.39802 12.8788 1.45748 12.8541 1.51947 12.8541H16.4805C16.5425 12.8541 16.602 12.8788 16.6458 12.9226C16.6897 12.9665 16.7143 13.0259 16.7143 13.0879V15.4256Z" fill="#18181B"/>
<path d="M8.61664 11.1477C8.65972 11.2094 8.71708 11.2598 8.78382 11.2946C8.85057 11.3294 8.92474 11.3476 9.00001 11.3476C9.07529 11.3476 9.14946 11.3294 9.2162 11.2946C9.28295 11.2598 9.3403 11.2094 9.38339 11.1477L10.5008 9.5721C10.5572 9.49292 10.5875 9.39814 10.5875 9.30094C10.5875 9.20373 10.5572 9.10895 10.5008 9.02977L9.38339 7.44951C9.3403 7.38778 9.28295 7.33737 9.2162 7.30256C9.14946 7.26775 9.07529 7.24957 9.00001 7.24957C8.92474 7.24957 8.85057 7.26775 8.78382 7.30256C8.71708 7.33737 8.65972 7.38778 8.61664 7.44951L7.50391 9.02042C7.44753 9.0996 7.41724 9.19438 7.41724 9.29159C7.41724 9.38879 7.44753 9.48357 7.50391 9.56275L8.61664 11.1477ZM9.00001 7.71132L10.1174 9.27756L9.00001 10.8718L7.88261 9.27756L9.00001 7.71132Z" fill="#18181B"/>
</svg>
