<svg width="160" height="160" viewBox="0 0 160 160" fill="none" xmlns="http://www.w3.org/2000/svg">
<path d="M64.5054 105.965C64.4407 105.965 64.3851 105.916 64.3788 105.85C64.3724 105.78 64.4238 105.718 64.4934 105.711C65.4397 105.623 66.3831 105.349 67.3786 104.872C67.4419 104.842 67.5179 104.869 67.5482 104.932C67.5784 104.995 67.5517 105.071 67.4884 105.101C66.4655 105.592 65.4932 105.875 64.5167 105.965C64.5132 105.965 64.5089 105.965 64.5054 105.965ZM61.4852 105.592C61.4718 105.592 61.4577 105.59 61.4443 105.585C60.515 105.267 59.6004 104.769 58.7259 104.105C58.6703 104.062 58.6591 103.982 58.702 103.926C58.7442 103.87 58.8244 103.859 58.88 103.902C59.7327 104.55 60.6233 105.035 61.5267 105.344C61.5928 105.367 61.6287 105.439 61.6062 105.506C61.5872 105.558 61.5379 105.592 61.4852 105.592ZM70.0366 103.498C69.9979 103.498 69.9592 103.481 69.9346 103.447C69.8931 103.39 69.9043 103.311 69.9606 103.269C70.6564 102.752 71.3205 102.203 72.1035 101.539L72.3364 101.341C72.3899 101.296 72.4701 101.302 72.5158 101.356C72.5615 101.409 72.5545 101.49 72.501 101.535L72.2682 101.733C71.4816 102.4 70.814 102.951 70.1126 103.473C70.0893 103.49 70.0626 103.498 70.0366 103.498ZM56.6132 101.991C56.5759 101.991 56.5393 101.975 56.514 101.944C56.3817 101.781 56.253 101.615 56.1292 101.448C55.6747 100.835 55.2378 100.16 54.7925 99.3846C54.7573 99.3234 54.7784 99.246 54.8396 99.2108C54.9008 99.1756 54.9782 99.1967 55.0134 99.2579C55.4538 100.024 55.8857 100.691 56.3339 101.296C56.4556 101.461 56.5815 101.623 56.7117 101.784C56.756 101.838 56.7476 101.918 56.6934 101.962C56.6702 101.981 56.6413 101.991 56.6132 101.991ZM74.758 99.5815C74.7221 99.5815 74.6862 99.5661 74.6609 99.5365C74.6152 99.4831 74.6222 99.4029 74.6757 99.3571L77.0149 97.3732C77.0684 97.3281 77.1486 97.3345 77.1943 97.3879C77.24 97.4414 77.233 97.5216 77.1795 97.5673L74.8403 99.5513C74.8164 99.5717 74.7875 99.5815 74.758 99.5815ZM53.4839 96.7301C53.4368 96.7301 53.3917 96.7041 53.3699 96.6591L53.0322 95.9668C52.703 95.29 52.3618 94.59 52.0114 93.9118C51.979 93.8492 52.0037 93.7725 52.0656 93.7401C52.1282 93.7078 52.2049 93.7324 52.2372 93.7943C52.5897 94.4753 52.9309 95.1767 53.2616 95.8549L53.5993 96.5465C53.6302 96.6098 53.6042 96.6858 53.5409 96.7168C53.5212 96.7259 53.5022 96.7301 53.4839 96.7301ZM79.4372 95.6136C79.4013 95.6136 79.3654 95.5982 79.3401 95.5686C79.2943 95.5151 79.3014 95.4349 79.3548 95.3892L81.6941 93.4053C81.7475 93.3602 81.8278 93.3666 81.8735 93.42C81.9192 93.4735 81.9122 93.5537 81.8587 93.5994L79.5195 95.5834C79.4956 95.6038 79.4667 95.6136 79.4372 95.6136ZM84.117 91.6457C84.0812 91.6457 84.0453 91.6302 84.02 91.6007C83.9742 91.5472 83.9813 91.467 84.0347 91.4213L86.374 89.4373C86.4274 89.3923 86.5076 89.3986 86.5534 89.4521C86.5991 89.5056 86.5921 89.5858 86.5386 89.6315L84.1994 91.6155C84.1747 91.6359 84.1459 91.6457 84.117 91.6457ZM50.6022 91.3179C50.56 91.3179 50.5185 91.2968 50.4946 91.2588C49.955 90.4026 49.3689 89.5576 48.7548 88.7472C48.7125 88.6909 48.7231 88.6114 48.7794 88.5692C48.8357 88.5263 48.9152 88.5382 48.9574 88.5938C49.5765 89.4099 50.166 90.2612 50.7099 91.1237C50.7472 91.1828 50.7296 91.2616 50.6705 91.2989C50.6494 91.3115 50.6255 91.3179 50.6022 91.3179ZM88.7955 87.6785C88.7597 87.6785 88.7238 87.663 88.6984 87.6335C88.6527 87.58 88.6597 87.4998 88.7132 87.4541L89.3211 86.9384C89.8959 86.4508 90.4728 85.9605 91.0489 85.4666C91.1024 85.4209 91.1826 85.4272 91.2283 85.4807C91.2741 85.5341 91.2677 85.6143 91.2143 85.6601C90.6374 86.1547 90.0605 86.645 89.485 87.1326L88.8771 87.6483C88.8539 87.668 88.8251 87.6785 88.7955 87.6785ZM46.9003 86.4354C46.8658 86.4354 46.8306 86.4213 46.806 86.3932C46.1264 85.6404 45.406 84.9073 44.6644 84.2136C44.6131 84.1658 44.6103 84.0849 44.6581 84.0342C44.7059 83.9829 44.7868 83.98 44.8375 84.0279C45.5847 84.7265 46.31 85.4652 46.9945 86.2229C47.0417 86.275 47.0374 86.3552 46.9854 86.4023C46.9608 86.4241 46.9305 86.4354 46.9003 86.4354ZM93.448 83.6796C93.4128 83.6796 93.3776 83.6649 93.3523 83.6367C93.3059 83.584 93.3108 83.5038 93.3636 83.4573C94.1874 82.7299 94.931 82.058 95.6381 81.403C95.6894 81.3552 95.7703 81.358 95.8175 81.41C95.8653 81.4614 95.8625 81.5423 95.8104 81.5894C95.102 82.2458 94.3562 82.9191 93.5317 83.648C93.5085 83.6691 93.4782 83.6796 93.448 83.6796ZM42.4237 82.2501C42.3962 82.2501 42.3681 82.2409 42.3449 82.2226C41.5457 81.5937 40.712 80.9928 39.8656 80.4371C39.8066 80.3984 39.7904 80.3196 39.8291 80.2612C39.8678 80.2021 39.9466 80.1866 40.0049 80.2246C40.8576 80.7846 41.6976 81.3896 42.5025 82.0228C42.5581 82.0664 42.5672 82.1459 42.5236 82.2015C42.499 82.2339 42.4617 82.2501 42.4237 82.2501ZM97.9414 79.5014C97.9091 79.5014 97.876 79.4887 97.8514 79.4641C97.8021 79.4141 97.8021 79.3339 97.8521 79.284C98.602 78.5403 99.3182 77.7988 99.981 77.0819C100.029 77.0306 100.109 77.027 100.16 77.0749C100.212 77.1227 100.215 77.2029 100.167 77.2543C99.5026 77.9747 98.7836 78.7183 98.0308 79.4648C98.0062 79.4887 97.9738 79.5014 97.9414 79.5014ZM37.302 78.8879C37.2816 78.8879 37.2612 78.883 37.2415 78.8724C37.022 78.7542 36.8011 78.6381 36.5787 78.5249C35.9435 78.2005 35.2617 77.8755 34.4935 77.5322C34.4295 77.5033 34.4006 77.4281 34.4295 77.364C34.4583 77.3 34.5329 77.2712 34.5976 77.3C35.3694 77.6454 36.056 77.9719 36.6948 78.2983C36.9186 78.413 37.1409 78.5291 37.3625 78.6487C37.4244 78.6818 37.4476 78.7591 37.4138 78.821C37.3906 78.8633 37.347 78.8879 37.302 78.8879ZM31.7223 76.3439C31.7061 76.3439 31.6899 76.3411 31.6737 76.3341L31.2502 76.1596C30.4587 75.8339 29.6405 75.4969 28.8406 75.1521C28.7759 75.1247 28.7463 75.0494 28.7745 74.9854C28.8019 74.9207 28.8772 74.8911 28.9412 74.9193C29.739 75.2626 30.5565 75.5996 31.3466 75.9246L31.7701 76.0991C31.8348 76.1258 31.8658 76.2004 31.8391 76.2651C31.8194 76.3144 31.7722 76.3439 31.7223 76.3439ZM102.095 74.9861C102.066 74.9861 102.037 74.9763 102.014 74.9573C101.96 74.9122 101.952 74.832 101.997 74.7779C102.664 73.9709 103.293 73.1562 103.867 72.357C103.908 72.3 103.988 72.2866 104.045 72.3282C104.102 72.369 104.115 72.4485 104.073 72.5054C103.495 73.3096 102.863 74.1285 102.193 74.9397C102.168 74.9699 102.132 74.9861 102.095 74.9861ZM26.1081 73.8745C26.0891 73.8745 26.0694 73.8703 26.0511 73.8612L25.8633 73.7655C24.9789 73.3117 24.1424 72.8291 23.3777 72.331C23.3186 72.2923 23.3024 72.2142 23.3404 72.1551C23.3784 72.096 23.4572 72.0798 23.5163 72.1178C24.2733 72.611 25.102 73.0894 25.9786 73.5389L26.1651 73.6339C26.2277 73.6656 26.253 73.7423 26.2214 73.8049C26.1996 73.8485 26.1545 73.8745 26.1081 73.8745ZM21.0019 70.5032C20.9716 70.5032 20.9421 70.4927 20.9174 70.4715C20.1126 69.7589 19.4027 69.0012 18.8069 68.2188C18.7646 68.1633 18.7752 68.0831 18.8308 68.0408C18.8864 67.9979 18.9666 68.0092 19.0088 68.0648C19.5948 68.8337 20.2934 69.5795 21.0856 70.2809C21.1384 70.3273 21.1433 70.4075 21.0968 70.4603C21.0722 70.4884 21.037 70.5032 21.0019 70.5032ZM105.663 70.0002C105.64 70.0002 105.618 69.9945 105.597 69.9819C105.537 69.9453 105.517 69.8672 105.554 69.8074C106.088 68.9217 106.58 68.0197 107.014 67.1255C107.045 67.0622 107.121 67.0362 107.184 67.0665C107.248 67.0967 107.274 67.1734 107.244 67.2367C106.806 68.1379 106.311 69.0469 105.772 69.939C105.748 69.9784 105.706 70.0002 105.663 70.0002ZM17.3569 65.632C17.3076 65.632 17.2605 65.6031 17.2401 65.5546C16.8405 64.6097 16.5837 63.6009 16.4775 62.5561C16.4704 62.4865 16.5211 62.4239 16.5914 62.4168C16.6625 62.4105 16.7237 62.4611 16.7307 62.5308C16.8341 63.5509 17.0846 64.5351 17.4744 65.4561C17.5018 65.5208 17.4715 65.5954 17.4068 65.6228C17.3906 65.6284 17.3738 65.632 17.3569 65.632ZM108.326 64.488C108.311 64.488 108.297 64.4852 108.282 64.4803C108.216 64.4564 108.182 64.3832 108.206 64.3171C108.384 63.8288 108.549 63.3335 108.698 62.8446C108.842 62.3697 108.975 61.8828 109.095 61.3974C109.111 61.3292 109.179 61.2876 109.249 61.3038C109.317 61.3207 109.358 61.3897 109.341 61.4579C109.221 61.9476 109.087 62.4386 108.942 62.9177C108.792 63.4109 108.625 63.9111 108.446 64.4036C108.426 64.4564 108.377 64.488 108.326 64.488ZM16.7554 59.6175C16.7469 59.6175 16.7378 59.6168 16.7293 59.6147C16.6604 59.6006 16.6168 59.533 16.6308 59.4641C16.8538 58.4018 17.2457 57.4372 17.798 56.5958C17.8367 56.5374 17.9148 56.5205 17.9739 56.5592C18.0323 56.5979 18.0491 56.6767 18.0105 56.7351C17.4765 57.5498 17.0959 58.4855 16.8799 59.5162C16.8672 59.5767 16.8137 59.6175 16.7554 59.6175ZM109.79 58.5432C109.785 58.5432 109.778 58.5425 109.773 58.5418C109.703 58.5319 109.655 58.4679 109.664 58.3982C109.8 57.4105 109.892 56.3869 109.937 55.3562C109.939 55.2858 109.997 55.226 110.07 55.2345C110.14 55.2373 110.194 55.2971 110.191 55.3667C110.146 56.4051 110.054 57.4372 109.917 58.4327C109.907 58.4974 109.853 58.5432 109.79 58.5432ZM20.0802 54.6681C20.038 54.6681 19.9965 54.647 19.9726 54.6083C19.9353 54.5485 19.9529 54.4704 20.0127 54.4331C20.8323 53.9189 21.7701 53.5397 22.8803 53.2758C22.9485 53.2604 23.0175 53.3019 23.0337 53.3701C23.0498 53.4384 23.0076 53.5073 22.9394 53.5235C21.8567 53.781 20.9442 54.1496 20.1485 54.6491C20.1267 54.6618 20.1035 54.6681 20.0802 54.6681ZM25.9428 53.0894C25.8773 53.0894 25.8218 53.0387 25.8161 52.9726C25.8105 52.903 25.8626 52.8411 25.9329 52.8354C26.5351 52.7876 27.1542 52.7524 27.753 52.7179C28.168 52.694 28.5838 52.6708 28.9982 52.6427C29.07 52.642 29.1291 52.6912 29.134 52.7609C29.1389 52.8312 29.0854 52.8917 29.0158 52.8966C28.6007 52.9248 28.1842 52.9487 27.7684 52.9719C27.1711 53.0064 26.5534 53.0416 25.954 53.0894C25.9491 53.0894 25.9456 53.0894 25.9428 53.0894ZM32.0508 52.5428C31.991 52.5428 31.9376 52.5005 31.9263 52.4393C31.9129 52.3704 31.9587 52.3036 32.0276 52.2909C33.1329 52.0812 34.0735 51.7787 34.9036 51.3657C34.9663 51.3341 35.0429 51.3601 35.0739 51.4227C35.1049 51.4853 35.0795 51.562 35.0169 51.593C34.1656 52.0165 33.2032 52.3261 32.0747 52.5399C32.067 52.5421 32.0593 52.5428 32.0508 52.5428ZM110.065 52.4225C109.997 52.4225 109.941 52.369 109.938 52.3C109.898 51.3052 109.818 50.2802 109.699 49.2523C109.691 49.1827 109.741 49.1194 109.811 49.1116C109.88 49.1032 109.944 49.1531 109.952 49.2235C110.071 50.2577 110.153 51.2898 110.193 52.2902C110.196 52.3605 110.141 52.4196 110.071 52.4225C110.069 52.4225 110.067 52.4225 110.065 52.4225ZM37.3984 49.7765C37.3674 49.7765 37.3365 49.7652 37.3118 49.7427C37.2605 49.6949 37.257 49.6147 37.3048 49.5633C37.9619 48.8527 38.5226 48.0078 38.9729 47.0503C39.0031 46.9863 39.0791 46.9588 39.1417 46.9891C39.205 47.0193 39.2325 47.0946 39.2029 47.1579C38.7421 48.1387 38.1666 49.0061 37.4919 49.7357C37.4666 49.7631 37.4321 49.7765 37.3984 49.7765ZM109.37 46.332C109.31 46.332 109.257 46.2891 109.245 46.2279C109.122 45.5546 108.981 44.8665 108.825 44.182C108.753 43.8661 108.679 43.5509 108.602 43.2365C108.585 43.1682 108.627 43.0993 108.695 43.0824C108.765 43.0655 108.832 43.1077 108.849 43.1759C108.926 43.4918 109.001 43.8084 109.073 44.1257C109.229 44.8138 109.371 45.5053 109.495 46.1814C109.507 46.2504 109.462 46.3165 109.393 46.3292C109.386 46.3313 109.378 46.332 109.37 46.332ZM40.045 44.3241C40.0366 44.3241 40.0275 44.3234 40.019 44.3213C39.9501 44.3072 39.9065 44.2397 39.9205 44.1707C40.1231 43.2062 40.2371 42.1896 40.2596 41.1498C40.261 41.0794 40.3159 41.0288 40.3898 41.0253C40.4601 41.0267 40.5157 41.0851 40.5143 41.1554C40.4918 42.2107 40.3757 43.2435 40.1696 44.2235C40.1569 44.2826 40.1034 44.3241 40.045 44.3241ZM107.922 40.3738C107.868 40.3738 107.817 40.3379 107.801 40.283C107.523 39.348 107.21 38.3673 106.869 37.3662C106.846 37.3001 106.881 37.2276 106.948 37.2051C107.015 37.1819 107.087 37.2177 107.11 37.2846C107.452 38.2885 107.766 39.2735 108.045 40.2113C108.065 40.2788 108.027 40.3492 107.959 40.3696C107.946 40.3724 107.934 40.3738 107.922 40.3738ZM40.1921 38.2217C40.1295 38.2217 40.0753 38.176 40.0662 38.1126C39.9353 37.1917 39.7446 36.211 39.4836 35.1142C39.4675 35.0459 39.5097 34.977 39.5779 34.9608C39.6461 34.9453 39.7151 34.9868 39.7313 35.0551C39.9944 36.1596 40.1865 37.1474 40.3187 38.0761C40.3286 38.1457 40.28 38.2097 40.2104 38.2196C40.204 38.2217 40.1977 38.2217 40.1921 38.2217ZM105.953 34.5647C105.902 34.5647 105.853 34.5331 105.834 34.4824C105.499 33.5868 105.136 32.6518 104.726 31.6247C104.7 31.5592 104.732 31.4854 104.797 31.4593C104.862 31.4326 104.937 31.465 104.963 31.5304C105.373 32.559 105.736 33.4954 106.072 34.3931C106.097 34.4585 106.064 34.5324 105.998 34.557C105.983 34.5619 105.968 34.5647 105.953 34.5647ZM38.8251 32.2459C38.7695 32.2459 38.7182 32.2093 38.7027 32.153L38.4931 31.4087C38.2848 30.6721 38.0773 29.9355 37.8803 29.1961C37.862 29.1278 37.9028 29.0582 37.9703 29.0406C38.0379 29.0223 38.1082 29.0624 38.1258 29.1307C38.3228 29.8687 38.5303 30.6038 38.7379 31.3397L38.9475 32.0848C38.9665 32.1523 38.9271 32.2227 38.8596 32.2417C38.8476 32.2445 38.8364 32.2459 38.8251 32.2459ZM103.688 28.8633C103.638 28.8633 103.591 28.8338 103.57 28.7845C103.24 27.9853 102.907 27.1882 102.575 26.3911L102.246 26.161C102.189 26.1209 102.175 26.0414 102.215 25.9838C102.255 25.9261 102.335 25.912 102.393 25.9528L102.751 26.204C102.771 26.218 102.787 26.237 102.796 26.2595C103.133 27.0679 103.471 27.877 103.806 28.6874C103.833 28.7522 103.802 28.8267 103.737 28.8535C103.72 28.8605 103.704 28.8633 103.688 28.8633ZM37.2964 26.3067C37.2366 26.3067 37.1838 26.2652 37.1718 26.204C37.0698 25.6911 36.9833 25.1881 36.9136 24.709C36.8391 24.194 36.7842 23.6691 36.7511 23.1506C36.7469 23.0803 36.7997 23.0198 36.87 23.0156C36.9404 23.0127 37.0009 23.0641 37.0051 23.1345C37.0382 23.6466 37.0923 24.1644 37.1655 24.6724C37.2344 25.1473 37.3203 25.6454 37.4209 26.154C37.4342 26.223 37.3899 26.2898 37.321 26.3032C37.3125 26.306 37.3048 26.3067 37.2964 26.3067ZM99.8065 24.424C99.7812 24.424 99.7558 24.4163 99.7333 24.4008L99.7059 24.3818C98.7737 23.9921 97.8232 23.603 96.8819 23.2245C96.8165 23.1985 96.7848 23.1246 96.8116 23.0592C96.8376 22.9938 96.9115 22.9614 96.9769 22.9888C97.9238 23.3687 98.8792 23.7606 99.8171 24.1525C99.8255 24.156 99.8339 24.1602 99.8417 24.1658L99.8804 24.1926C99.9381 24.2334 99.9514 24.3122 99.9113 24.3699C99.886 24.4057 99.8466 24.424 99.8065 24.424ZM94.0748 22.1115C94.0594 22.1115 94.0439 22.1087 94.0291 22.1031C93.0807 21.7379 92.1155 21.3735 91.1608 21.0211C91.0947 20.9964 91.0609 20.9233 91.0855 20.8578C91.1102 20.7917 91.1833 20.7586 91.2487 20.7826C92.2048 21.1357 93.1715 21.5002 94.1206 21.866C94.186 21.8913 94.2191 21.9652 94.1937 22.0306C94.174 22.0806 94.1262 22.1115 94.0748 22.1115ZM36.9326 20.2064C36.9284 20.2064 36.9235 20.2064 36.9193 20.2057C36.8496 20.1986 36.799 20.136 36.806 20.0664C36.9164 18.9991 37.1247 17.9811 37.4244 17.0405C37.4455 16.9736 37.5173 16.9364 37.5841 16.9582C37.6509 16.9793 37.6882 17.051 37.6664 17.1179C37.3716 18.0416 37.1676 19.042 37.0586 20.0924C37.0522 20.1578 36.9974 20.2064 36.9326 20.2064ZM88.3199 19.9869C88.3059 19.9869 88.2918 19.9847 88.2777 19.9798C87.3181 19.6407 86.343 19.3044 85.3799 18.9794C85.313 18.9569 85.2779 18.8851 85.2997 18.8183C85.3222 18.7515 85.394 18.7156 85.4608 18.7381C86.4246 19.0631 87.4011 19.4001 88.3621 19.7399C88.4283 19.7631 88.4635 19.8363 88.4395 19.9024C88.4212 19.9545 88.372 19.9869 88.3199 19.9869ZM82.5074 18.0254C82.4947 18.0254 82.4813 18.0233 82.4687 18.0191C81.5048 17.7088 80.5206 17.4 79.5441 17.1003C79.4766 17.0799 79.4393 17.0088 79.4597 16.9413C79.4801 16.8744 79.5511 16.8357 79.6187 16.8569C80.5966 17.1566 81.5815 17.4661 82.5468 17.7771C82.6136 17.7989 82.6502 17.8699 82.6291 17.9375C82.6108 17.9909 82.5608 18.0254 82.5074 18.0254ZM76.6413 16.2279C76.6294 16.2279 76.6174 16.2265 76.6054 16.223C75.6296 15.9387 74.637 15.6573 73.6562 15.3865C73.5887 15.3682 73.5486 15.2978 73.5676 15.2303C73.5859 15.1627 73.6562 15.1233 73.7238 15.1416C74.7059 15.4132 75.6993 15.6946 76.6765 15.9788C76.744 15.9985 76.7827 16.0689 76.763 16.1364C76.7476 16.192 76.6969 16.2279 76.6413 16.2279ZM70.7281 14.5957C70.7176 14.5957 70.7063 14.5943 70.6958 14.5915C69.7094 14.334 68.7097 14.0807 67.7241 13.838C67.6558 13.8211 67.6143 13.7522 67.6312 13.6839C67.6481 13.6157 67.7163 13.5742 67.7853 13.5911C68.7723 13.8338 69.7728 14.087 70.7605 14.3452C70.8288 14.3628 70.8688 14.4325 70.8513 14.5007C70.8365 14.5577 70.7844 14.5957 70.7281 14.5957ZM38.842 14.4374C38.8181 14.4374 38.7942 14.4304 38.7724 14.4163C38.7133 14.3776 38.6971 14.2988 38.7358 14.2404C39.3204 13.3483 40.0275 12.5843 40.8379 11.9701C40.8942 11.9272 40.9737 11.9385 41.0159 11.9947C41.0581 12.051 41.0476 12.1305 40.9913 12.1727C40.204 12.7693 39.5167 13.5123 38.9475 14.3797C38.9243 14.417 38.8835 14.4374 38.842 14.4374ZM64.7706 13.1302C64.7615 13.1302 64.7516 13.1295 64.7418 13.1267C63.7547 12.8988 62.748 12.6737 61.7504 12.4577C61.6821 12.4429 61.6385 12.3754 61.6533 12.3064C61.6681 12.2382 61.7356 12.1938 61.8046 12.2093C62.8036 12.4253 63.8117 12.6511 64.7995 12.8791C64.8677 12.8953 64.9106 12.9635 64.8945 13.0318C64.8811 13.0901 64.829 13.1302 64.7706 13.1302ZM58.7744 11.8329C58.766 11.8329 58.7576 11.8322 58.7491 11.8301C57.755 11.6296 56.7426 11.4333 55.7401 11.2455C55.6712 11.2328 55.6254 11.166 55.6381 11.097C55.6515 11.0281 55.7183 10.9824 55.7866 10.9957C56.7912 11.1836 57.8043 11.3806 58.7991 11.5811C58.868 11.5951 58.9123 11.662 58.899 11.7309C58.887 11.7914 58.8342 11.8329 58.7744 11.8329ZM43.6288 10.8009C43.5754 10.8009 43.5254 10.7664 43.5078 10.7129C43.486 10.6461 43.5226 10.5743 43.5894 10.5525C44.516 10.2535 45.5108 10.0727 46.6308 10.0002C46.7005 9.99602 46.7617 10.0488 46.7659 10.1191C46.7701 10.1895 46.7173 10.25 46.647 10.2542C45.5481 10.3253 44.5737 10.5026 43.6675 10.7952C43.6549 10.7987 43.6415 10.8009 43.6288 10.8009ZM52.7445 10.7073C52.7374 10.7073 52.7304 10.7066 52.7234 10.7059C51.5555 10.5117 50.5924 10.3858 49.6926 10.3077C49.6229 10.3021 49.5709 10.2401 49.5765 10.1698C49.5828 10.1001 49.6419 10.0453 49.7144 10.0537C50.6212 10.1318 51.5907 10.2591 52.7649 10.454C52.8345 10.4653 52.881 10.5307 52.8697 10.6003C52.8592 10.663 52.805 10.7073 52.7445 10.7073Z" fill="#18181B"/>
<path d="M86.3205 57.8959C82.6699 70.9675 66.4563 83.0211 57.7142 84.298C48.9714 83.0218 32.7586 70.9675 29.1079 57.8959C25.4573 44.8243 27.6615 29.2045 27.6615 29.2045C45.4059 33.9576 57.7142 21.8189 57.7142 21.8189C57.7142 21.8189 70.0225 33.9576 87.762 29.2052C87.762 29.2045 89.9711 44.825 86.3205 57.8959Z" fill="white"/>
<path d="M57.7141 84.5527C57.7021 84.5527 57.6895 84.552 57.6775 84.5499C48.9059 83.2688 32.5804 71.2757 28.863 57.9642C25.2405 44.9911 27.3877 29.3255 27.4102 29.1686C27.42 29.0962 27.4608 29.0322 27.5221 28.9921C27.5826 28.952 27.6578 28.94 27.7282 28.9583C36.8129 31.3918 44.4286 29.2742 49.2189 27.0707C54.4187 24.678 57.5065 21.6669 57.5368 21.6373C57.636 21.5403 57.795 21.5403 57.8942 21.6373C57.9244 21.6676 61.0122 24.678 66.2113 27.0707C71.0003 29.2749 78.6153 31.3918 87.6972 28.9583C87.7675 28.9393 87.8421 28.9513 87.9033 28.9921C87.9638 29.0322 88.0046 29.0962 88.0152 29.1686C88.037 29.3255 90.1898 44.9911 86.5666 57.9642C82.8491 71.275 66.5237 83.2688 57.7521 84.5499C57.7387 84.552 57.726 84.5527 57.7141 84.5527ZM27.8766 29.5246C27.6058 31.7014 26.0271 45.919 29.3526 57.8277C30.9947 63.7078 35.3685 69.9228 41.6672 75.3273C47.171 80.0494 53.3149 83.3856 57.7141 84.0413C62.1133 83.3849 68.2579 80.0494 73.7609 75.3273C80.0596 69.9228 84.4328 63.7078 86.0748 57.8277C89.4011 45.9183 87.8182 31.7007 87.5466 29.5246C78.4331 31.8822 70.7984 29.7469 65.9792 27.5252C61.414 25.4209 58.4486 22.8425 57.7141 22.1678C56.9796 22.8425 54.0142 25.4209 49.4483 27.5252C44.6284 29.7469 36.9923 31.8815 27.8766 29.5246Z" fill="#18181B"/>
<path d="M57.7142 80.2492C50.0196 78.6895 36.0032 67.7538 32.9499 56.8223C30.6753 48.6776 30.8505 39.2833 31.2121 33.9794C32.7789 34.1904 34.3485 34.2974 35.9096 34.2974C46.1024 34.2974 53.8208 29.8307 57.7142 26.975C61.6082 29.8307 69.3259 34.2974 79.5159 34.2974C81.0763 34.2974 82.6452 34.1904 84.2127 33.9794C84.5757 39.2819 84.753 48.6776 82.4785 56.8223C79.4251 67.7545 65.4087 78.6895 57.7142 80.2492Z" fill="#FEE2E2"/>
<path d="M57.7134 64.9137C63.9547 64.9137 69.0142 59.8541 69.0142 53.6128C69.0142 47.3716 63.9547 42.312 57.7134 42.312C51.4721 42.312 46.4126 47.3716 46.4126 53.6128C46.4126 59.8541 51.4721 64.9137 57.7134 64.9137Z" fill="white"/>
<path d="M53.0913 54.977L55.1822 57.0679L62.335 49.9151" fill="white"/>
<path d="M55.1823 57.8312C54.9797 57.8312 54.7856 57.751 54.6427 57.6075L52.5518 55.5159C52.2536 55.2176 52.2536 54.735 52.5518 54.4367C52.8501 54.1384 53.3328 54.1391 53.6311 54.4367L55.1823 55.988L61.7955 49.3748C62.0938 49.0772 62.5772 49.0765 62.8748 49.3748C63.1731 49.6731 63.1731 50.1557 62.8748 50.454L55.722 57.6075C55.5791 57.751 55.385 57.8312 55.1823 57.8312Z" fill="#18181B"/>
<path d="M124.498 150.451L124.882 144.749L126.356 150.451H149.225L146.432 126.3L109.869 124.634L104.434 150.451H124.498Z" fill="#18181B"/>
<path d="M149.225 150.706H126.356C126.24 150.706 126.139 150.627 126.11 150.515L125.03 146.338L124.752 150.469C124.743 150.602 124.631 150.706 124.498 150.706H104.434C104.358 150.706 104.285 150.671 104.237 150.611C104.188 150.552 104.169 150.474 104.185 150.399L109.62 124.582C109.645 124.459 109.754 124.371 109.88 124.38L146.444 126.046C146.568 126.052 146.67 126.147 146.685 126.271L149.477 150.422C149.486 150.495 149.463 150.566 149.415 150.621C149.366 150.675 149.297 150.706 149.225 150.706ZM126.553 150.197H148.939L146.204 126.545L110.073 124.898L104.747 150.197H124.26L124.629 144.732C124.637 144.608 124.735 144.508 124.859 144.496C124.98 144.484 125.097 144.564 125.128 144.686L126.553 150.197Z" fill="#18181B"/>
<path d="M142.103 149.021C141.977 149.021 141.868 148.928 141.851 148.801C141.276 144.563 140.756 140.107 140.254 135.798C139.993 133.559 139.723 131.244 139.448 128.988C139.431 128.849 139.53 128.722 139.67 128.705C139.811 128.689 139.936 128.787 139.953 128.927C140.228 131.184 140.498 133.499 140.759 135.739C141.261 140.046 141.78 144.499 142.355 148.732C142.374 148.871 142.276 148.999 142.137 149.018C142.125 149.02 142.114 149.021 142.103 149.021Z" fill="white"/>
<path d="M124.882 145.003C124.757 145.003 124.648 144.911 124.63 144.785C124.621 144.723 123.676 138.611 118.031 137.576C117.894 137.551 117.802 137.419 117.827 137.28C117.853 137.142 117.984 137.05 118.124 137.076C124.132 138.177 125.124 144.648 125.134 144.712C125.153 144.852 125.057 144.98 124.918 145C124.906 145.002 124.894 145.003 124.882 145.003Z" fill="white"/>
<path d="M91.3803 72.7995L82.7149 78.5425C82.7149 78.5425 80.8498 75.7895 78.5662 72.9832C77.5911 71.7857 75.4362 68.0296 74.9064 65.8768C74.3717 63.7212 75.9997 64.0575 75.9997 64.0575C75.5712 61.6359 77.9084 62.3591 77.9084 62.3591C77.4877 61.498 77.7585 60.1965 78.9172 60.3316C80.0591 60.4645 82.7684 64.0863 82.8535 64.1996C82.7979 64.0568 80.5171 59.3375 82.4497 58.9161C84.7643 58.4109 87.8007 66.9778 87.8007 66.9778C87.8007 66.9778 88.0068 62.1382 90.23 63.2083C92.1936 64.1552 91.3803 72.7995 91.3803 72.7995Z" fill="white"/>
<path d="M82.715 78.7971C82.6333 78.7971 82.5531 78.7578 82.5039 78.6853C82.4856 78.6579 80.6184 75.9085 78.3685 73.1436C77.3934 71.9462 75.2083 68.1689 74.6588 65.9373C74.452 65.1029 74.5252 64.4937 74.8776 64.1278C75.1288 63.8668 75.4594 63.7965 75.7064 63.7859C75.6466 63.1373 75.7915 62.6539 76.139 62.3472C76.5443 61.9898 77.1212 61.9757 77.5222 62.0236C77.4019 61.5015 77.4793 60.9493 77.7473 60.5708C78.014 60.1944 78.441 60.0199 78.9468 60.079C79.7214 60.1691 81.004 61.5219 81.9467 62.6455C81.5175 61.4213 81.2122 60.0537 81.6006 59.2791C81.7617 58.9576 82.0368 58.7458 82.3948 58.6677C84.4231 58.2217 86.7342 63.5059 87.6566 65.8684C87.8085 64.8595 88.1624 63.4686 88.9792 62.9797C89.3816 62.7383 89.8396 62.739 90.3405 62.9797C92.404 63.973 91.7187 71.9201 91.6336 72.8228C91.6266 72.8994 91.5851 72.9684 91.5211 73.0106L82.8557 78.7535C82.812 78.7838 82.7635 78.7971 82.715 78.7971ZM75.7732 64.2939C75.6177 64.2939 75.3933 64.3255 75.2427 64.4838C75.0247 64.7132 74.9937 65.174 75.1534 65.817C75.6775 67.9473 77.8381 71.6873 78.7632 72.8242C80.6698 75.1669 82.3034 77.4984 82.7832 78.1935L91.1383 72.656C91.3564 70.2141 91.5745 64.1405 90.1196 63.4398C89.7777 63.2751 89.49 63.2681 89.2409 63.4173C88.3706 63.9386 88.0899 66.1737 88.0548 66.9905C88.0498 67.1122 87.9591 67.2135 87.8381 67.2311C87.7178 67.2494 87.601 67.179 87.5609 67.0644C86.4155 63.8337 84.0242 58.8295 82.5039 59.1665C82.2921 59.213 82.15 59.3213 82.0557 59.5091C81.7096 60.1986 82.0818 61.885 83.0512 64.0202C83.073 64.068 83.0864 64.099 83.0906 64.1088C83.1371 64.2277 83.0885 64.3621 82.9767 64.424C82.8655 64.4859 82.7255 64.4557 82.6495 64.3537C81.6006 62.9445 79.6511 60.6749 78.8884 60.5862C78.5655 60.549 78.3214 60.6432 78.1631 60.867C77.9225 61.2061 77.9119 61.7879 78.1378 62.2494C78.1821 62.3401 78.168 62.4492 78.1026 62.5259C78.0372 62.6033 77.9316 62.6335 77.8346 62.604C77.5834 62.5273 76.8496 62.4007 76.4753 62.7313C76.2164 62.9607 76.1412 63.3926 76.2509 64.0146C76.2657 64.0976 76.2382 64.1827 76.1777 64.2411C76.1172 64.3002 76.0307 64.3248 75.9491 64.3079C75.947 64.3072 75.8752 64.2939 75.7732 64.2939Z" fill="#18181B"/>
<path d="M80.5161 66.1505C80.438 66.1505 80.3606 66.1146 80.3114 66.047L77.7041 62.5104C77.6203 62.3971 77.645 62.2381 77.7575 62.1551C77.8701 62.0714 78.0298 62.0953 78.1128 62.2086L80.7201 65.7452C80.8038 65.8585 80.7792 66.0175 80.6666 66.1005C80.6216 66.1343 80.5688 66.1505 80.5161 66.1505Z" fill="#18181B"/>
<path d="M78.7148 67.7981C78.6388 67.7981 78.5642 67.7644 78.5143 67.7003L75.8 64.2143C75.7135 64.1039 75.7339 63.9435 75.8444 63.8576C75.9548 63.7711 76.1152 63.7915 76.201 63.902L78.9153 67.388C79.0018 67.4984 78.9814 67.6588 78.8709 67.7447C78.8245 67.7805 78.7696 67.7981 78.7148 67.7981Z" fill="#18181B"/>
<path d="M81.2381 79.476L83.5977 84.5851L96.0171 78.3286L94.0529 72.3619C92.4017 69.8173 79.6115 76.9574 81.2381 79.476Z" fill="#B1E346"/>
<path d="M83.5977 84.8398C83.5695 84.8398 83.5407 84.8348 83.514 84.8257C83.4485 84.8032 83.3958 84.7546 83.3669 84.692L81.0143 79.5978C80.0026 77.9775 83.6589 75.4329 84.807 74.6899C88.0412 72.5962 93.1143 70.4469 94.2667 72.2233C94.2787 72.2416 94.2878 72.2613 94.2949 72.2824L96.2591 78.2491C96.2985 78.3687 96.2444 78.4988 96.1318 78.5558L83.7124 84.8123C83.6765 84.8299 83.6371 84.8398 83.5977 84.8398ZM92.695 72.0735C90.9503 72.0735 87.7253 73.4067 85.0828 75.117C82.4017 76.8533 80.9418 78.5488 81.4512 79.3374C81.4575 79.3473 81.4632 79.3579 81.4688 79.3684L83.7187 84.2389L95.7076 78.1998L93.8228 72.4752C93.6251 72.198 93.2297 72.0735 92.695 72.0735Z" fill="#18181B"/>
<path d="M114.905 78.4601C114.905 78.4601 112.161 79.253 109.495 81.2053C106.12 83.6768 102.64 92.682 102.64 92.682L95.8835 75.9176C93.5794 73.6163 81.0031 80.5327 82.9793 84.4029C82.9793 84.4029 92.738 111.827 101.674 111.827C110.646 111.827 118.541 92.1748 118.541 92.1748L114.905 78.4601Z" fill="white"/>
<path d="M101.673 112.081C92.6985 112.081 83.2177 85.8311 82.7442 84.5035C81.9577 82.9332 83.2128 80.791 86.1922 78.6227C89.6832 76.0822 94.5959 74.272 96.0621 75.7368C96.0867 75.7607 96.1057 75.7903 96.1184 75.8219L102.637 91.9989C103.482 89.9312 106.415 83.1443 109.343 80.9999C112.015 79.0427 114.72 78.2484 114.833 78.2153C114.899 78.197 114.969 78.2048 115.029 78.2385C115.088 78.2723 115.132 78.3286 115.15 78.3947L118.785 92.1094C118.799 92.1621 118.796 92.2184 118.776 92.2691C118.451 93.0788 110.714 112.081 101.673 112.081ZM94.4165 75.7122C92.5318 75.7122 89.2589 77.0207 86.4919 79.0342C83.7672 81.0175 82.5381 82.9811 83.205 84.2875C83.21 84.2974 83.2142 84.3072 83.2184 84.3178C83.3155 84.5907 93.0186 111.573 101.673 111.573C110.093 111.573 117.717 93.5031 118.273 92.1572L114.727 78.7831C113.999 79.0265 111.784 79.8433 109.645 81.4101C106.369 83.8098 102.911 92.6842 102.876 92.7735C102.839 92.8713 102.746 92.9353 102.641 92.936C102.547 92.9416 102.442 92.8734 102.403 92.777L95.6674 76.0632C95.4008 75.8247 94.9681 75.7122 94.4165 75.7122Z" fill="#18181B"/>
<path d="M107.768 128.03C107.768 130.853 149.089 130.853 149.089 128.03L146.291 111.314C146.291 111.314 148.248 86.9039 143.686 80.4406C142.631 78.9456 140.151 77.8614 136.977 77.1938C131.447 76.0301 123.805 76.1364 117.905 77.5469V77.5491C116.122 77.9747 114.496 78.5213 113.136 79.189L109.495 91.6577C109.979 99.3262 110.175 108.319 110.175 108.319L107.768 128.03Z" fill="white"/>
<path d="M117.903 77.547V77.5491L125.131 93.9245L136.976 77.1938C131.446 76.0301 123.804 76.1371 117.903 77.547Z" fill="#B1E346"/>
<path d="M128.428 130.403C123.008 130.403 117.955 130.214 114.2 129.872C107.513 129.263 107.513 128.399 107.513 128.03C107.513 128.02 107.513 128.009 107.515 127.999L109.927 108.604C109.916 108.132 109.708 99.0877 109.241 91.6746C109.231 91.5346 109.338 91.4136 109.478 91.4044C109.609 91.3953 109.739 91.5022 109.748 91.6422C110.226 99.2284 110.433 108.518 110.435 108.611C110.435 108.623 110.434 108.635 110.433 108.647L108.023 128.038C108.04 128.127 108.365 128.829 114.247 129.365C117.987 129.705 123.023 129.893 128.428 129.893C133.832 129.893 138.869 129.705 142.609 129.365C148.426 128.834 148.808 128.142 148.832 128.041L146.039 111.356C146.035 111.335 146.035 111.314 146.036 111.293C146.048 111.148 147.188 96.5923 145.626 87.1262C145.603 86.9876 145.697 86.8568 145.835 86.8336C145.976 86.8111 146.105 86.9046 146.128 87.0432C147.665 96.3566 146.606 110.533 146.546 111.302L149.34 127.988C149.342 128.002 149.343 128.016 149.343 128.03C149.343 128.399 149.343 129.262 142.655 129.872C138.9 130.214 133.848 130.403 128.428 130.403Z" fill="#18181B"/>
<path d="M113.136 79.4444C113.041 79.4444 112.951 79.3923 112.907 79.3023C112.845 79.1763 112.897 79.0237 113.023 78.9618C119.923 75.5735 133.124 75.1972 140.718 78.1724C140.848 78.2238 140.913 78.3715 140.861 78.5023C140.81 78.6332 140.662 78.6972 140.531 78.6466C133.047 75.715 120.042 76.0829 113.247 79.4191C113.212 79.4359 113.173 79.4444 113.136 79.4444Z" fill="#18181B"/>
<path d="M133.753 77.2001L125.846 88.057L119.788 77.1565C119.788 77.1565 121.549 72.3739 121.327 66.5058C125.125 67.7489 133.314 65.0213 133.314 65.0213C133.314 65.0213 131.641 72.5174 133.753 77.2001Z" fill="white"/>
<path d="M125.846 88.3117C125.841 88.3117 125.835 88.3117 125.83 88.311C125.744 88.3054 125.666 88.2568 125.623 88.1808L119.565 77.2803C119.529 77.2156 119.523 77.1382 119.549 77.0693C119.567 77.0221 121.29 72.262 121.073 66.5156C121.069 66.4326 121.107 66.3531 121.174 66.3031C121.24 66.2532 121.327 66.2384 121.406 66.2644C125.082 67.4661 133.152 64.8074 133.233 64.78C133.319 64.7511 133.416 64.7708 133.484 64.8327C133.552 64.894 133.582 64.9875 133.562 65.0769C133.546 65.1507 131.933 72.5455 133.986 77.096C134.024 77.179 134.013 77.2768 133.96 77.3507L126.053 88.2076C126.003 88.273 125.927 88.3117 125.846 88.3117ZM120.065 77.1326L125.875 87.5849L133.461 77.1685C131.687 73.057 132.656 67.0566 132.976 65.3956C131.294 65.9211 125.059 67.7292 121.591 66.8462C121.72 72.0517 120.319 76.3903 120.065 77.1326Z" fill="#18181B"/>
<path d="M128.968 70.729C126.121 71.8976 122.47 73.0204 118.21 70.0558C112.908 66.3664 114.782 45.8128 125.063 44.1553C134.849 42.5772 133.38 57.3845 133.38 57.3845C133.38 57.3845 135.493 56.0675 136.116 58.1485C136.902 60.7692 133.32 65.2549 133.32 65.2549" fill="white"/>
<path d="M123.801 72.198C122.004 72.198 120.101 71.6816 118.065 70.264C115.294 68.3356 114.277 61.7618 115.751 55.2971C117.217 48.8626 120.683 44.6027 125.023 43.9034C127.335 43.5298 129.234 44.0237 130.663 45.3689C133.969 48.4785 133.786 55.1409 133.669 56.9553C134.083 56.7815 134.736 56.5986 135.327 56.8216C135.819 57.0074 136.166 57.4295 136.36 58.0746C137.175 60.7917 133.669 65.2246 133.519 65.4125C133.432 65.5222 133.271 65.5405 133.162 65.4526C133.052 65.3653 133.034 65.2049 133.121 65.0952C133.157 65.0515 136.612 60.684 135.872 58.221C135.727 57.7362 135.484 57.4253 135.148 57.2986C134.447 57.032 133.523 57.5941 133.514 57.5997C133.432 57.6504 133.328 57.6504 133.245 57.599C133.163 57.5477 133.117 57.4541 133.126 57.3584C133.135 57.2761 133.897 49.1088 130.314 45.7389C129.005 44.5084 127.251 44.0589 125.103 44.4057C120.976 45.0713 117.664 49.1848 116.246 55.4104C114.816 61.6873 115.742 68.0282 118.355 69.8468C122.298 72.5906 125.739 71.7787 128.871 70.4941C129 70.4406 129.149 70.5025 129.203 70.6327C129.256 70.7628 129.194 70.9113 129.064 70.9647C127.405 71.6457 125.66 72.198 123.801 72.198Z" fill="#18181B"/>
<path d="M125.331 58.5732C125.725 58.562 126.033 58.1355 126.019 57.6204C126.004 57.1054 125.673 56.697 125.278 56.7082C124.883 56.7193 124.575 57.1459 124.59 57.6609C124.604 58.1759 124.936 58.5843 125.331 58.5732Z" fill="#18181B"/>
<path d="M118.606 58.1753C119 58.1641 119.308 57.7376 119.294 57.2226C119.279 56.7076 118.947 56.2991 118.553 56.3103C118.158 56.3215 117.85 56.748 117.865 57.263C117.879 57.778 118.211 58.1865 118.606 58.1753Z" fill="#18181B"/>
<path d="M124.085 55.8212C124.085 55.8212 125.276 54.9953 126.769 56.1793Z" fill="white"/>
<path d="M126.769 56.4333C126.714 56.4333 126.658 56.415 126.612 56.3784C125.295 55.3344 124.272 56.0027 124.23 56.0316C124.114 56.1097 123.956 56.0801 123.876 55.9647C123.798 55.8494 123.826 55.6925 123.94 55.6123C123.995 55.5743 125.305 54.6928 126.928 55.9795C127.037 56.0667 127.056 56.2272 126.969 56.3369C126.918 56.4002 126.845 56.4333 126.769 56.4333Z" fill="#18181B"/>
<path d="M117.596 55.1831C117.596 55.1831 118.786 54.3572 120.28 55.5412Z" fill="white"/>
<path d="M120.28 55.7952C120.225 55.7952 120.169 55.7769 120.122 55.7403C118.805 54.6963 117.783 55.3639 117.74 55.3928C117.624 55.4709 117.466 55.4413 117.387 55.3259C117.308 55.2106 117.336 55.0537 117.451 54.9735C117.506 54.9355 118.815 54.0547 120.438 55.3407C120.548 55.4279 120.567 55.5884 120.48 55.6981C120.429 55.7621 120.355 55.7952 120.28 55.7952Z" fill="#18181B"/>
<path d="M121.721 58.7296C121.481 60.1367 121.242 61.5437 121.002 62.9501C120.962 63.1816 120.924 63.4243 120.997 63.6473C121.092 63.9371 121.363 64.1412 121.654 64.2347C121.944 64.3276 122.255 64.3276 122.56 64.3262" fill="white"/>
<path d="M122.459 64.5809C122.179 64.5809 121.871 64.5717 121.576 64.4768C121.173 64.348 120.866 64.0673 120.755 63.7268C120.66 63.4383 120.71 63.1443 120.751 62.9079L121.47 58.6874C121.494 58.5488 121.625 58.4559 121.763 58.4792C121.902 58.5031 121.995 58.6339 121.972 58.7725L121.253 62.993C121.22 63.1837 121.183 63.3997 121.239 63.5685C121.298 63.7521 121.488 63.9146 121.732 63.9927C121.986 64.0743 122.278 64.0743 122.559 64.0722H122.56C122.7 64.0722 122.814 64.1855 122.814 64.3255C122.815 64.4662 122.702 64.5802 122.561 64.5809C122.527 64.5802 122.494 64.5809 122.459 64.5809Z" fill="#18181B"/>
<path d="M123.909 66.4143C123.174 67.6701 121.971 67.7418 120.819 67.2888Z" fill="white"/>
<path d="M122.043 67.8017C121.636 67.8017 121.194 67.7102 120.725 67.5259C120.594 67.4745 120.53 67.3268 120.582 67.1959C120.633 67.0651 120.781 67.001 120.912 67.0524C121.776 67.3922 122.959 67.535 123.688 66.2863C123.76 66.1652 123.915 66.1237 124.037 66.1948C124.158 66.2659 124.199 66.4213 124.128 66.543C123.642 67.3746 122.923 67.8017 122.043 67.8017Z" fill="#18181B"/>
<path d="M145.143 53.5298C143.636 62.7299 133.319 65.2542 133.319 65.2542C133.319 65.2542 136.902 60.7699 136.114 58.1464C135.491 56.0653 133.379 57.3816 133.379 57.3816C133.379 57.3816 133.164 58.553 132.334 58.4327C131.461 58.3089 131.903 54.4437 131.879 53.8197C131.859 53.3729 131.898 53.0451 131.55 52.7447C131.127 52.3824 130.327 52.198 129.802 52.0475C129.802 52.0475 125.878 51.313 125.693 50.2014C125.53 49.2277 125.301 49.1764 125.575 48.7564C122.321 50.0748 114.891 52.4126 114.28 46.6043C113.496 39.1489 120.147 41.9891 120.147 41.9891C120.147 41.9891 119.216 38.5573 122.291 38.3624C126.676 38.0852 127.791 40.7248 127.791 40.7248C138.973 38.2351 145.402 42.6912 145.143 53.5298Z" fill="#18181B"/>
<path d="M133.319 65.5088C133.234 65.5088 133.152 65.4659 133.104 65.3913C133.046 65.2999 133.052 65.181 133.12 65.0959C133.155 65.0522 136.611 60.6854 135.871 58.2203C135.726 57.7348 135.482 57.4246 135.147 57.2972C134.573 57.0798 133.852 57.4147 133.603 57.5477C133.476 58.0479 133.076 58.7972 132.297 58.6846C131.444 58.5636 131.479 56.6556 131.595 54.5408C131.613 54.2214 131.628 53.9456 131.624 53.8295L131.619 53.667C131.608 53.2927 131.594 53.1197 131.383 52.9374C131.06 52.6602 130.42 52.4837 129.953 52.3542L129.731 52.2916C129.07 52.1692 125.645 51.4678 125.442 50.2429C125.387 49.9137 125.325 49.7005 125.276 49.5288C125.24 49.4008 125.208 49.2896 125.197 49.1792C122.604 50.1789 118.372 51.3988 115.906 49.9193C114.82 49.2671 114.187 48.1612 114.026 46.631C113.78 44.2903 114.23 42.6785 115.364 41.8413C116.806 40.7769 118.907 41.294 119.81 41.5937C119.723 40.9859 119.678 39.9024 120.256 39.0941C120.683 38.4975 121.362 38.1661 122.274 38.1084C126.142 37.8636 127.566 39.8018 127.926 40.4343C133.803 39.1602 138.319 39.7765 141.352 42.2684C144.158 44.5739 145.518 48.3645 145.395 53.5354C145.395 53.5474 145.394 53.5587 145.392 53.5706C143.875 62.8298 133.481 65.4758 133.377 65.5011C133.359 65.5067 133.339 65.5088 133.319 65.5088ZM134.73 56.7175C134.928 56.7175 135.131 56.7471 135.325 56.8209C135.817 57.0067 136.165 57.4288 136.358 58.0739C137.003 60.2218 134.95 63.4383 133.986 64.7877C136.338 64.0068 143.651 60.9999 144.889 53.5059C145.005 48.5087 143.707 44.8602 141.032 42.6617C138.134 40.2809 133.574 39.6977 127.847 40.9732C127.725 40.9999 127.605 40.9366 127.557 40.824C127.514 40.7241 126.434 38.3539 122.308 38.6164C121.557 38.6642 121.006 38.9238 120.673 39.3888C119.982 40.352 120.389 41.9068 120.394 41.9223C120.419 42.0158 120.388 42.1164 120.315 42.1805C120.242 42.2445 120.138 42.2614 120.048 42.2227C120.021 42.2114 117.274 41.0632 115.667 42.2508C114.689 42.9733 114.307 44.4289 114.533 46.5768C114.677 47.9389 115.227 48.9161 116.169 49.4817C118.601 50.9415 123.047 49.5056 125.48 48.5193C125.582 48.4778 125.7 48.5073 125.772 48.5931C125.843 48.679 125.849 48.8007 125.788 48.8935C125.675 49.068 125.682 49.0919 125.767 49.3867C125.817 49.5612 125.885 49.7997 125.945 50.1578C126.052 50.8029 128.292 51.5036 129.85 51.7956L130.09 51.8617C130.632 52.0116 131.306 52.198 131.716 52.5498C132.106 52.8868 132.117 53.2583 132.128 53.6508L132.133 53.807C132.138 53.9484 132.124 54.2087 132.104 54.5682C131.933 57.6532 132.197 58.1555 132.369 58.1802C132.945 58.2646 133.127 57.3437 133.128 57.3345C133.142 57.2649 133.183 57.2029 133.244 57.165C133.282 57.1439 133.976 56.7175 134.73 56.7175Z" fill="#18181B"/>
<path d="M117.612 48.5495C116.981 48.5495 116.361 48.1323 116.069 47.4956C115.816 46.9441 115.801 46.2539 116.029 45.5518C116.224 44.9474 116.559 44.4156 116.883 43.9006L117.313 44.1714C117.006 44.6597 116.689 45.1648 116.513 45.7087C116.325 46.2884 116.332 46.8477 116.532 47.2832C116.753 47.7651 117.246 48.0824 117.702 48.0366L117.753 48.5432C117.706 48.5474 117.659 48.5495 117.612 48.5495Z" fill="white"/>
<path d="M122.292 40.7832L121.845 40.5405C122.009 40.2373 122.234 39.8222 122.65 39.6294C122.897 39.5148 123.162 39.5028 123.407 39.5049C124.176 39.5155 124.957 39.678 125.666 39.9756L125.469 40.4448C124.819 40.1726 124.104 40.0234 123.4 40.0136C123.214 40.0108 123.019 40.0185 122.863 40.091C122.621 40.2035 122.461 40.4709 122.292 40.7832Z" fill="white"/>
<path d="M142.815 54.0546L142.341 53.8682C142.951 52.3218 143.014 50.5968 142.52 49.0103C142.026 47.4239 140.994 46.04 139.614 45.1142L139.897 44.6913C141.372 45.6819 142.477 47.1621 143.005 48.8591C143.534 50.556 143.467 52.4013 142.815 54.0546Z" fill="white"/>
<path d="M138.419 61.9905L138.178 61.5423C139.207 60.9894 139.978 59.9798 140.239 58.8415L140.735 58.9554C140.442 60.2345 139.576 61.3693 138.419 61.9905Z" fill="white"/>
<path d="M130.069 51.4284L127.2 50.0705C126.975 49.9636 126.719 49.8426 126.517 49.6344C126.263 49.3712 126.164 49.0216 126.259 48.7212L126.743 48.8745C126.7 49.011 126.782 49.1771 126.883 49.2805C127.02 49.4226 127.222 49.5183 127.418 49.6111L130.287 50.969L130.069 51.4284Z" fill="white"/>
<path d="M121.207 114.016L114.174 114.608C114.174 114.608 110.133 111.622 111.729 110.107C113.188 108.72 121.207 114.016 121.207 114.016Z" fill="white"/>
<path d="M114.174 114.863C114.12 114.863 114.066 114.845 114.023 114.813C113.908 114.728 111.207 112.714 111.105 111.056C111.078 110.613 111.229 110.232 111.555 109.922C113.083 108.469 119.981 112.9 121.348 113.803C121.438 113.863 121.481 113.973 121.454 114.078C121.427 114.183 121.337 114.259 121.229 114.268L114.196 114.861C114.188 114.862 114.181 114.863 114.174 114.863ZM112.487 110.117C112.229 110.117 112.03 110.172 111.904 110.291C111.69 110.495 111.594 110.735 111.612 111.025C111.683 112.168 113.471 113.756 114.248 114.347L120.444 113.825C117.805 112.144 114.058 110.117 112.487 110.117Z" fill="#18181B"/>
<path d="M99.8273 126.833L114.395 125.501C114.91 125.454 115.289 124.998 115.242 124.483L113.177 101.891C113.13 101.376 112.674 100.996 112.159 101.043L97.5915 102.375C97.0765 102.422 96.6966 102.878 96.7437 103.393L98.8093 125.985C98.8564 126.501 99.3123 126.88 99.8273 126.833Z" fill="#18181B"/>
<path d="M101.953 126.879C101.104 126.879 100.29 126.585 99.6297 126.036C98.8818 125.413 98.4217 124.537 98.3331 123.568L96.7135 105.857C96.5306 103.858 98.0087 102.082 100.009 101.899L109.695 101.013C110.662 100.925 111.609 101.219 112.357 101.841C113.104 102.464 113.565 103.34 113.653 104.309L115.273 122.019C115.456 124.019 113.977 125.794 111.977 125.977L102.29 126.863C102.178 126.873 102.065 126.879 101.953 126.879ZM110.032 101.506C109.936 101.506 109.839 101.511 109.742 101.52L100.055 102.406C98.3352 102.563 97.0632 104.09 97.2208 105.811L98.8403 123.521C98.9163 124.355 99.3131 125.108 99.9561 125.644C100.599 126.179 101.413 126.433 102.246 126.356L111.933 125.47C113.653 125.313 114.925 123.785 114.768 122.065L113.148 104.354C113.072 103.521 112.676 102.767 112.033 102.232C111.463 101.759 110.762 101.506 110.032 101.506Z" fill="#18181B"/>
<path d="M121.208 114.016L120.407 122.083C120.407 122.083 110.028 123.848 107.568 122.103C105.897 120.915 106.984 120.234 106.984 120.234C105.052 119.043 106.984 117.876 106.984 117.876C106.132 117.64 105.399 116.65 106.203 115.935C106.99 115.231 111.103 115.574 111.284 115.588C111.091 115.518 106.609 114.537 107.43 113.342C108.268 112.12 115.817 113.253 115.817 113.253" fill="white"/>
<path d="M111.99 123.127C110.039 123.127 108.284 122.923 107.42 122.31C106.717 121.81 106.368 121.312 106.382 120.827C106.389 120.59 106.483 120.403 106.584 120.27C106.108 119.913 105.868 119.516 105.871 119.088C105.873 118.594 106.205 118.191 106.482 117.94C106.055 117.7 105.728 117.309 105.631 116.893C105.533 116.47 105.676 116.062 106.034 115.744C106.507 115.32 107.909 115.225 109.19 115.235C107.966 114.801 107.298 114.365 107.122 113.894C107.034 113.659 107.067 113.417 107.219 113.196C108.103 111.909 114.568 112.807 115.854 112.999C115.993 113.02 116.089 113.15 116.068 113.288C116.048 113.427 115.921 113.523 115.779 113.502C112.709 113.042 108.154 112.732 107.639 113.484C107.566 113.589 107.577 113.66 107.598 113.715C107.7 113.987 108.297 114.553 111.144 115.286C111.267 115.317 111.346 115.339 111.369 115.347C111.489 115.391 111.558 115.516 111.53 115.64C111.504 115.765 111.388 115.848 111.262 115.839C109.24 115.674 106.852 115.693 106.372 116.123C106.153 116.317 106.071 116.537 106.127 116.777C106.211 117.14 106.609 117.507 107.051 117.629C107.149 117.656 107.221 117.739 107.235 117.84C107.249 117.94 107.202 118.039 107.115 118.092C106.91 118.217 106.38 118.64 106.379 119.091C106.378 119.403 106.626 119.715 107.116 120.017C107.19 120.063 107.236 120.144 107.237 120.232C107.237 120.32 107.192 120.402 107.118 120.449C107.111 120.454 106.895 120.599 106.89 120.847C106.884 121.141 107.177 121.513 107.714 121.895C109.881 123.433 118.752 122.09 120.173 121.862L120.954 113.99C120.968 113.85 121.095 113.75 121.232 113.762C121.372 113.776 121.474 113.901 121.46 114.04L120.66 122.107C120.648 122.221 120.562 122.313 120.449 122.333C120.168 122.382 115.722 123.127 111.99 123.127Z" fill="#18181B"/>
<path d="M111.024 118.497C111.016 118.497 111.009 118.497 111.001 118.496L106.961 118.127C106.821 118.115 106.718 117.991 106.731 117.851C106.744 117.711 106.866 117.608 107.008 117.621L111.047 117.989C111.187 118.002 111.29 118.126 111.277 118.266C111.265 118.397 111.154 118.497 111.024 118.497Z" fill="#18181B"/>
<path d="M111.056 120.751C111.051 120.751 111.045 120.751 111.04 120.75L106.969 120.486C106.829 120.477 106.723 120.356 106.731 120.216C106.74 120.076 106.863 119.972 107.001 119.978L111.072 120.242C111.212 120.251 111.318 120.372 111.31 120.512C111.301 120.647 111.189 120.751 111.056 120.751Z" fill="#18181B"/>
<path d="M120.356 123.103H126.991L127.147 112.164L120.584 112.07C117.425 112.264 117.234 123.29 120.356 123.103Z" fill="#B1E346"/>
<path d="M120.273 123.36C118.714 123.36 118.016 121.057 117.883 118.867C117.71 116.018 118.429 111.948 120.567 111.817L127.15 111.91C127.218 111.91 127.282 111.938 127.329 111.986C127.376 112.035 127.402 112.099 127.401 112.167L127.245 123.107C127.243 123.246 127.13 123.357 126.991 123.357H120.362C120.332 123.359 120.303 123.36 120.273 123.36ZM120.579 112.325C119.048 112.42 118.205 115.768 118.391 118.836C118.506 120.734 119.082 122.924 120.339 122.849C120.344 122.849 120.349 122.849 120.355 122.849H126.739L126.888 112.414L120.579 112.325Z" fill="#18181B"/>
<path d="M140.582 78.5439C140.582 78.5439 148.371 81.2116 150.617 90.9767C152.121 97.5167 157.945 115.303 152.385 120.986C147.086 126.401 124.679 123.879 123.94 123.851C120.224 123.707 120.735 112.651 124.311 111.827L140.823 111.333L136.976 93.5445" fill="white"/>
<path d="M135.94 124.719C131.798 124.719 127.662 124.443 124.433 124.148C124.157 124.123 123.985 124.107 123.93 124.105C122.457 124.048 121.429 122.442 121.181 119.81C120.846 116.254 122.001 112.098 124.254 111.58C124.27 111.576 124.287 111.574 124.303 111.573L140.509 111.089L136.727 93.5987C136.697 93.4615 136.785 93.3258 136.922 93.2962C137.057 93.2674 137.194 93.3539 137.224 93.4911L141.071 111.28C141.087 111.354 141.07 111.43 141.023 111.49C140.976 111.55 140.906 111.585 140.83 111.588L124.344 112.081C122.396 112.56 121.38 116.503 121.687 119.763C121.908 122.118 122.754 123.551 123.949 123.597C124.006 123.599 124.188 123.616 124.478 123.642C139.036 124.97 149.141 123.937 152.203 120.808C156.86 116.05 153.344 102.565 151.244 94.5077C150.891 93.1527 150.586 91.9827 150.368 91.0343C148.179 81.5177 140.574 78.8112 140.498 78.7852C140.365 78.7394 140.294 78.5952 140.34 78.4623C140.385 78.3293 140.53 78.2582 140.663 78.304C140.742 78.3314 148.612 81.1307 150.864 90.9204C151.08 91.861 151.384 93.0282 151.736 94.3789C153.864 102.54 157.424 116.199 152.566 121.164C149.85 123.941 142.887 124.719 135.94 124.719Z" fill="#18181B"/>
<path d="M74.0333 105.41C74.0333 106.784 73.8497 108.115 73.5021 109.375V109.38C72.5193 112.983 70.2286 116.04 67.1718 118.025C64.8248 119.544 62.0261 120.428 59.0164 120.428C54.7833 120.428 50.9645 118.678 48.232 115.865C45.612 113.161 43.9946 109.474 43.9946 105.41C43.9946 105.237 43.9996 105.062 44.0038 104.893C44.0368 103.953 44.1543 103.031 44.352 102.142C45.4805 97.0573 49.1825 92.9473 54.0221 91.2398C54.5722 91.047 55.1414 90.8824 55.7246 90.7508C56.7827 90.5159 57.888 90.3885 59.0171 90.3885C60.287 90.3885 61.5196 90.544 62.6952 90.8444H62.7001C64.9859 91.4136 67.0599 92.5139 68.7955 94.0047C71.4295 96.2672 73.2686 99.4275 73.8419 103.006C73.9672 103.787 74.0333 104.592 74.0333 105.41Z" fill="white"/>
<path d="M73.8406 103.007C73.5915 103.651 73.2524 104.258 72.8387 104.808C72.4011 105.386 71.8278 105.932 71.113 106.036C70.2244 106.167 69.2127 105.617 68.4747 106.13C67.9527 106.487 67.8542 107.202 67.755 107.828C67.6565 108.453 67.4307 109.173 66.8285 109.38C66.2122 109.586 65.5495 109.088 65.2906 108.49C65.0317 107.893 65.0457 107.221 64.9613 106.571C64.8769 105.927 64.637 105.235 64.0678 104.916C63.5317 104.62 62.8782 104.742 62.2668 104.784C61.26 104.85 60.235 104.667 59.3084 104.257C58.9271 104.083 58.5465 103.858 58.3347 103.5C58.123 103.138 58.1469 102.611 58.4853 102.362C58.8518 102.094 59.4632 102.211 59.708 101.835C60.0422 101.327 59.2986 100.725 59.3556 100.118C59.4076 99.4929 60.3011 99.0363 60.0612 98.458C59.8825 98.0253 59.243 98.0443 58.9039 97.7193C58.664 97.4886 58.6169 97.1079 58.7252 96.7977C58.8378 96.4825 59.0777 96.2335 59.3415 96.0407C60.3053 95.335 61.5942 95.2696 62.7839 95.373C63.9736 95.4814 65.1731 95.7255 66.3536 95.5377C67.2562 95.392 68.0371 94.9495 68.6063 94.2347C68.6724 94.1545 68.7336 94.075 68.7941 94.004C71.4275 96.2672 73.2665 99.4275 73.8406 103.007Z" fill="#E0F2FE"/>
<path d="M54.0206 91.2391C54.0256 91.5775 53.9172 92.0481 53.8982 92.2923C53.7617 93.9997 53.5218 95.6924 53.1785 97.3668C53.0329 98.0767 52.7648 98.9048 52.0683 99.1116C51.7342 99.2101 51.3768 99.1348 51.0243 99.1116C50.6761 99.0834 50.2814 99.1257 50.0555 99.3937C49.8536 99.6245 49.8396 99.9629 49.8818 100.268C49.924 100.574 50.0133 100.875 49.9803 101.181C49.9472 101.487 49.7495 101.806 49.4442 101.848C49.3218 101.862 49.1951 101.834 49.0727 101.843C48.6914 101.872 48.4332 102.271 48.391 102.657C48.3488 103.039 48.4571 103.419 48.4853 103.8C48.5134 104.185 48.4381 104.618 48.1279 104.849C47.7283 105.136 47.1401 104.938 46.8158 104.572C46.4865 104.205 46.3451 103.715 46.1573 103.26C45.9645 102.808 45.6775 102.347 45.2117 102.187C44.9388 102.093 44.6426 102.112 44.3513 102.14C45.4798 97.0573 49.1811 92.9465 54.0206 91.2391Z" fill="#E0F2FE"/>
<path d="M58.7773 106.198C59.9761 106.496 60.8907 107.683 60.8724 108.918C60.8633 109.567 60.6325 110.256 60.9139 110.84C61.2861 111.614 62.4385 111.929 62.5124 112.784C62.5651 113.394 62.0171 113.866 61.7399 114.411C61.4732 114.935 61.4571 115.546 61.3501 116.124C61.1778 117.054 60.7542 117.935 60.1358 118.649C59.6898 119.164 59.0833 119.615 58.4016 119.601C57.5159 119.583 56.8208 118.773 56.5731 117.923C56.3255 117.072 56.4036 116.166 56.3572 115.281C56.3107 114.396 56.0969 113.448 55.4264 112.869C54.8073 112.335 53.9208 112.22 53.2616 111.736C52.2577 110.999 52.0199 109.505 52.5025 108.357C52.9239 107.355 53.994 106.274 55.0549 105.944C55.5741 105.782 56.1939 106.07 56.7321 106.088C57.4146 106.111 58.1075 106.031 58.7773 106.198Z" fill="#E0F2FE"/>
<path d="M73.5015 109.38C72.5187 112.982 70.228 116.039 67.1711 118.024C66.5077 117.638 66.1552 116.707 66.5787 116.067C67.0635 115.334 68.1919 115.329 68.7843 114.675C69.1558 114.271 69.25 113.678 69.236 113.128C69.2219 112.578 69.1234 112.028 69.1748 111.478C69.2311 110.932 69.4801 110.358 69.9698 110.113C70.4869 109.85 71.1081 110.015 71.6913 110.019C72.354 110.024 72.9844 109.779 73.5015 109.38Z" fill="#E0F2FE"/>
<path d="M47.8879 113.725C48.1982 114.266 48.5366 114.868 48.3959 115.475C48.3628 115.616 48.3065 115.748 48.2313 115.865C45.6113 113.161 43.9939 109.474 43.9939 105.41C43.9939 105.237 43.9988 105.062 44.003 104.893C44.0832 104.954 44.1627 105.025 44.2429 105.095C44.746 105.533 45.2961 105.89 45.9265 106.111C46.2466 106.224 46.585 106.304 46.8763 106.478C47.1675 106.651 47.4173 106.948 47.4264 107.287C47.4356 107.771 46.9656 108.241 47.1584 108.688C47.3934 109.21 48.2496 109.055 48.621 109.487C48.9411 109.864 48.7244 110.451 48.4001 110.823C48.0758 111.19 47.6431 111.496 47.4785 111.957C47.2766 112.55 47.5819 113.18 47.8879 113.725Z" fill="#E0F2FE"/>
<path d="M62.6938 90.8444C62.6558 90.9429 62.6276 91.047 62.5995 91.1455C62.4349 91.7477 62.3687 92.4013 62.0071 92.9043C61.5505 93.5488 60.6247 93.8119 59.905 93.4967C59.2092 93.1956 58.6541 92.4288 57.9013 92.528C57.4405 92.5842 57.0592 92.9747 56.5941 92.9838C56.0391 92.9979 55.6064 92.4428 55.5311 91.8927C55.4748 91.5022 55.5543 91.1075 55.7239 90.7501C56.782 90.5152 57.8872 90.3878 59.0164 90.3878C60.2856 90.3878 61.5182 90.5433 62.6938 90.8444Z" fill="#E0F2FE"/>
<path d="M59.0157 120.682C54.8501 120.682 50.9554 119.034 48.0491 116.043C45.2701 113.174 43.7393 109.398 43.7393 105.41C43.7393 105.234 43.7442 105.058 43.7491 104.886C43.7822 103.935 43.9011 102.994 44.103 102.087C45.235 96.989 49.0031 92.7404 53.9362 90.9999C54.504 90.8008 55.0865 90.6333 55.6676 90.5025C58.0174 89.9805 60.4861 90.0199 62.7395 90.5939C62.7466 90.5953 62.7536 90.5968 62.7599 90.5982C65.0239 91.1617 67.1675 92.2733 68.9594 93.8126C71.6997 96.1666 73.5225 99.4176 74.091 102.968C74.2211 103.767 74.2873 104.589 74.2873 105.411C74.2873 106.781 74.1072 108.132 73.7519 109.425C73.7505 109.433 73.7491 109.441 73.747 109.447C72.7606 113.061 70.4748 116.183 67.3097 118.238C64.8389 119.837 61.9713 120.682 59.0157 120.682ZM59.0157 90.6425C57.9316 90.6425 56.8425 90.7621 55.7788 90.9985C55.2174 91.1251 54.6545 91.2869 54.1051 91.4797C49.3358 93.1618 45.6937 97.2683 44.5997 102.197C44.4048 103.073 44.2894 103.984 44.2578 104.902C44.2528 105.066 44.2486 105.239 44.2486 105.41C44.2486 109.264 45.7281 112.914 48.4142 115.688C51.2241 118.58 54.9894 120.173 59.0157 120.173C61.8728 120.173 64.6447 119.356 67.0332 117.81C70.0879 115.827 72.2963 112.816 73.2517 109.33C73.2531 109.322 73.2545 109.314 73.2566 109.306C73.6034 108.051 73.7786 106.74 73.7786 105.41C73.7786 104.615 73.7146 103.82 73.5894 103.047C73.0392 99.6153 71.2776 96.4727 68.6281 94.1974C66.9002 92.713 64.8346 91.6408 62.6537 91.0949C62.6459 91.0934 62.6382 91.092 62.6312 91.0899C61.4682 90.793 60.2525 90.6425 59.0157 90.6425Z" fill="#18181B"/>
<path d="M110.048 26.6444C110.11 28.8232 109.382 30.8388 108.124 32.4204C106.552 34.405 104.143 35.7044 101.414 35.7818C98.6858 35.8592 96.2065 34.6984 94.5251 32.8059C93.18 31.2982 92.3385 29.3276 92.2773 27.1488C92.138 22.2417 96.0032 18.1506 100.91 18.012C105.818 17.872 109.909 21.7365 110.048 26.6444Z" fill="white"/>
<path d="M108.124 32.4197C106.552 34.4043 104.143 35.7037 101.414 35.7811C98.6858 35.8585 96.2066 34.6977 94.5251 32.8052C95.4186 29.9587 98.0379 27.8601 101.187 27.7707C104.337 27.6814 107.071 29.6288 108.124 32.4197Z" fill="#B1E346"/>
<path d="M101.08 26.3981C102.599 26.3981 103.831 25.1666 103.831 23.6473C103.831 22.1281 102.599 20.8965 101.08 20.8965C99.5607 20.8965 98.3291 22.1281 98.3291 23.6473C98.3291 25.1666 99.5607 26.3981 101.08 26.3981Z" fill="#B1E346"/>
<path d="M101.16 36.0393C98.5493 36.0393 96.0749 34.9313 94.3358 32.9747C92.9062 31.3721 92.0845 29.3051 92.024 27.1558C91.9551 24.7146 92.8401 22.3922 94.5173 20.6172C96.1945 18.8422 98.4627 17.8263 100.904 17.7574C105.943 17.6124 110.16 21.5979 110.302 26.6373C110.363 28.7873 109.66 30.8972 108.323 32.5787C106.644 34.6991 104.128 35.9591 101.422 36.0358C101.335 36.0379 101.247 36.0393 101.16 36.0393ZM101.166 18.2618C101.083 18.2618 101 18.2632 100.917 18.2653C98.6119 18.3307 96.4696 19.2897 94.886 20.9662C93.3023 22.6427 92.4658 24.8356 92.5313 27.1411C92.5889 29.1708 93.3642 31.1224 94.715 32.6364C96.4126 34.5464 98.8525 35.5982 101.407 35.5272C103.963 35.4547 106.338 34.2643 107.924 32.2621C109.187 30.6735 109.85 28.6818 109.793 26.6514C109.661 21.975 105.815 18.2618 101.166 18.2618Z" fill="#18181B"/>
<path d="M46.172 75.2387H6.31342C5.72809 75.2387 5.25391 74.7645 5.25391 74.1792V60.9092C5.25391 60.3238 5.72809 59.8497 6.31342 59.8497H46.172C46.7573 59.8497 47.2315 60.3238 47.2315 60.9092V74.1792C47.2315 74.7638 46.7573 75.2387 46.172 75.2387Z" fill="white"/>
<path d="M43.4001 75.4927H9.08611C6.8327 75.4927 5 73.6593 5 71.4066V63.6811C5 61.4277 6.8334 59.595 9.08611 59.595H43.4001C45.6535 59.595 47.4862 61.4284 47.4862 63.6811V71.4066C47.4862 73.66 45.6535 75.4927 43.4001 75.4927ZM9.08611 60.1036C7.11341 60.1036 5.50865 61.7084 5.50865 63.6811V71.4066C5.50865 73.3793 7.11341 74.984 9.08611 74.984H43.4001C45.3728 74.984 46.9776 73.3793 46.9776 71.4066V63.6811C46.9776 61.7084 45.3728 60.1036 43.4001 60.1036H9.08611Z" fill="#18181B"/>
<path d="M15.059 68.2287C15.1582 68.2639 15.2039 68.3406 15.1969 68.4595C15.1891 68.5784 15.1139 68.762 14.9696 69.0103C14.8254 69.2587 14.7037 69.4135 14.6045 69.4761C14.5053 69.538 14.416 69.5373 14.3365 69.4725L12.8548 68.2885L13.1524 70.1578C13.177 70.2619 13.1348 70.3414 13.0258 70.3963C12.9167 70.4512 12.7176 70.4779 12.4299 70.4779C12.1421 70.4779 11.943 70.4505 11.834 70.3963C11.7249 70.3414 11.6827 70.2619 11.7074 70.1578L12.005 68.2885L10.5233 69.4725C10.4487 69.5373 10.3622 69.5373 10.263 69.4725C10.1638 69.4078 10.0393 69.2516 9.89084 69.0033C9.74662 68.7599 9.67204 68.5791 9.66712 68.4595C9.66219 68.3406 9.70652 68.2632 9.80149 68.2287L11.5737 67.5435L9.80149 66.8582C9.70722 66.8238 9.66219 66.7464 9.66712 66.6275C9.67204 66.5086 9.74662 66.3249 9.89084 66.0766C10.0351 65.8283 10.1575 65.6721 10.2595 65.6074C10.3615 65.5426 10.4494 65.5454 10.524 65.6151L12.0057 66.7991L11.7081 64.9299C11.6834 64.8307 11.7256 64.7526 11.8347 64.6956C11.9437 64.6386 12.1421 64.6097 12.4306 64.6097C12.7183 64.6097 12.9167 64.6386 13.0265 64.6956C13.1355 64.7526 13.1777 64.8307 13.1531 64.9299L12.8555 66.7991L14.3372 65.6151C14.4167 65.5454 14.5046 65.544 14.6017 65.6116C14.6988 65.6784 14.8212 65.836 14.9703 66.0843C15.1146 66.3278 15.1898 66.5086 15.1976 66.6282C15.2053 66.7471 15.1589 66.8245 15.0597 66.8589L13.2945 67.5442L15.059 68.2287Z" fill="#18181B"/>
<path d="M23.9354 68.2287C24.0346 68.2639 24.0804 68.3406 24.0733 68.4595C24.0656 68.5784 23.9903 68.762 23.8461 69.0103C23.7019 69.2587 23.5802 69.4135 23.481 69.4761C23.3818 69.538 23.2924 69.5373 23.2129 69.4725L21.7313 68.2885L22.0289 70.1578C22.0535 70.2619 22.0113 70.3414 21.9022 70.3963C21.7932 70.4512 21.5941 70.4779 21.3063 70.4779C21.0186 70.4779 20.8195 70.4505 20.7105 70.3963C20.6014 70.3414 20.5592 70.2619 20.5838 70.1578L20.8814 68.2885L19.3998 69.4725C19.3252 69.5373 19.2387 69.5373 19.1395 69.4725C19.0403 69.4078 18.9157 69.2516 18.7673 69.0033C18.6231 68.7599 18.5485 68.5791 18.5436 68.4595C18.5387 68.3406 18.583 68.2632 18.678 68.2287L20.4501 67.5435L18.678 66.8582C18.5837 66.8238 18.5387 66.7464 18.5436 66.6275C18.5485 66.5086 18.6231 66.3249 18.7673 66.0766C18.9115 65.8283 19.0339 65.6721 19.136 65.6074C19.238 65.5426 19.3259 65.5454 19.4005 65.6151L20.8821 66.7991L20.5845 64.9299C20.5599 64.8307 20.6021 64.7526 20.7112 64.6956C20.8202 64.6386 21.0186 64.6097 21.3071 64.6097C21.5948 64.6097 21.7932 64.6386 21.9029 64.6956C22.012 64.7526 22.0542 64.8307 22.0296 64.9299L21.732 66.7991L23.2136 65.6151C23.2931 65.5454 23.3811 65.544 23.4781 65.6116C23.5752 65.6784 23.6976 65.836 23.8468 66.0843C23.991 66.3278 24.0663 66.5086 24.074 66.6282C24.0818 66.7471 24.0353 66.8245 23.9361 66.8589L22.171 67.5442L23.9354 68.2287Z" fill="#18181B"/>
<path d="M32.8119 68.2287C32.9111 68.2639 32.9568 68.3406 32.9498 68.4595C32.9421 68.5784 32.8668 68.762 32.7226 69.0103C32.5783 69.2587 32.4566 69.4135 32.3574 69.4761C32.2582 69.538 32.1689 69.5373 32.0894 69.4725L30.6077 68.2885L30.9053 70.1578C30.93 70.2619 30.8878 70.3414 30.7787 70.3963C30.6697 70.4512 30.4706 70.4779 30.1828 70.4779C29.8951 70.4779 29.696 70.4505 29.5869 70.3963C29.4779 70.3414 29.4357 70.2619 29.4603 70.1578L29.7579 68.2885L28.2762 69.4725C28.2017 69.5373 28.1151 69.5373 28.0159 69.4725C27.9167 69.4078 27.7922 69.2516 27.6438 69.0033C27.4995 68.7599 27.425 68.5791 27.42 68.4595C27.4151 68.3406 27.4594 68.2632 27.5544 68.2287L29.3266 67.5435L27.5544 66.8582C27.4601 66.8238 27.4151 66.7464 27.42 66.6275C27.425 66.5086 27.4995 66.3249 27.6438 66.0766C27.788 65.8283 27.9104 65.6721 28.0124 65.6074C28.1144 65.5426 28.2024 65.5454 28.2769 65.6151L29.7586 66.7991L29.461 64.9299C29.4364 64.8307 29.4786 64.7526 29.5876 64.6956C29.6967 64.6386 29.8951 64.6097 30.1835 64.6097C30.4713 64.6097 30.6697 64.6386 30.7794 64.6956C30.8885 64.7526 30.9307 64.8307 30.906 64.9299L30.6085 66.7991L32.0901 65.6151C32.1696 65.5454 32.2575 65.544 32.3546 65.6116C32.4517 65.6784 32.5741 65.836 32.7233 66.0843C32.8675 66.3278 32.9428 66.5086 32.9505 66.6282C32.9582 66.7471 32.9118 66.8245 32.8126 66.8589L31.0475 67.5442L32.8119 68.2287Z" fill="#18181B"/>
<path d="M41.6876 68.2287C41.7868 68.2639 41.8326 68.3406 41.8255 68.4595C41.8178 68.5784 41.7425 68.762 41.5983 69.0103C41.4541 69.2587 41.3324 69.4135 41.2332 69.4761C41.134 69.538 41.0446 69.5373 40.9651 69.4725L39.4835 68.2885L39.7811 70.1578C39.8057 70.2619 39.7635 70.3414 39.6544 70.3963C39.5454 70.4512 39.3463 70.4779 39.0585 70.4779C38.7708 70.4779 38.5717 70.4505 38.4627 70.3963C38.3536 70.3414 38.3114 70.2619 38.336 70.1578L38.6336 68.2885L37.152 69.4725C37.0774 69.5373 36.9909 69.5373 36.8917 69.4725C36.7925 69.4078 36.6679 69.2516 36.5195 69.0033C36.3753 68.7599 36.3007 68.5791 36.2958 68.4595C36.2909 68.3406 36.3352 68.2632 36.4302 68.2287L38.2023 67.5435L36.4302 66.8582C36.3359 66.8238 36.2909 66.7464 36.2958 66.6275C36.3007 66.5086 36.3753 66.3249 36.5195 66.0766C36.6637 65.8283 36.7861 65.6721 36.8882 65.6074C36.9902 65.5426 37.0781 65.5454 37.1527 65.6151L38.6343 66.7991L38.3367 64.9299C38.3121 64.8307 38.3543 64.7526 38.4634 64.6956C38.5724 64.6386 38.7708 64.6097 39.0592 64.6097C39.347 64.6097 39.5454 64.6386 39.6551 64.6956C39.7642 64.7526 39.8064 64.8307 39.7818 64.9299L39.4842 66.7991L40.9658 65.6151C41.0453 65.5454 41.1333 65.544 41.2303 65.6116C41.3274 65.6784 41.4498 65.836 41.599 66.0843C41.7432 66.3278 41.8185 66.5086 41.8262 66.6282C41.834 66.7471 41.7875 66.8245 41.6883 66.8589L39.9232 67.5442L41.6876 68.2287Z" fill="#18181B"/>
</svg>
