<svg width="16" height="16" viewBox="0 0 16 16" fill="none" xmlns="http://www.w3.org/2000/svg">
<path d="M12 5.33331C13.1046 5.33331 14 4.43788 14 3.33331C14 2.22874 13.1046 1.33331 12 1.33331C10.8954 1.33331 10 2.22874 10 3.33331C10 4.43788 10.8954 5.33331 12 5.33331Z" stroke="#18181B" stroke-width="1.33333" stroke-linecap="round" stroke-linejoin="round"/>
<path d="M4 9.99994C5.10457 9.99994 6 9.10451 6 7.99994C6 6.89537 5.10457 5.99994 4 5.99994C2.89543 5.99994 2 6.89537 2 7.99994C2 9.10451 2.89543 9.99994 4 9.99994Z" stroke="#18181B" stroke-width="1.33333" stroke-linecap="round" stroke-linejoin="round"/>
<path d="M12 14.6666C13.1046 14.6666 14 13.7712 14 12.6666C14 11.5621 13.1046 10.6666 12 10.6666C10.8954 10.6666 10 11.5621 10 12.6666C10 13.7712 10.8954 14.6666 12 14.6666Z" stroke="#18181B" stroke-width="1.33333" stroke-linecap="round" stroke-linejoin="round"/>
<path d="M5.72656 9.00665L10.2799 11.66" stroke="#18181B" stroke-width="1.33333" stroke-linecap="round" stroke-linejoin="round"/>
<path d="M10.2732 4.33997L5.72656 6.9933" stroke="#18181B" stroke-width="1.33333" stroke-linecap="round" stroke-linejoin="round"/>
</svg>
