<svg width="16" height="16" viewBox="0 0 16 16" fill="none" xmlns="http://www.w3.org/2000/svg">
<path d="M8.00002 16C12.4184 16 16 12.4184 16 8V2.4C16 1.76348 15.7472 1.15303 15.2971 0.702944C14.847 0.252856 14.2365 0 13.6 0H8.40002V3.5096C8.40002 4.3104 8.44882 5.14 8.86882 5.8216C9.1695 6.31008 9.57172 6.72818 10.0482 7.04752C10.5247 7.36686 11.0643 7.57997 11.6304 7.6724L11.7836 7.6972C11.8468 7.71879 11.9016 7.75959 11.9404 7.81388C11.9792 7.86818 12.0001 7.93325 12.0001 8C12.0001 8.06675 11.9792 8.13182 11.9404 8.18612C11.9016 8.24041 11.8468 8.28121 11.7836 8.3028L11.6304 8.3276C10.8033 8.46272 10.0395 8.85422 9.44687 9.44685C8.85424 10.0395 8.46274 10.8033 8.32762 11.6304L8.30282 11.7836C8.28123 11.8468 8.24043 11.9016 8.18614 11.9404C8.13184 11.9792 8.06677 12.0001 8.00002 12.0001C7.93327 12.0001 7.8682 11.9792 7.8139 11.9404C7.75961 11.9016 7.71881 11.8468 7.69722 11.7836L7.67242 11.6304C7.57997 11.0643 7.36684 10.5247 7.04751 10.0482C6.72817 9.57173 6.31009 9.1695 5.82162 8.8688C5.14002 8.4488 4.31042 8.4 3.50962 8.4H0.00961914C0.218819 12.6324 3.71602 16 8.00002 16Z" fill="#18181B"/>
<path d="M0 7.6H3.5096C4.3104 7.6 5.14 7.5512 5.8216 7.1312C6.35441 6.80292 6.80292 6.35441 7.1312 5.8216C7.5512 5.14 7.6 4.3104 7.6 3.5096V0H2.4C1.76348 0 1.15303 0.252856 0.702944 0.702944C0.252856 1.15303 0 1.76348 0 2.4V7.6Z" fill="#18181B"/>
</svg>
