<svg width="161" height="161" viewBox="0 0 161 161" fill="none" xmlns="http://www.w3.org/2000/svg">
<path d="M154.674 153.851C154.573 153.851 154.475 153.799 154.421 153.704L149.394 144.761H11.8526L6.82538 153.704C6.74698 153.843 6.57098 153.893 6.43178 153.815C6.29258 153.736 6.24298 153.56 6.32138 153.42L11.431 144.33C11.4822 144.239 11.5782 144.183 11.683 144.183H149.563C149.668 144.183 149.764 144.239 149.815 144.33L154.925 153.42C155.004 153.559 154.954 153.735 154.815 153.815C154.77 153.84 154.722 153.851 154.674 153.851Z" fill="#18181B"/>
<path d="M127.331 140.297C127.049 140.297 126.768 140.296 126.487 140.295C125.301 140.291 123.957 140.287 122.727 139.877C121.322 139.409 120.273 138.433 119.919 137.267C119.873 137.114 119.959 136.952 120.112 136.906C120.264 136.859 120.426 136.946 120.473 137.099C120.772 138.085 121.683 138.919 122.91 139.327C124.052 139.707 125.291 139.711 126.489 139.716C129.197 139.725 131.996 139.735 134.589 138.846C136.796 138.089 139.397 136.287 140.076 133.499C140.405 132.148 140.101 130.557 139.281 129.348C138.893 128.777 138.419 128.324 137.887 128.01C137.815 128.608 137.609 129.189 137.181 129.663C136.661 130.241 135.734 130.459 134.926 130.193C134.293 129.985 133.895 129.527 133.837 128.937C133.789 128.456 133.963 128.011 134.34 127.649C134.889 127.122 135.811 126.847 136.634 126.963C136.87 126.997 137.101 127.051 137.326 127.123C137.298 126.748 137.23 126.382 137.149 126.056C136.193 122.182 133.108 118.925 129.291 117.759C129.256 117.749 129.221 117.739 129.185 117.727C129.185 118.081 129.121 118.438 128.939 118.767C128.709 119.184 128.24 119.479 127.745 119.519C127.35 119.55 126.998 119.407 126.777 119.124C126.569 118.86 126.505 118.519 126.594 118.162C126.703 117.728 127.032 117.333 127.433 117.156C127.782 117.002 128.155 116.972 128.516 117.005C128.494 116.909 128.471 116.816 128.447 116.727C126.907 110.956 120.628 106.901 114.733 107.867C114.493 107.907 114.265 107.953 114.048 108.005C114.133 109.42 113.423 111.523 112.286 112.308C111.749 112.679 111.176 112.723 110.629 112.435C110.294 112.258 110.089 111.96 110.033 111.574C109.896 110.62 110.696 109.356 111.308 108.763C111.844 108.243 112.537 107.852 113.408 107.581C113.101 106.023 111.892 104.535 110.187 103.647C109.264 103.166 108.254 102.863 107.222 102.658C107.045 103.047 106.838 103.426 106.605 103.787C106.086 104.589 104.975 105.948 103.354 106.039C102.563 106.083 101.721 105.682 101.21 105.017C100.797 104.479 100.668 103.839 100.857 103.263C101.384 101.662 103.501 101.615 104.716 101.731C105.427 101.798 106.151 101.881 106.871 102.004C107.575 100.212 107.663 98.189 107.08 96.3418C106.826 95.5378 106.501 94.713 106.118 93.9594C105.309 94.4586 104.339 94.6266 103.486 94.3474C102.473 94.0162 101.455 92.6042 101.47 91.5498C101.478 91.0282 101.753 90.649 102.225 90.5098C103.848 90.0314 105.251 91.2682 106.309 93.0914C106.505 92.9066 106.682 92.693 106.829 92.4554C107.433 91.4786 107.578 90.117 107.227 88.7194C106.901 87.4258 106.228 86.2306 105.577 85.0746L97.2229 70.2474C97.1445 70.1082 97.1933 69.9322 97.3333 69.8538C97.4725 69.7754 97.6493 69.8242 97.7269 69.9642L106.081 84.7914C106.751 85.981 107.444 87.2106 107.788 88.5794C108.183 90.1498 108.017 91.6346 107.321 92.7602C107.121 93.085 106.873 93.3706 106.593 93.6122C107.005 94.4082 107.353 95.2866 107.632 96.1682C108.244 98.1058 108.164 100.225 107.449 102.113C108.489 102.327 109.509 102.641 110.454 103.134C112.328 104.11 113.617 105.695 113.968 107.429C114.182 107.379 114.405 107.335 114.638 107.296C120.813 106.281 127.392 110.531 129.005 116.577C129.05 116.745 129.093 116.925 129.126 117.111C129.242 117.14 129.353 117.172 129.46 117.205C133.467 118.429 136.706 121.848 137.711 125.916C137.819 126.352 137.905 126.854 137.916 127.365C138.629 127.723 139.261 128.286 139.759 129.022C140.681 130.382 141.009 132.107 140.637 133.634C140.023 136.156 137.777 138.362 134.776 139.391C132.364 140.221 129.82 140.297 127.331 140.297ZM136.252 127.518C135.686 127.518 135.097 127.727 134.74 128.069C134.492 128.307 134.381 128.58 134.412 128.883C134.459 129.364 134.867 129.567 135.106 129.646C135.61 129.811 136.337 129.738 136.752 129.279C137.133 128.855 137.296 128.307 137.332 127.743C137.081 127.646 136.821 127.577 136.553 127.539C136.455 127.524 136.353 127.518 136.252 127.518ZM128.262 117.575C128.055 117.575 127.852 117.607 127.666 117.688C127.427 117.794 127.221 118.042 127.156 118.304C127.124 118.431 127.112 118.615 127.233 118.77C127.362 118.935 127.558 118.955 127.7 118.945C127.997 118.921 128.298 118.734 128.433 118.489C128.581 118.223 128.62 117.912 128.602 117.599C128.489 117.584 128.375 117.575 128.262 117.575ZM113.477 108.17C112.743 108.411 112.16 108.746 111.71 109.181C111.101 109.771 110.512 110.843 110.605 111.495C110.633 111.699 110.727 111.836 110.897 111.926C111.251 112.112 111.597 112.083 111.957 111.835C112.816 111.243 113.517 109.505 113.477 108.17ZM103.946 102.275C102.999 102.275 101.729 102.467 101.407 103.447C101.231 103.983 101.496 104.442 101.669 104.668C102.061 105.178 102.725 105.495 103.322 105.464C104.687 105.387 105.661 104.186 106.119 103.476C106.311 103.18 106.482 102.871 106.634 102.555C105.977 102.447 105.313 102.372 104.662 102.31C104.472 102.292 104.223 102.275 103.946 102.275ZM102.909 90.9922C102.738 90.9922 102.565 91.017 102.389 91.069C102.233 91.1154 102.053 91.2122 102.049 91.5626C102.037 92.3578 102.899 93.5506 103.666 93.8018C104.369 94.0322 105.173 93.8834 105.845 93.4554C105.042 92.0458 104.029 90.9922 102.909 90.9922Z" fill="#18181B"/>
<path d="M39.9863 28.4482C30.5143 31.1002 25.7031 34.2322 23.4351 36.6882C21.1671 39.1442 19.4167 42.217 19.1359 45.5498C18.8039 49.4962 20.5207 53.281 21.8071 57.0258C23.0935 60.7714 23.9239 65.0946 21.9791 68.5434C19.7663 72.4674 14.6535 74.005 12.3623 77.8826C10.4055 81.1946 10.9991 85.4842 12.6319 88.9674C14.6631 93.301 18.3335 96.9714 22.8935 98.413C27.4535 99.8538 32.8583 98.805 36.1511 95.3338C38.8391 92.5002 39.9375 88.4418 42.6199 85.6026C45.0543 83.0258 48.7383 81.6906 52.2559 82.1098C54.3807 82.3626 56.7703 83.1498 58.4879 81.8722C60.3551 80.4826 60.0839 77.6034 59.2679 75.4218C58.4519 73.2402 57.2647 70.937 57.9303 68.705C58.4399 66.9962 60.0607 65.9234 61.1687 64.5282C68.7719 54.9546 63.9047 53.2098 61.8663 46.1658C59.8279 39.1218 57.2199 30.0986 50.0831 28.4482" fill="#18181B"/>
<path d="M27.0119 99.3339C25.6047 99.3339 24.1815 99.1235 22.8055 98.6891C18.3759 97.2891 14.5719 93.7907 12.3695 89.0907C10.4399 84.9739 10.3439 80.7291 12.1127 77.7363C13.2751 75.7691 15.1503 74.3843 16.9639 73.0451C18.7703 71.7115 20.6383 70.3323 21.7271 68.4011C23.2663 65.6707 23.2031 61.9811 21.5335 57.1195C21.3215 56.5035 21.0983 55.8859 20.8743 55.2667C19.7391 52.1283 18.5655 48.8835 18.8479 45.5251C19.1767 41.6187 21.4079 38.4563 23.2223 36.4915C25.2959 34.2459 29.8743 30.9787 39.9087 28.1691C40.0615 28.1259 40.2223 28.2155 40.2655 28.3699C40.3087 28.5235 40.2191 28.6835 40.0647 28.7267C30.1607 31.4995 25.6703 34.6931 23.6479 36.8843C21.8951 38.7827 19.7399 41.8315 19.4247 45.5739C19.1527 48.8067 20.3047 51.9907 21.4191 55.0699C21.6439 55.6923 21.8687 56.3123 22.0815 56.9315C23.8079 61.9579 23.8567 65.8027 22.2311 68.6851C21.0815 70.7235 19.1631 72.1403 17.3079 73.5099C15.5407 74.8147 13.7135 76.1635 12.6111 78.0299C10.9399 80.8579 11.0455 84.9011 12.8935 88.8451C15.0279 93.3987 18.7047 96.7859 22.9799 98.1379C27.6327 99.6083 32.8415 98.4027 35.9407 95.1355C37.2615 93.7427 38.2159 92.0035 39.1391 90.3219C40.0759 88.6139 41.0455 86.8483 42.4087 85.4051C44.9015 82.7667 48.6863 81.3939 52.2895 81.8235C52.7223 81.8747 53.1711 81.9491 53.6047 82.0211C55.2935 82.3003 57.0399 82.5891 58.3151 81.6411C60.0279 80.3667 59.7903 77.6459 58.9967 75.5235C58.8743 75.1963 58.7439 74.8675 58.6127 74.5355C57.8487 72.6083 57.0591 70.6147 57.6527 68.6227C58.0183 67.3971 58.9143 66.4891 59.7815 65.6107C60.1807 65.2067 60.5935 64.7883 60.9423 64.3491C66.5431 57.2971 65.2983 54.6979 63.4151 50.7643C62.7999 49.4787 62.1015 48.0211 61.5887 46.2467C59.5367 39.1547 56.9863 30.3411 50.0183 28.7299C49.8623 28.6939 49.7655 28.5387 49.8015 28.3827C49.8375 28.2267 49.9927 28.1307 50.1487 28.1659C57.4479 29.8539 60.0503 38.8483 62.1415 46.0755C62.6447 47.8139 63.3311 49.2483 63.9367 50.5139C65.8431 54.4963 67.2199 57.3731 61.3951 64.7083C61.0271 65.1715 60.6031 65.6011 60.1935 66.0163C59.3391 66.8827 58.5311 67.7003 58.2071 68.7875C57.6703 70.5875 58.4231 72.4859 59.1503 74.3219C59.2831 74.6571 59.4151 74.9899 59.5383 75.3203C60.4055 77.6387 60.6303 80.6387 58.6599 82.1043C57.1879 83.1995 55.3183 82.8899 53.5103 82.5915C53.0823 82.5211 52.6407 82.4475 52.2207 82.3979C48.7959 81.9907 45.1983 83.2947 42.8287 85.8027C41.5159 87.1923 40.5647 88.9251 39.6455 90.6011C38.7047 92.3155 37.7319 94.0883 36.3599 95.5347C34.0319 97.9875 30.5735 99.3339 27.0119 99.3339Z" fill="#18181B"/>
<path d="M88.8357 102.738C79.7821 107.024 54.3877 90.5009 54.3877 90.5009L56.9637 70.4041C56.9637 70.4041 62.4541 71.4969 68.7709 75.9289C71.4917 77.8401 78.9117 83.9777 78.9117 83.9777L78.4365 64.9865C78.5229 63.6817 79.2221 62.6193 80.3109 61.7705H80.3133C82.5333 60.0409 86.3709 59.2017 89.9133 58.9905C94.0413 58.7457 97.7701 59.3537 98.0813 60.4089C98.0813 60.4089 96.7893 98.9721 88.8357 102.738Z" fill="white"/>
<path d="M98.3615 65.1993C91.8615 64.3617 82.7495 66.6857 78.6255 67.8889L78.4375 64.9865C78.5239 63.6817 79.2231 62.6193 80.3119 61.7705H80.3143C82.5343 60.0409 86.3719 59.2017 89.9143 58.9905C94.0423 58.7457 97.7711 59.3537 98.0823 60.4089C98.0823 60.4081 98.2391 62.2489 98.3615 65.1993Z" fill="#B1E346"/>
<path d="M85.1175 103.738C74.3423 103.74 55.1488 91.3405 54.2304 90.7429C54.1376 90.6821 54.0872 90.5741 54.1016 90.4637L56.6776 70.3669C56.688 70.2877 56.7304 70.2157 56.7952 70.1685C56.86 70.1221 56.9416 70.1037 57.0208 70.1197C57.076 70.1309 62.6439 71.2749 68.9375 75.6917C71.2303 77.3021 76.9055 81.9501 78.6071 83.3509L78.1479 64.9933C78.2351 63.6533 78.9032 62.5013 80.1336 61.5421C80.1416 61.5357 80.1487 61.5309 80.1575 61.5253C82.1567 59.9797 85.7039 58.9509 89.8967 58.7013C93.7015 58.4749 97.9591 58.9685 98.3591 60.3269C98.3679 60.3565 98.372 60.3877 98.3712 60.4181C98.3184 61.9997 96.98 99.2005 88.96 102.998C87.8776 103.511 86.5735 103.738 85.1175 103.738ZM54.6984 90.3557C56.8216 91.7125 80.2672 106.474 88.712 102.475C96.2808 98.8909 97.7296 62.1045 97.7904 60.4525C97.4904 59.7725 94.4264 59.0109 89.9304 59.2781C85.8368 59.5221 82.396 60.5133 80.4912 61.9981C80.484 62.0037 80.4759 62.0093 80.4687 62.0141C79.3871 62.8637 78.8 63.8701 78.7256 65.0053L79.2016 83.9701C79.2048 84.0837 79.1407 84.1877 79.0391 84.2373C78.9375 84.2869 78.8159 84.2725 78.7287 84.1997C78.6543 84.1381 71.2872 78.0477 68.6064 76.1645C63.2504 72.4061 58.4416 71.0581 57.212 70.7565L54.6984 90.3557Z" fill="#18181B"/>
<path d="M58.0577 70.7256C53.2049 69.1376 45.5809 68.9656 41.3297 69.1C33.4825 69.348 22.5161 69.6512 18.6017 76.6672C12.2785 88.0016 12.8441 134.878 15.1825 144.471H72.3417L69.2441 114.993C69.2441 114.993 74.8497 107.421 72.7841 100.854C70.6409 94.0392 65.9249 93.552 65.9249 93.552C65.9249 93.552 65.7393 87.1456 64.6665 81.2608" fill="white"/>
<path d="M72.3421 144.761H15.1829C15.0493 144.761 14.9333 144.67 14.9021 144.54C13.6733 139.498 13.0077 125.17 13.3549 111.215C13.6053 101.154 14.5869 83.2704 18.3493 76.5264C22.3189 69.4104 33.2173 69.0664 41.1749 68.8152L41.3205 68.8104C46.5285 68.6448 53.6861 68.9904 58.1477 70.4504C58.2997 70.5 58.3821 70.6632 58.3325 70.8152C58.2829 70.9672 58.1205 71.0504 57.9677 71C53.5773 69.5632 46.4989 69.2248 41.3389 69.388L41.1933 69.3928C33.3741 69.6392 22.6653 69.9776 18.8549 76.8072C12.7509 87.748 13.0517 133.846 15.4125 144.182H72.0213L68.9572 115.022C68.95 114.95 68.9693 114.878 69.0125 114.82C69.0677 114.746 74.5061 107.288 72.5093 100.94C70.4549 94.4056 65.9405 93.8448 65.8957 93.84C65.7517 93.8248 65.6412 93.7048 65.6372 93.5608C65.6356 93.4968 65.4397 87.1072 64.3837 81.3128C64.3549 81.156 64.4588 81.0048 64.6164 80.976C64.774 80.948 64.9245 81.0512 64.9533 81.2088C65.9013 86.4104 66.1613 92.0832 66.2077 93.3048C67.2445 93.5088 71.1453 94.6712 73.0621 100.766C75.0485 107.083 70.2093 114.145 69.5453 115.072L72.6309 144.44C72.6397 144.522 72.6133 144.603 72.5581 144.664C72.5021 144.726 72.4237 144.761 72.3421 144.761Z" fill="#18181B"/>
<path d="M50.44 117.009C50.44 117.009 56.5728 112.113 58.6048 112.865C60.6368 113.617 57.1872 117.399 57.1872 117.399C57.1872 117.399 66.1568 114.696 66.9816 116.06C67.8064 117.423 62.6096 118.998 62.6096 118.998C62.6096 118.998 67.2344 118.861 68.0552 119.681C68.876 120.502 68.0264 121.52 67.096 121.72C67.096 121.72 69.1 123.096 66.948 124.255C66.948 124.255 68.2144 125.317 66.2064 126.229C64.1984 127.141 59.7384 127.681 58.2032 127.658C54.6088 127.606 51.2288 126.427 51.2288 126.427C49.932 124.04 48.4304 119.605 50.44 117.009Z" fill="white"/>
<path d="M58.2878 127.947C58.2574 127.947 58.2278 127.947 58.1998 127.946C54.5998 127.894 51.2742 126.747 51.1342 126.698C51.0662 126.674 51.0094 126.626 50.9758 126.563C49.3958 123.659 48.2478 119.368 50.2118 116.831C50.2254 116.813 50.2422 116.797 50.2598 116.783C50.9006 116.271 56.5806 111.807 58.7054 112.592C59.1278 112.748 59.4014 113.038 59.4966 113.43C59.7414 114.435 58.7326 115.945 58.0238 116.851C60.8054 116.056 66.4574 114.631 67.2294 115.908C67.3766 116.151 67.3998 116.423 67.2966 116.691C66.9918 117.486 65.5094 118.222 64.3014 118.706C65.7766 118.744 67.6926 118.908 68.2606 119.475C68.6302 119.844 68.7598 120.299 68.6254 120.753C68.4958 121.191 68.1254 121.589 67.6582 121.823C67.9398 122.114 68.2614 122.566 68.2326 123.092C68.2078 123.555 67.9254 123.968 67.3934 124.324C67.5342 124.529 67.671 124.827 67.623 125.177C67.5526 125.69 67.1174 126.132 66.3278 126.491C64.279 127.422 59.8334 127.947 58.2878 127.947ZM51.4294 126.187C52.0246 126.383 55.0526 127.322 58.2078 127.368C59.6174 127.393 64.0726 126.88 66.087 125.965C66.6734 125.699 67.0054 125.4 67.0478 125.103C67.0958 124.767 66.7638 124.478 66.7606 124.475C66.6886 124.412 66.6502 124.318 66.6606 124.223C66.671 124.129 66.7262 124.044 66.8102 123.999C67.351 123.708 67.635 123.394 67.6534 123.064C67.6806 122.586 67.1406 122.103 66.931 121.958C66.8366 121.892 66.7894 121.776 66.8118 121.663C66.8342 121.551 66.9214 121.461 67.0342 121.437C67.5118 121.335 67.9566 120.971 68.0686 120.591C68.1422 120.343 68.0686 120.105 67.8494 119.887C67.3166 119.354 64.3574 119.235 62.6174 119.288C62.4718 119.287 62.347 119.189 62.323 119.046C62.2998 118.903 62.3854 118.764 62.5246 118.723C64.0006 118.275 66.4534 117.272 66.755 116.487C66.7942 116.384 66.7878 116.301 66.7334 116.211C66.2958 115.487 61.4806 116.409 57.2702 117.677C57.1462 117.715 57.0118 117.664 56.9422 117.555C56.8726 117.444 56.8854 117.302 56.9734 117.206C57.5982 116.52 59.1686 114.531 58.9342 113.57C58.903 113.441 58.8238 113.256 58.5046 113.138C56.9742 112.571 52.3422 115.868 50.6478 117.216C48.9054 119.506 49.9662 123.451 51.4294 126.187Z" fill="#18181B"/>
<path d="M62.7309 122.155C62.5757 122.155 62.4469 122.032 62.4421 121.875C62.4365 121.716 62.5621 121.581 62.7213 121.577L67.0853 121.429C67.2517 121.418 67.3789 121.549 67.3845 121.709C67.3901 121.868 67.2645 122.002 67.1053 122.007L62.7413 122.154C62.7381 122.155 62.7349 122.155 62.7309 122.155Z" fill="#18181B"/>
<path d="M62.5577 124.575C62.3993 124.575 62.2697 124.447 62.2681 124.288C62.2673 124.128 62.3953 123.998 62.5553 123.997L66.9457 123.965C67.1089 123.96 67.2361 124.092 67.2369 124.252C67.2377 124.412 67.1097 124.543 66.9497 124.543L62.5593 124.575C62.5593 124.575 62.5585 124.575 62.5577 124.575Z" fill="#18181B"/>
<path d="M28.7464 89.7342C28.6944 93.8558 23.4272 114.801 23.4272 114.801L45 114.633L48.7144 114.605C52.816 114.665 54.3896 128.093 49.9584 129.573C49.8944 129.597 48.1704 129.906 45.4664 130.291C36.5888 131.558 14.8408 133.095 8.91444 128.438C3.35204 124.068 7.88084 101.591 11.4408 89.5022C15.8432 74.5534 22.8376 72.3838 22.8376 72.3838" fill="white"/>
<path d="M49.9576 129.573C49.8936 129.596 48.1696 129.906 45.4656 130.291C47.0944 125.206 45.7176 117.769 45 114.633L48.7144 114.604C52.8152 114.665 54.3888 128.092 49.9576 129.573Z" fill="#B1E346"/>
<path d="M26.5672 131.88C19.1328 131.88 11.8696 131.129 8.73443 128.665C2.86882 124.057 7.75763 100.979 11.1624 89.4206C15.5584 74.495 22.4592 72.1982 22.7512 72.1078C22.9032 72.0606 23.0656 72.1454 23.1128 72.2982C23.16 72.451 23.0752 72.6126 22.9224 72.6598C22.8544 72.6814 16.0136 74.995 11.7176 89.5838C7.80483 102.865 3.87762 124.113 9.09203 128.21C14.7712 132.673 36.0224 131.345 45.4248 130.004C48.0216 129.635 49.7368 129.33 49.8784 129.295C52.092 128.555 52.6928 124.285 52.1288 120.644C51.688 117.8 50.4592 114.919 48.7096 114.893L23.4288 115.09C23.336 115.079 23.2544 115.05 23.1992 114.98C23.144 114.909 23.124 114.817 23.1464 114.73C23.1992 114.521 28.4064 93.771 28.4568 89.7302C28.4584 89.5702 28.588 89.431 28.7496 89.4446C28.9096 89.4462 29.0368 89.5774 29.0352 89.7374C28.9864 93.5958 24.52 111.62 23.7976 114.509L48.7112 114.314C50.9472 114.347 52.2568 117.697 52.7 120.555C53.316 124.526 52.6032 128.993 50.0496 129.847C49.9432 129.886 48.0568 130.214 45.5064 130.577C41.7224 131.117 34.0584 131.88 26.5672 131.88Z" fill="#18181B"/>
<path d="M75.0398 26.2691C88.3766 30.2107 105.789 59.4995 101.545 72.7427C100.011 77.5283 91.2414 79.9219 91.2414 79.9219L83.0342 64.8283L87.8926 62.1867C89.5382 61.2923 90.4134 59.4307 90.051 57.5931C89.0182 52.3539 86.611 47.8843 82.7974 44.2003C81.443 42.8915 79.4038 42.5955 77.7494 43.4947L72.875 46.1451L64.667 31.0499C64.667 31.0515 70.5014 24.9283 75.0398 26.2691Z" fill="white"/>
<path d="M91.2405 80.2118C91.1365 80.2118 91.0381 80.1558 90.9861 80.0606L82.7789 64.967C82.7421 64.8998 82.7341 64.8206 82.7557 64.747C82.7773 64.6734 82.8277 64.6118 82.8949 64.575L87.7533 61.9334C89.2973 61.0942 90.1061 59.3726 89.7661 57.6502C88.7461 52.475 86.3333 48.0206 82.5957 44.4102C81.3205 43.1782 79.4277 42.9134 77.8869 43.751L73.0125 46.4014C72.9453 46.4382 72.8661 46.4462 72.7925 46.4246C72.7189 46.403 72.6573 46.3526 72.6205 46.2854L64.4125 31.1902C64.3525 31.0798 64.3709 30.9438 64.4573 30.8526C64.7005 30.5974 70.4661 24.6174 75.1213 25.9934C81.8973 27.9958 90.4821 36.9638 96.4845 48.3094C101.63 58.035 103.624 67.2022 101.819 72.8326C100.255 77.7118 91.6805 80.103 91.3165 80.203C91.2917 80.2086 91.2661 80.2118 91.2405 80.2118ZM83.4261 64.9454L91.3837 79.5798C92.7373 79.1718 99.9333 76.8222 101.268 72.655C103.027 67.1694 101.048 58.1694 95.9733 48.579C90.0389 37.3622 81.5933 28.5086 74.9573 26.547C71.0269 25.3854 65.9485 30.1838 65.0229 31.1022L72.9901 45.755L77.6101 43.243C79.3741 42.283 81.5389 42.5854 82.9973 43.9942C86.8221 47.6886 89.2901 52.2462 90.3333 57.539C90.7221 59.511 89.7965 61.4822 88.0293 62.4422L83.4261 64.9454Z" fill="#18181B"/>
<path d="M72.8735 46.1456C74.973 45.0039 74.8373 40.6993 72.5705 36.531C70.3038 32.3627 66.7642 29.9092 64.6647 31.0509C62.5652 32.1926 62.7009 36.4972 64.9677 40.6655C67.2344 44.8338 70.774 47.2874 72.8735 46.1456Z" fill="#FFEDD5"/>
<path d="M71.7104 46.7211C69.5048 46.7211 66.6784 44.4163 64.7152 40.8051C63.5976 38.7499 62.9504 36.5939 62.892 34.7331C62.8312 32.8019 63.4128 31.4043 64.5296 30.7971C65.6456 30.1899 67.1352 30.4619 68.7232 31.5627C70.2528 32.6235 71.7112 34.3387 72.828 36.3939C75.2072 40.7691 75.2888 45.1643 73.0144 46.4011C72.616 46.6179 72.1768 46.7211 71.7104 46.7211ZM65.8256 31.0595C65.4512 31.0595 65.1088 31.1411 64.8048 31.3059C63.8904 31.8035 63.416 33.0139 63.4696 34.7155C63.5256 36.4875 64.148 38.5515 65.2232 40.5291C67.4104 44.5507 70.7808 46.9563 72.7368 45.8939C74.6928 44.8299 74.5056 40.6931 72.3184 36.6707C71.2432 34.6939 69.8488 33.0483 68.392 32.0387C67.4584 31.3907 66.5792 31.0595 65.8256 31.0595Z" fill="#18181B"/>
<path d="M91.013 79.9298C93.0143 78.8415 92.7991 74.5802 90.5323 70.4119C88.2655 66.2436 84.8056 63.7468 82.8043 64.8351C80.803 65.9234 81.0183 70.1847 83.285 74.353C85.5518 78.5213 89.0118 81.0182 91.013 79.9298Z" fill="#FFEDD5"/>
<path d="M89.9565 80.4791C87.8181 80.4791 85.0141 78.1359 83.0333 74.4935C81.9165 72.4399 81.2509 70.2959 81.1581 68.4559C81.0613 66.5407 81.5981 65.1655 82.6693 64.5831C83.7405 64.0007 85.1861 64.2983 86.7413 65.4199C88.2357 66.4983 89.6733 68.2231 90.7893 70.2759C93.1685 74.6503 93.3285 79.0039 91.1541 80.1863C90.7893 80.3839 90.3861 80.4791 89.9565 80.4791ZM83.8645 64.8695C83.5269 64.8695 83.2173 64.9431 82.9445 65.0911C82.0797 65.5615 81.6501 66.7455 81.7349 68.4263C81.8237 70.1815 82.4645 72.2383 83.5405 74.2167C85.6901 78.1695 89.0493 80.6711 90.8765 79.6783C92.7029 78.6855 92.4301 74.5063 90.2797 70.5527C89.2037 68.5743 87.8261 66.9175 86.4013 65.8895C85.4685 65.2143 84.5981 64.8695 83.8645 64.8695Z" fill="#18181B"/>
<path d="M90.0999 58.9357L89.9136 58.9901C86.3712 59.2013 82.5328 60.0413 80.3136 61.7701H80.3111C80.3111 61.7701 76.9815 50.0181 77.2519 47.0045C77.5223 43.9909 81.0264 36.2925 82.7832 37.2685C85.1776 38.5981 83.9544 45.4477 83.9544 45.4477C83.9544 45.4477 89.8071 51.3981 90.0999 58.9357Z" fill="white"/>
<path d="M80.3135 62.0597C80.1839 62.0597 80.0679 61.9741 80.0327 61.8493C79.8959 61.3677 76.6919 50.0117 76.9631 46.9789C77.2031 44.3037 79.8743 38.1069 81.8471 37.0613C82.3367 36.8013 82.7023 36.8933 82.9231 37.0149C85.2959 38.3325 84.4327 44.3141 84.2631 45.3533C85.0543 46.2045 90.1167 51.9189 90.3887 58.9237C90.3943 59.0565 90.3087 59.1749 90.1807 59.2125L89.9943 59.2669C89.9735 59.2733 89.9519 59.2765 89.9303 59.2781C85.8367 59.5221 82.3959 60.5133 80.4911 61.9981C80.4407 62.0381 80.3783 62.0597 80.3135 62.0597ZM82.4567 37.4725C82.3735 37.4725 82.2623 37.4957 82.1183 37.5725C80.4655 38.4477 77.7791 44.3573 77.5399 47.0301C77.3055 49.6469 79.9015 59.2109 80.4775 61.2909C82.5063 59.8877 85.8639 58.9533 89.7991 58.7069C89.4015 51.4845 83.8047 45.7077 83.7471 45.6501C83.6815 45.5829 83.6519 45.4885 83.6687 45.3965C83.9983 43.5477 84.4567 38.5285 82.6423 37.5205C82.6143 37.5053 82.5551 37.4725 82.4567 37.4725Z" fill="#18181B"/>
<path d="M98.2585 56.8707C100.942 56.3309 102.869 54.6569 102.562 53.1318C102.256 51.6066 99.8314 50.8079 97.1476 51.3477C94.4638 51.8876 92.5368 53.5616 92.8435 55.0867C93.1503 56.6118 95.5747 57.4106 98.2585 56.8707Z" fill="white"/>
<path d="M96.6029 57.3255C95.8709 57.3255 95.1789 57.2247 94.5709 57.0247C93.4453 56.6535 92.7317 55.9847 92.5621 55.1407C92.3925 54.2967 92.7917 53.4039 93.6861 52.6263C94.5357 51.8879 95.7453 51.3319 97.0917 51.0607C98.4381 50.7895 99.7685 50.8351 100.838 51.1871C101.964 51.5583 102.677 52.2271 102.847 53.0711C103.016 53.9151 102.617 54.8079 101.723 55.5855C100.873 56.3239 99.6637 56.8799 98.3173 57.1511C97.7365 57.2671 97.1581 57.3255 96.6029 57.3255ZM98.8069 51.4639C98.2901 51.4639 97.7501 51.5183 97.2053 51.6279C95.9557 51.8791 94.8405 52.3887 94.0645 53.0623C93.3333 53.6975 93.0013 54.3943 93.1277 55.0255C93.2549 55.6567 93.8309 56.1711 94.7509 56.4743C95.7269 56.7959 96.9525 56.8343 98.2021 56.5831C99.4517 56.3319 100.567 55.8223 101.343 55.1487C102.074 54.5135 102.406 53.8167 102.28 53.1855C102.152 52.5543 101.576 52.0399 100.656 51.7367C100.106 51.5551 99.4765 51.4639 98.8069 51.4639Z" fill="#18181B"/>
<path d="M96.4522 53.8603C99.4487 53.2576 101.629 51.5326 101.322 50.0075C101.016 48.4824 98.3378 47.7346 95.3412 48.3374C92.3447 48.9401 90.1642 50.6651 90.471 52.1902C90.7778 53.7153 93.4556 54.4631 96.4522 53.8603Z" fill="white"/>
<path d="M94.4184 54.3549C93.6824 54.3549 92.9896 54.2693 92.376 54.0981C91.136 53.7517 90.3592 53.0933 90.188 52.2437C89.8448 50.5365 92.0832 48.6941 95.2848 48.0501C96.7776 47.7493 98.2456 47.7645 99.4192 48.0917C100.659 48.4381 101.436 49.0965 101.607 49.9461C101.95 51.6533 99.712 53.4957 96.5104 54.1397C95.7976 54.2829 95.0904 54.3549 94.4184 54.3549ZM97.3784 48.4125C96.7448 48.4125 96.076 48.4805 95.3992 48.6165C92.612 49.1773 90.4856 50.7853 90.756 52.1285C90.8816 52.7541 91.5128 53.2549 92.532 53.5397C93.6192 53.8429 94.9912 53.8541 96.3968 53.5717C99.184 53.0109 101.31 51.4029 101.04 50.0597C100.914 49.4341 100.283 48.9333 99.264 48.6485C98.7008 48.4917 98.0608 48.4125 97.3784 48.4125Z" fill="#18181B"/>
<path d="M94.2485 50.6773C97.557 50.0118 99.9644 48.1075 99.6258 46.4238C99.2871 44.7402 96.3306 43.9147 93.0221 44.5802C89.7137 45.2457 87.3063 47.15 87.6449 48.8337C87.9836 50.5174 90.9401 51.3428 94.2485 50.6773Z" fill="white"/>
<path d="M92.003 51.1933C91.1934 51.1933 90.4302 51.099 89.7566 50.911C88.399 50.5318 87.5494 49.8134 87.363 48.887C87.1766 47.9606 87.683 46.9685 88.7878 46.0941C89.8382 45.2629 91.3222 44.623 92.9662 44.2926C96.483 43.5846 99.5342 44.4942 99.9102 46.363C100.286 48.2318 97.8246 50.2494 94.307 50.9574C93.5222 51.115 92.743 51.1933 92.003 51.1933ZM95.2462 44.6389C94.559 44.6389 93.8262 44.7094 93.0798 44.8598C91.5238 45.1726 90.127 45.7726 89.1462 46.5478C88.2206 47.2806 87.7886 48.0702 87.9294 48.7726C88.071 49.475 88.7742 50.0365 89.9118 50.3533C91.1158 50.6893 92.6358 50.7021 94.1926 50.3893C97.2862 49.7669 99.6446 47.975 99.343 46.4766C99.1142 45.339 97.4078 44.6389 95.2462 44.6389Z" fill="#18181B"/>
<path d="M92.92 46.1074C95.9165 45.5047 98.097 43.7797 97.7902 42.2546C97.4834 40.7294 94.8056 39.9817 91.809 40.5844C88.8125 41.1872 86.632 42.9121 86.9388 44.4373C87.2455 45.9624 89.9234 46.7101 92.92 46.1074Z" fill="white"/>
<path d="M90.8864 46.602C90.1504 46.602 89.4568 46.5164 88.844 46.3452C87.604 45.9988 86.8272 45.3404 86.656 44.4908C86.4848 43.6412 86.9472 42.7332 87.956 41.9348C88.9112 41.1796 90.2592 40.598 91.752 40.2972C93.2448 39.9964 94.7136 40.0116 95.8856 40.3388C97.1256 40.6852 97.9024 41.3436 98.0736 42.1932C98.2448 43.0428 97.7824 43.9508 96.7736 44.7492C95.8184 45.5044 94.4704 46.086 92.9776 46.3868C92.2656 46.53 91.5584 46.602 90.8864 46.602ZM93.8464 40.6604C93.2136 40.6604 92.544 40.7284 91.8672 40.8644C90.4616 41.1468 89.2008 41.6884 88.316 42.3884C87.4856 43.0452 87.0984 43.7516 87.224 44.3764C87.3496 45.002 87.9808 45.5028 89 45.7876C90.0864 46.0908 91.4592 46.102 92.864 45.8196C94.2696 45.5372 95.5304 44.9956 96.4152 44.2956C97.2456 43.6388 97.6328 42.9324 97.5072 42.3076C97.3816 41.682 96.7504 41.1812 95.7312 40.8964C95.168 40.7388 94.528 40.6604 93.8464 40.6604Z" fill="#18181B"/>
<path d="M52.1844 81.8185C49.0556 82.2497 46.2516 77.8985 46.2516 77.8985C46.2516 77.8985 44.4316 70.9729 43.874 69.0361C46.7748 69.2273 49.6948 69.6049 52.4852 70.1649C53.7636 73.6569 54.7044 81.4689 52.1844 81.8185Z" fill="#B1E346"/>
<path d="M51.7405 82.1373C48.6765 82.1373 46.1205 78.2293 46.0077 78.0549C45.9909 78.0293 45.9789 78.0013 45.9709 77.9717C45.9525 77.9021 44.1453 71.0277 43.5949 69.1149C43.5685 69.0245 43.5885 68.9269 43.6477 68.8533C43.7069 68.7797 43.7981 68.7381 43.8917 68.7461C46.8573 68.9421 49.7677 69.3237 52.5405 69.8805C52.6389 69.9005 52.7205 69.9701 52.7549 70.0645C53.8653 73.0981 54.6885 79.1093 53.3973 81.2565C53.0997 81.7517 52.7045 82.0365 52.2221 82.1037C52.0621 82.1269 51.9005 82.1373 51.7405 82.1373ZM46.5189 77.7781C46.7973 78.1917 49.3877 81.9141 52.1453 81.5309C52.4493 81.4885 52.6981 81.3013 52.9037 80.9589C54.0469 79.0565 53.3237 73.4213 52.2685 70.4157C49.6965 69.9061 47.0069 69.5493 44.2645 69.3517C44.8845 71.5685 46.3685 77.2069 46.5189 77.7781Z" fill="#18181B"/>
<path d="M46.2521 77.8983C46.2521 77.8983 45.6409 84.9575 42.0481 84.8735C36.3457 84.7383 30.0905 74.4799 30.0513 69.5327C32.4505 69.1047 35.2193 69.1696 38.0185 69.1104L39.4937 70.8904L46.2521 77.8983Z" fill="#B1E346"/>
<path d="M42.1127 85.1625C42.0887 85.1625 42.0647 85.1625 42.0399 85.1617C35.9855 85.0185 29.7991 74.3561 29.7607 69.5337C29.7599 69.3929 29.8599 69.2713 29.9991 69.2465C31.9447 68.8993 34.0855 68.8729 36.3511 68.8449C36.9015 68.8385 37.4559 68.8313 38.0111 68.8193C38.1007 68.8217 38.1839 68.8561 38.2399 68.9241L39.7151 70.7041L46.4591 77.6969C46.5175 77.7569 46.5463 77.8393 46.5391 77.9225C46.5143 78.2201 45.8687 85.1625 42.1127 85.1625ZM30.3463 69.7745C30.5823 74.8561 36.8031 84.4593 42.0543 84.5833C45.0759 84.6449 45.8455 78.9393 45.9503 78.0017L39.2855 71.0897L37.8847 69.4017C37.3743 69.4121 36.8655 69.4177 36.3591 69.4241C34.2135 69.4505 32.1815 69.4753 30.3463 69.7745Z" fill="#18181B"/>
<path d="M35.1504 57.8954C35.1504 57.8954 35.4624 65.9906 34.0728 69.2538C34.0728 69.2538 39.0536 77.8874 46.2504 77.8986C51.2352 77.9058 49.4184 69.989 49.4184 69.989C49.4184 69.989 49.0752 63.961 51.6632 60.7018C54.252 57.4426 35.1504 57.8954 35.1504 57.8954Z" fill="white"/>
<path d="M46.2584 78.1874C46.256 78.1874 46.2536 78.1874 46.2504 78.1874C38.9696 78.1762 34.0296 69.7562 33.8224 69.3978C33.7768 69.3194 33.7712 69.2234 33.8072 69.1402C35.156 65.973 34.8648 57.9866 34.8616 57.9058C34.8584 57.8282 34.8864 57.753 34.94 57.697C34.9928 57.6402 35.0664 57.6074 35.144 57.6058C36.7528 57.5666 50.896 57.3026 52.0968 59.7154C52.2232 59.9698 52.2904 60.3778 51.8904 60.881C49.4784 63.9186 49.688 69.5434 49.7064 69.949C49.7992 70.3666 50.7264 74.7826 48.9744 76.9786C48.3344 77.7802 47.4208 78.1874 46.2584 78.1874ZM34.396 69.2282C35.0304 70.2626 39.7632 77.5986 46.2512 77.6082C46.2536 77.6082 46.256 77.6082 46.2584 77.6082C47.2496 77.6082 47.9904 77.2842 48.5224 76.6178C50.1488 74.5794 49.1472 70.0977 49.1376 70.0529C49.1336 70.0369 49.132 70.021 49.1304 70.005C49.116 69.7546 48.8112 63.829 51.4376 60.5218C51.692 60.2018 51.6096 60.0361 51.5792 59.9737C50.8112 58.4305 41.4048 58.0554 35.4496 58.1778C35.4912 59.6626 35.6008 66.1938 34.396 69.2282Z" fill="#18181B"/>
<path d="M35.4782 58.6152C35.4782 58.6152 35.395 58.5888 35.2502 58.5384V58.5352C34.1598 58.1408 29.5734 56.224 30.6878 52.2632C31.947 47.7744 36.9894 50.1448 36.9894 50.1448C36.9894 50.1448 38.983 34.0936 50.1022 34.0576C51.7054 34.052 53.2814 35.2368 54.6942 37.1384C59.9086 44.16 62.827 61.4256 56.7214 64.6784C51.4534 67.4848 45.4038 64.764 41.4486 62.7472" fill="white"/>
<path d="M51.7336 66.182C48.1784 66.182 44.5696 64.6628 41.3168 63.0052C41.1744 62.9324 41.1176 62.758 41.1904 62.6164C41.2632 62.474 41.4368 62.418 41.5792 62.49C46.288 64.8908 51.7528 66.998 56.5848 64.4236C57.968 63.6868 58.9312 62.1508 59.4464 59.8588C60.852 53.6116 58.4288 42.654 54.4616 37.3116C53.02 35.3716 51.5168 34.3468 50.1128 34.3468C50.1096 34.3468 50.1056 34.3468 50.1024 34.3468C39.368 34.3812 37.2952 50.022 37.276 50.1804C37.2648 50.2724 37.2096 50.3532 37.1288 50.398C37.048 50.4428 36.9504 50.446 36.8664 50.4068C36.8424 50.3956 34.4544 49.2964 32.6808 50.1084C31.852 50.4884 31.2752 51.2396 30.9656 52.3412C29.912 56.0892 34.4312 57.9316 35.348 58.2628C35.3592 58.2668 35.3704 58.2716 35.3816 58.2772C35.4984 58.3172 35.5648 58.3388 35.5664 58.3396C35.7184 58.3884 35.8016 58.5516 35.7528 58.7036C35.704 58.8556 35.5408 58.9396 35.3888 58.89C35.3888 58.89 35.304 58.8628 35.1544 58.8108C35.14 58.806 35.1264 58.7996 35.1136 58.7932C34.0336 58.3964 29.2304 56.3748 30.4088 52.1844C30.7664 50.9108 31.4504 50.0348 32.4424 49.5812C34.0424 48.8492 35.9728 49.4348 36.7576 49.7348C36.9336 48.638 37.5608 45.2964 39.1144 41.9908C41.636 36.626 45.4352 33.7828 50.1008 33.7676C50.1048 33.7676 50.1096 33.7676 50.1136 33.7676C51.708 33.7676 53.3712 34.8732 54.9264 36.966C58.9752 42.418 61.4464 53.6052 60.0112 59.9852C59.4568 62.4484 58.396 64.114 56.8568 64.9332C55.1944 65.8188 53.4704 66.182 51.7336 66.182Z" fill="#18181B"/>
<path d="M54.6937 37.1378C51.5441 40.8082 42.5705 41.6258 41.1249 42.6306C39.3089 43.8898 40.9737 52.917 39.6113 52.7154C38.2513 52.5138 36.9897 50.1442 36.9897 50.1442C36.9897 50.1442 31.9473 47.7738 30.6881 52.2626C29.5737 56.2234 34.1601 58.1402 35.2505 58.5346V58.5378C35.2505 58.5378 35.5321 61.9706 29.5321 59.6514C23.5297 57.3314 19.0889 42.0746 30.5129 33.0474C40.7337 24.9746 54.8921 27.0482 55.7489 33.7258C55.9233 35.0818 55.5001 36.2018 54.6937 37.1378Z" fill="#18181B"/>
<path d="M32.9847 60.7456C32.0375 60.7456 30.8495 60.4704 29.4279 59.9208C26.5031 58.7904 24.0591 54.86 23.3455 50.1408C22.8671 46.9712 22.5887 38.94 30.3335 32.82C37.3591 27.2704 46.2703 26.5024 51.4407 28.6128C54.1239 29.7072 55.7559 31.5104 56.0351 33.6888C56.2087 35.036 55.8312 36.26 54.9128 37.3272C52.7152 39.888 47.7584 41.0992 44.4776 41.9008C42.9928 42.2632 41.7103 42.5768 41.2895 42.8688C40.4399 43.4576 40.4695 46.5128 40.4911 48.7432C40.5143 51.0968 40.5031 52.4488 40.0207 52.8688C39.8919 52.9808 39.7343 53.028 39.5679 53.0024C38.2239 52.8032 37.0383 50.8248 36.7823 50.3696C36.3439 50.184 34.2663 49.3816 32.6799 50.108C31.8511 50.488 31.2743 51.2392 30.9647 52.3408C29.9111 56.0888 34.4303 57.9312 35.3471 58.2624C35.4615 58.304 35.5383 58.4128 35.5383 58.5344C35.5407 58.5576 35.6159 59.5992 34.7399 60.2528C34.3023 60.5816 33.7151 60.7456 32.9847 60.7456ZM45.2824 28.1056C40.7031 28.1056 35.2903 29.6424 30.6927 33.2736C23.1863 39.2056 23.4543 46.9848 23.9183 50.0536C24.5911 54.504 26.9423 58.3392 29.6367 59.3808C32.5191 60.4952 33.8119 60.2208 34.3895 59.7936C34.8351 59.464 34.9375 58.9872 34.9583 58.7328C33.6383 58.22 29.2807 56.196 30.4095 52.1832C30.7671 50.9096 31.4511 50.0336 32.4431 49.58C34.4615 48.6568 37.0055 49.8312 37.1127 49.8816C37.1695 49.908 37.2159 49.952 37.2447 50.0072C37.5775 50.6304 38.6583 52.2816 39.6535 52.4288C39.9471 52.232 39.9271 50.1352 39.9135 48.7472C39.8871 45.9984 39.8591 43.1552 40.9599 42.392C41.4687 42.0384 42.6735 41.744 44.3407 41.3368C47.5487 40.5528 52.3975 39.3688 54.4743 36.948C55.2919 35.9976 55.6152 34.9552 55.4616 33.7608C55.2096 31.7976 53.7048 30.1592 51.2224 29.1464C49.5728 28.4752 47.5272 28.1056 45.2824 28.1056Z" fill="#18181B"/>
<path d="M49.0894 50.7474C49.5907 50.576 49.8156 49.9066 49.5919 49.2523C49.3681 48.5981 48.7804 48.2067 48.2792 48.3781C47.7779 48.5495 47.553 49.2189 47.7767 49.8731C48.0005 50.5274 48.5882 50.9188 49.0894 50.7474Z" fill="#18181B"/>
<path d="M54.8306 47.9817C55.3319 47.8103 55.5569 47.141 55.3331 46.4867C55.1094 45.8325 54.5216 45.441 54.0204 45.6125C53.5191 45.7839 53.2942 46.4532 53.5179 47.1075C53.7417 47.7617 54.3294 48.1532 54.8306 47.9817Z" fill="#18181B"/>
<path d="M48.5303 45.7805C48.5303 45.7805 46.6455 45.3021 45.3247 47.4925Z" fill="white"/>
<path d="M45.3249 47.7811C45.2737 47.7811 45.2225 47.7675 45.1761 47.7395C45.0393 47.6571 44.9953 47.4795 45.0777 47.3427C46.4929 44.9955 48.5809 45.4947 48.6025 45.5003C48.7577 45.5395 48.8513 45.6971 48.8113 45.8515C48.7721 46.0059 48.6161 46.1011 48.4609 46.0611C48.3857 46.0427 46.7577 45.6771 45.5729 47.6411C45.5185 47.7315 45.4233 47.7811 45.3249 47.7811Z" fill="#18181B"/>
<path d="M55.1363 43.3606C55.1363 43.3606 53.2515 42.8822 51.9307 45.0726Z" fill="white"/>
<path d="M51.9303 45.3612C51.8791 45.3612 51.8279 45.3476 51.7815 45.3196C51.6447 45.2372 51.6007 45.0596 51.6831 44.9228C53.0991 42.5756 55.1871 43.0748 55.2079 43.0804C55.3623 43.1196 55.4567 43.2772 55.4167 43.4316C55.3775 43.586 55.2223 43.6804 55.0663 43.6412C54.9911 43.6228 53.3623 43.258 52.1783 45.222C52.1239 45.3116 52.0279 45.3612 51.9303 45.3612Z" fill="#18181B"/>
<path d="M52.1577 49.7783C53.1201 51.4343 54.0833 53.0903 55.0457 54.7455C55.2041 55.0183 55.3665 55.3047 55.3801 55.6199C55.3969 56.0287 55.1513 56.4135 54.8305 56.6671C54.5097 56.9207 54.1185 57.0663 53.7345 57.2079" fill="white"/>
<path d="M53.7347 57.4976C53.6171 57.4976 53.5067 57.4256 53.4635 57.3088C53.4083 57.1592 53.4843 56.9928 53.6347 56.9368C53.9931 56.8048 54.3635 56.6672 54.6515 56.44C54.9387 56.2128 55.1035 55.9112 55.0915 55.632C55.0811 55.3808 54.9299 55.1208 54.7963 54.8912L51.9083 49.924C51.8283 49.7864 51.8747 49.6088 52.0131 49.5288C52.1507 49.448 52.3283 49.4952 52.4083 49.6336L55.2963 54.6008C55.4555 54.8744 55.6531 55.2144 55.6699 55.608C55.6891 56.072 55.4427 56.5528 55.0107 56.8936C54.6507 57.1784 54.2179 57.3384 53.8355 57.4792C53.8019 57.492 53.7683 57.4976 53.7347 57.4976Z" fill="#18181B"/>
<path d="M51.3853 60.4884C52.7821 60.9748 54.3821 60.8436 55.6805 60.1348Z" fill="white"/>
<path d="M53.1189 61.066C52.4973 61.066 51.8757 60.9652 51.2901 60.7612C51.1389 60.7084 51.0597 60.5436 51.1125 60.3932C51.1653 60.242 51.3293 60.162 51.4805 60.2156C52.7981 60.6748 54.3165 60.55 55.5421 59.8812C55.6829 59.8044 55.8581 59.8564 55.9349 59.9964C56.0117 60.1364 55.9597 60.3124 55.8197 60.3892C54.9973 60.8372 54.0573 61.066 53.1189 61.066Z" fill="#18181B"/>
<path d="M129.721 149.535C129.741 152.888 76.1958 153.075 76.1758 149.725C78.1142 140.67 80.2886 132.095 83.9174 126.508C84.8622 125.054 86.4006 124.088 88.1262 123.913C88.5798 123.867 89.0358 123.822 89.4894 123.781C91.9326 123.558 94.3726 123.411 96.8102 123.34C99.643 123.254 102.471 123.269 105.294 123.388L105.299 123.39C107.823 123.494 110.341 123.682 112.858 123.953C114.581 124.135 116.302 124.356 118.02 124.614C119.981 124.908 122.535 126.424 123.316 128.249L129.721 149.535Z" fill="#E0F2FE"/>
<path d="M101.865 152.434C95.4824 152.434 89.3648 152.24 84.8408 151.891C75.896 151.202 75.8896 150.167 75.8872 149.725C75.8872 149.704 75.8888 149.683 75.8936 149.662C78.0664 139.515 80.2208 131.667 83.6752 126.348C84.6816 124.799 86.2936 123.806 88.0976 123.623C88.5528 123.578 89.0096 123.532 89.464 123.491C91.904 123.269 94.3728 123.12 96.8024 123.049C99.6408 122.962 102.502 122.978 105.307 123.098C105.319 123.098 105.331 123.099 105.343 123.102C107.849 123.206 110.387 123.394 112.89 123.664C114.61 123.846 116.351 124.07 118.064 124.326C120.063 124.626 122.742 126.167 123.583 128.133C123.587 128.142 123.591 128.153 123.594 128.163L129.999 149.449C130.007 149.475 130.011 149.502 130.011 149.53C130.014 149.958 130.02 150.96 121.697 151.708C117.016 152.129 110.654 152.384 103.783 152.426C103.142 152.432 102.502 152.434 101.865 152.434ZM76.468 149.739C76.5096 149.874 77.088 150.714 84.8848 151.314C89.8456 151.697 96.732 151.892 103.78 151.849C110.635 151.807 116.979 151.554 121.645 151.134C128.742 150.495 129.372 149.707 129.427 149.558L123.045 128.346C122.298 126.626 119.826 125.176 117.978 124.899C116.274 124.642 114.541 124.421 112.828 124.239C110.327 123.97 107.79 123.781 105.288 123.678C105.275 123.678 105.263 123.677 105.251 123.674C102.47 123.558 99.6344 123.542 96.82 123.628C94.4024 123.698 91.9456 123.846 89.5168 124.068C89.064 124.109 88.6088 124.154 88.156 124.199C86.528 124.364 85.0712 125.262 84.1608 126.664C80.7584 131.902 78.624 139.677 76.468 149.739Z" fill="#18181B"/>
<path d="M89.8913 152.131C89.8713 152.131 89.8505 152.129 89.8297 152.124C89.6737 152.091 89.5745 151.937 89.6081 151.78C89.7705 151.028 93.6281 133.288 97.1137 128.167C100.657 122.961 104.125 123.055 104.271 123.06C104.431 123.068 104.555 123.203 104.547 123.362C104.54 123.521 104.403 123.645 104.247 123.638C104.187 123.636 100.927 123.592 97.5921 128.492C94.1697 133.52 90.2129 151.719 90.1737 151.902C90.1441 152.038 90.0241 152.131 89.8913 152.131Z" fill="#18181B"/>
<path d="M112.861 120.582V123.95L112.858 123.953C110.342 123.682 107.823 123.494 105.299 123.39L105.294 123.388C107.968 123.102 108.949 121.153 109.288 120.089C109.412 119.696 109.795 119.445 110.206 119.498L112.122 119.744C112.544 119.797 112.861 120.157 112.861 120.582Z" fill="#18181B"/>
<path d="M112.857 124.243C112.847 124.243 112.837 124.242 112.827 124.241C110.327 123.971 107.79 123.783 105.287 123.68C105.246 123.679 105.206 123.668 105.17 123.65C105.054 123.592 104.989 123.465 105.012 123.339C105.034 123.212 105.135 123.115 105.263 123.101C107.749 122.835 108.679 121.044 109.012 120.001C109.178 119.473 109.694 119.142 110.242 119.211L112.157 119.458C112.722 119.529 113.149 120.013 113.149 120.583V123.951C113.149 124.028 113.118 124.102 113.064 124.156C113.01 124.21 112.934 124.243 112.857 124.243ZM107.079 123.188C108.91 123.292 110.75 123.441 112.572 123.631V120.583C112.572 120.303 112.363 120.066 112.086 120.031L110.169 119.784C109.901 119.749 109.646 119.914 109.564 120.175C109.279 121.068 108.608 122.442 107.079 123.188Z" fill="#18181B"/>
<path d="M96.8105 123.34C94.3729 123.411 91.9321 123.558 89.4897 123.781V123.603L89.6442 120.241C89.6642 119.815 89.9961 119.47 90.4217 119.435L92.3473 119.278C92.7577 119.243 93.1305 119.511 93.2369 119.91C93.5161 120.953 94.3577 122.846 96.8105 123.34Z" fill="#18181B"/>
<path d="M89.4898 124.07C89.4178 124.07 89.3482 124.043 89.2946 123.994C89.2346 123.939 89.2002 123.862 89.2002 123.78V123.603L89.3554 120.227C89.3826 119.658 89.8306 119.193 90.3978 119.146L92.3242 118.988C92.8682 118.942 93.373 119.296 93.5162 119.833C93.785 120.839 94.577 122.594 96.8666 123.056C97.0106 123.084 97.1106 123.217 97.0978 123.364C97.085 123.51 96.965 123.624 96.8178 123.628C94.4002 123.699 91.9434 123.847 89.5146 124.068C89.5074 124.07 89.4986 124.07 89.4898 124.07ZM92.4202 119.564C92.4042 119.564 92.389 119.565 92.373 119.566L90.4458 119.724C90.1674 119.747 89.9466 119.976 89.933 120.255L89.7858 123.464C91.6186 123.302 93.4658 123.182 95.2994 123.105C93.7986 122.285 93.1962 120.875 92.9586 119.984C92.8914 119.734 92.6698 119.564 92.4202 119.564Z" fill="#18181B"/>
<path d="M90.7664 137.766C89.104 143.075 85.0392 146.717 81.692 145.898C78.7224 145.176 77.3104 141.19 78.1896 136.596C78.2984 136.021 78.4432 135.435 78.6256 134.845C78.6304 134.832 78.6336 134.819 78.6384 134.806C79.1272 133.24 79.8272 131.821 80.6552 130.617C81.0072 130.103 81.3848 129.629 81.7752 129.201C83.592 127.224 85.7712 126.201 87.7128 126.674C91.0632 127.493 92.4288 132.457 90.7664 137.766Z" fill="#FFEDD5"/>
<path d="M82.6442 146.299C82.2994 146.299 81.9578 146.259 81.6234 146.178C78.5442 145.429 76.9802 141.375 77.9058 136.54C78.0178 135.947 78.1674 135.347 78.349 134.759C78.3586 134.728 78.3634 134.715 78.3682 134.701C78.8482 133.163 79.5394 131.728 80.417 130.453C80.7666 129.942 81.1522 129.455 81.5618 129.006C83.533 126.862 85.8002 125.909 87.7818 126.393C88.9922 126.689 90.0034 127.503 90.7058 128.747C91.9898 131.022 92.1154 134.426 91.0426 137.852C89.5018 142.775 85.8994 146.299 82.6442 146.299ZM86.7418 126.848C85.1962 126.848 83.5098 127.742 81.989 129.396C81.5986 129.825 81.2298 130.291 80.8946 130.781C80.0498 132.008 79.3834 133.391 78.9146 134.892C78.905 134.922 78.9002 134.936 78.8946 134.951C78.7266 135.498 78.5826 136.076 78.4746 136.649C77.609 141.171 78.9906 144.943 81.761 145.616C84.9586 146.399 88.8754 142.838 90.4914 137.679C91.517 134.403 91.4098 131.17 90.2026 129.032C89.581 127.931 88.6962 127.212 87.645 126.955C87.3514 126.883 87.049 126.848 86.7418 126.848Z" fill="#18181B"/>
<path d="M85.2897 135.609C86.0123 133.587 85.5869 131.587 84.3395 131.141C83.0922 130.695 81.4952 131.973 80.7727 133.995C80.0501 136.017 80.4755 138.018 81.7229 138.463C82.9702 138.909 84.5672 137.631 85.2897 135.609Z" fill="white"/>
<path d="M82.2456 138.839C82.0952 138.839 81.9456 138.821 81.7992 138.786C81.2832 138.66 80.8552 138.317 80.5592 137.793C80.0408 136.874 79.9864 135.509 80.4144 134.143C81.1104 131.919 82.7976 130.457 84.2568 130.813C84.7728 130.939 85.2008 131.282 85.4968 131.806C86.0152 132.725 86.0696 134.09 85.6416 135.456C85.0152 137.455 83.5872 138.839 82.2456 138.839ZM83.8192 131.339C82.7504 131.339 81.5008 132.61 80.9664 134.315C80.5912 135.515 80.628 136.738 81.0632 137.508C81.2784 137.889 81.58 138.136 81.936 138.223C83.0608 138.498 84.504 137.151 85.0896 135.283C85.4648 134.084 85.428 132.861 84.9928 132.091C84.7776 131.71 84.476 131.463 84.12 131.375C84.0216 131.351 83.9208 131.339 83.8192 131.339Z" fill="#18181B"/>
<path d="M87.0008 130.206C87.501 130.206 87.9064 129.8 87.9064 129.3C87.9064 128.8 87.501 128.395 87.0008 128.395C86.5007 128.395 86.0952 128.8 86.0952 129.3C86.0952 129.8 86.5007 130.206 87.0008 130.206Z" fill="#18181B"/>
<path d="M87.0001 130.495C86.4129 130.495 85.8993 130.061 85.8169 129.462C85.7273 128.81 86.1857 128.206 86.8385 128.116C87.1553 128.072 87.4689 128.154 87.7233 128.348C87.9777 128.541 88.1417 128.822 88.1849 129.138C88.2281 129.454 88.1457 129.768 87.9529 130.022C87.7601 130.277 87.4793 130.441 87.1633 130.484C87.1089 130.492 87.0537 130.495 87.0001 130.495ZM87.0025 128.684C86.9745 128.684 86.9457 128.686 86.9177 128.69C86.5809 128.736 86.3441 129.048 86.3905 129.385C86.4369 129.722 86.7505 129.956 87.0849 129.912C87.2481 129.89 87.3929 129.805 87.4921 129.674C87.5913 129.542 87.6345 129.38 87.6121 129.217C87.5897 129.054 87.5049 128.909 87.3737 128.81C87.2657 128.727 87.1361 128.684 87.0025 128.684Z" fill="#18181B"/>
<path d="M81.3878 130.845C81.1118 130.883 80.8454 130.791 80.6558 130.617C81.0078 130.103 81.3854 129.629 81.7758 129.2C81.9782 129.339 82.1254 129.56 82.1606 129.823C82.2294 130.32 81.8822 130.776 81.3878 130.845Z" fill="#18181B"/>
<path d="M81.2622 131.143C80.9654 131.143 80.6798 131.033 80.459 130.829C80.3534 130.733 80.335 130.572 80.4166 130.453C80.767 129.942 81.1526 129.454 81.5614 129.005C81.659 128.899 81.8198 128.88 81.939 128.962C82.2174 129.153 82.4022 129.453 82.447 129.785C82.5366 130.437 82.079 131.041 81.427 131.132C81.3726 131.14 81.3174 131.143 81.2622 131.143ZM81.0686 130.533C81.1574 130.562 81.2526 130.572 81.3486 130.558C81.6854 130.512 81.9206 130.2 81.8742 129.863C81.863 129.777 81.8326 129.695 81.7878 129.622C81.5366 129.913 81.2958 130.217 81.0686 130.533Z" fill="#18181B"/>
<path d="M88.0794 135.467C88.5796 135.467 88.985 135.062 88.985 134.562C88.985 134.062 88.5796 133.656 88.0794 133.656C87.5793 133.656 87.1738 134.062 87.1738 134.562C87.1738 135.062 87.5793 135.467 88.0794 135.467Z" fill="#18181B"/>
<path d="M88.0766 135.758C87.8174 135.758 87.567 135.674 87.3566 135.515C87.1022 135.322 86.9382 135.041 86.895 134.725C86.8518 134.409 86.9342 134.095 87.127 133.84C87.3198 133.586 87.6006 133.422 87.9166 133.379C88.571 133.288 89.1734 133.748 89.263 134.4C89.3526 135.053 88.8942 135.657 88.2414 135.747C88.1862 135.754 88.131 135.758 88.0766 135.758ZM88.079 133.946C88.051 133.946 88.023 133.948 87.995 133.952C87.8318 133.974 87.687 134.058 87.5878 134.19C87.4886 134.321 87.4454 134.484 87.4678 134.647C87.4902 134.81 87.575 134.955 87.7062 135.054C87.8374 135.154 88.0006 135.195 88.1622 135.174C88.499 135.128 88.735 134.816 88.6894 134.479C88.6478 134.17 88.3822 133.946 88.079 133.946Z" fill="#18181B"/>
<path d="M86.2249 140.839C86.7251 140.839 87.1305 140.433 87.1305 139.933C87.1305 139.433 86.7251 139.027 86.2249 139.027C85.7248 139.027 85.3193 139.433 85.3193 139.933C85.3193 140.433 85.7248 140.839 86.2249 140.839Z" fill="#18181B"/>
<path d="M86.2242 141.128C85.637 141.128 85.1234 140.694 85.041 140.095C84.9514 139.442 85.4098 138.838 86.0626 138.749C86.3794 138.705 86.693 138.787 86.9474 138.981C87.2018 139.174 87.3658 139.454 87.409 139.77C87.4986 140.423 87.0402 141.027 86.3874 141.117C86.3322 141.124 86.2778 141.128 86.2242 141.128ZM86.2266 139.316C86.1986 139.316 86.1698 139.318 86.1418 139.322C85.805 139.368 85.5682 139.68 85.6146 140.017C85.661 140.354 85.973 140.588 86.309 140.544C86.6458 140.498 86.8818 140.186 86.8362 139.849C86.8138 139.686 86.729 139.541 86.5978 139.442C86.489 139.359 86.3602 139.316 86.2266 139.316Z" fill="#18181B"/>
<path d="M81.3719 142.304C81.8721 142.304 82.2775 141.899 82.2775 141.399C82.2775 140.899 81.8721 140.493 81.3719 140.493C80.8718 140.493 80.4663 140.899 80.4663 141.399C80.4663 141.899 80.8718 142.304 81.3719 142.304Z" fill="#18181B"/>
<path d="M81.3696 142.594C81.1104 142.594 80.86 142.51 80.6496 142.351C80.3952 142.158 80.2312 141.877 80.188 141.561C80.1448 141.245 80.2272 140.931 80.42 140.676C80.6128 140.422 80.8936 140.258 81.2096 140.215C81.8616 140.123 82.4664 140.583 82.556 141.236C82.6456 141.889 82.1872 142.493 81.5344 142.583C81.4792 142.59 81.424 142.594 81.3696 142.594ZM81.3728 140.782C81.3448 140.782 81.3168 140.783 81.2888 140.787C81.1256 140.81 80.9808 140.895 80.8816 141.026C80.7824 141.157 80.7392 141.319 80.7616 141.483C80.784 141.646 80.8688 141.791 81 141.89C81.1312 141.989 81.2936 142.031 81.456 142.01C81.7928 141.963 82.0296 141.651 81.9832 141.315C81.9408 141.007 81.676 140.782 81.3728 140.782Z" fill="#18181B"/>
<path d="M78.4744 136.603C78.3784 136.616 78.2816 136.613 78.1904 136.595C78.2992 136.02 78.444 135.434 78.6264 134.844C78.948 134.945 79.1992 135.226 79.2496 135.581C79.3176 136.078 78.9704 136.534 78.4744 136.603Z" fill="#18181B"/>
<path d="M78.3545 136.9C78.2809 136.9 78.2073 136.893 78.1361 136.879C77.9793 136.849 77.8769 136.697 77.9065 136.541C78.0193 135.947 78.1681 135.347 78.3505 134.759C78.3729 134.685 78.4241 134.624 78.4929 134.588C78.5609 134.552 78.6409 134.545 78.7145 134.568C79.1497 134.705 79.4729 135.087 79.5369 135.541C79.6273 136.194 79.1681 136.799 78.5145 136.889C78.5137 136.889 78.5129 136.889 78.5121 136.89C78.4585 136.897 78.4065 136.9 78.3545 136.9ZM78.7977 135.282C78.7025 135.617 78.6185 135.954 78.5465 136.29C78.8225 136.198 79.0033 135.919 78.9625 135.621C78.9449 135.492 78.8849 135.373 78.7977 135.282Z" fill="#18181B"/>
<path d="M124.52 147.669L116.54 148.194C116.343 148.206 116.173 148.058 116.16 147.86L115.812 142.57C115.799 142.373 115.948 142.202 116.145 142.19L124.125 141.665C124.322 141.652 124.493 141.801 124.505 141.998L124.853 147.289C124.866 147.486 124.717 147.656 124.52 147.669Z" fill="white"/>
<path d="M117.385 148.425C117.002 148.425 116.636 148.288 116.345 148.033C116.028 147.755 115.837 147.369 115.809 146.948L115.584 143.523C115.556 143.101 115.694 142.694 115.972 142.376C116.251 142.059 116.636 141.868 117.058 141.841L123.172 141.439C123.595 141.412 124.001 141.549 124.319 141.828C124.636 142.106 124.827 142.492 124.855 142.913L125.08 146.338C125.137 147.208 124.476 147.963 123.606 148.02L117.492 148.423C117.456 148.424 117.42 148.425 117.385 148.425ZM123.278 142.013C123.256 142.013 123.233 142.014 123.211 142.016L117.096 142.418C116.829 142.436 116.584 142.556 116.408 142.757C116.231 142.959 116.144 143.216 116.161 143.484L116.387 146.909C116.404 147.176 116.525 147.421 116.727 147.597C116.928 147.774 117.188 147.86 117.454 147.844L123.568 147.441C124.12 147.405 124.54 146.926 124.504 146.374L124.278 142.949C124.26 142.682 124.14 142.437 123.938 142.26C123.753 142.1 123.521 142.013 123.278 142.013Z" fill="#18181B"/>
<path d="M47.7894 99.7656C47.6606 99.7656 47.543 99.6792 47.5094 99.548C47.4694 99.3936 47.563 99.2352 47.7174 99.196C49.3974 98.764 51.0238 98.1752 51.5446 96.8056C51.8582 95.9816 51.6918 95.0448 51.4774 94.0776C50.167 88.1608 47.3686 81.112 46.227 78.356C46.1662 78.2088 46.2359 78.0392 46.3839 77.9784C46.5311 77.9168 46.7006 77.9872 46.7614 78.1352C47.9094 80.9048 50.7223 87.9912 52.0431 93.9528C52.2767 95.0096 52.4566 96.0384 52.0862 97.012C51.4718 98.628 49.6934 99.2864 47.8622 99.7576C47.8374 99.7632 47.8134 99.7656 47.7894 99.7656Z" fill="#18181B"/>
<path d="M46.5336 87.6028C45.7856 87.7564 45.0592 87.2788 44.9008 86.5308C44.7472 85.7876 45.2248 85.0564 45.9728 84.9028C46.716 84.7492 47.4472 85.2268 47.6008 85.97C47.7584 86.718 47.2768 87.4484 46.5336 87.6028Z" fill="#B1E346"/>
<path d="M47.9125 91.886C47.1645 92.0396 46.4381 91.562 46.2797 90.814C46.1261 90.0708 46.6037 89.3396 47.3517 89.186C48.0949 89.0324 48.8261 89.51 48.9797 90.2532C49.1381 91.0012 48.6557 91.7324 47.9125 91.886Z" fill="#B1E346"/>
<path d="M49.2919 96.1692C48.5439 96.3228 47.8175 95.8452 47.6591 95.0972C47.5055 94.354 47.9831 93.6228 48.7311 93.4692C49.4743 93.3156 50.2055 93.7932 50.3591 94.5364C50.5175 95.2844 50.0351 96.0156 49.2919 96.1692Z" fill="#B1E346"/>
<path d="M144.461 72.6104L125.789 78.3516L129.659 90.9381L148.331 85.1968L144.461 72.6104Z" fill="#FFEDD5"/>
<path d="M128.458 90.0531C128.412 90.0531 128.365 90.0419 128.323 90.0195C128.255 89.9835 128.205 89.9219 128.182 89.8491L124.313 77.2627C124.266 77.1099 124.352 76.9483 124.504 76.9011L143.177 71.1611C143.329 71.1147 143.491 71.2003 143.538 71.3523L147.408 83.9387C147.43 84.0123 147.423 84.0915 147.387 84.1595C147.351 84.2275 147.29 84.2779 147.217 84.3003L128.544 90.0403C128.516 90.0483 128.487 90.0531 128.458 90.0531ZM124.95 77.3683L128.65 89.4019L146.769 83.8315L143.069 71.7979L124.95 77.3683Z" fill="#18181B"/>
<path d="M128.458 90.0527C128.366 90.0527 128.278 90.0087 128.222 89.9311C128.15 89.8295 128.151 89.6927 128.225 89.5927L133.776 82.0183C133.861 81.9023 134.018 81.8663 134.145 81.9343L134.86 82.3151C135.347 82.5751 135.906 82.6287 136.433 82.4663C136.96 82.3039 137.392 81.9463 137.65 81.4575L138.027 80.7415C138.094 80.6143 138.245 80.5551 138.38 80.6039L147.228 83.7519C147.346 83.7935 147.423 83.9063 147.42 84.0311C147.417 84.1559 147.335 84.2647 147.216 84.3015L128.542 90.0423C128.515 90.0487 128.486 90.0527 128.458 90.0527ZM134.095 82.5623L129.208 89.2311L146.213 84.0031L138.423 81.2319L138.162 81.7263C137.833 82.3519 137.279 82.8103 136.604 83.0183C135.928 83.2255 135.213 83.1575 134.589 82.8247L134.095 82.5623Z" fill="#18181B"/>
<path d="M135.825 83.1358C135.399 83.1358 134.976 83.031 134.589 82.8246L124.453 77.431C124.349 77.3758 124.289 77.2646 124.301 77.1478C124.312 77.0318 124.392 76.9334 124.504 76.899L143.177 71.1582C143.289 71.1238 143.41 71.1606 143.485 71.2502C143.56 71.3406 143.573 71.4662 143.518 71.5694L138.162 81.7254C137.833 82.351 137.279 82.8094 136.604 83.0174C136.348 83.0966 136.086 83.1358 135.825 83.1358ZM125.339 77.2478L134.86 82.3142C135.347 82.5742 135.906 82.6278 136.433 82.4654C136.96 82.303 137.392 81.9454 137.649 81.4566L142.681 71.9166L125.339 77.2478Z" fill="#18181B"/>
<path d="M148.507 10.0645H107.476V40.3157H148.507V10.0645Z" fill="white"/>
<path d="M145.701 13.1748H104.669V43.426H145.701V13.1748Z" fill="#E0F2FE"/>
<path d="M148.506 40.6048H107.475C107.315 40.6048 107.186 40.4752 107.186 40.3152V10.064C107.186 9.90401 107.315 9.77441 107.475 9.77441H148.506C148.666 9.77441 148.796 9.90401 148.796 10.064V40.3152C148.796 40.4752 148.666 40.6048 148.506 40.6048ZM107.765 40.0264H148.218V10.3536H107.765V40.0264Z" fill="#18181B"/>
<path d="M112.105 35.9844V45.5508L123.245 38.1452" fill="#E0F2FE"/>
<path d="M112.106 45.8399C112.058 45.8399 112.012 45.8287 111.969 45.8055C111.874 45.7551 111.816 45.6575 111.816 45.5503V35.9839C111.816 35.8239 111.946 35.6943 112.106 35.6943C112.266 35.6943 112.395 35.8239 112.395 35.9839V45.0111L123.084 37.9039C123.218 37.8151 123.397 37.8519 123.485 37.9847C123.574 38.1175 123.538 38.2975 123.404 38.3855L112.266 45.7919C112.218 45.8231 112.162 45.8399 112.106 45.8399Z" fill="#18181B"/>
<path d="M131.27 22.2766C131.27 22.9582 131.172 23.5734 130.977 24.1222C130.781 24.6702 130.507 25.1446 130.154 25.5438C129.801 25.943 129.377 26.263 128.882 26.5038C128.387 26.7454 127.841 26.899 127.243 26.9654L127.143 29.3966C127.135 29.5462 127.017 29.659 126.788 29.7334C126.559 29.8078 126.229 29.8454 125.797 29.8454C125.522 29.8454 125.292 29.839 125.105 29.827C124.917 29.8142 124.769 29.7918 124.661 29.7582C124.553 29.7254 124.475 29.6798 124.425 29.6214C124.375 29.563 124.346 29.4886 124.337 29.3966L124.225 26.4542C124.217 26.1878 124.229 25.9718 124.263 25.8054C124.297 25.6398 124.357 25.5062 124.444 25.4062C124.531 25.3062 124.641 25.2374 124.774 25.2006C124.907 25.163 125.065 25.1446 125.248 25.1446H125.422C125.863 25.1446 126.243 25.0742 126.563 24.9326C126.883 24.7918 127.147 24.6046 127.355 24.3718C127.562 24.1398 127.714 23.8646 127.809 23.5486C127.905 23.2326 127.953 22.8966 127.953 22.539C127.953 22.1398 127.897 21.7742 127.785 21.4422C127.673 21.1094 127.501 20.823 127.273 20.5814C127.045 20.3406 126.758 20.1558 126.413 20.0262C126.068 19.8974 125.662 19.8326 125.197 19.8326C124.773 19.8326 124.399 19.8742 124.075 19.9574C123.75 20.0406 123.472 20.1318 123.239 20.2318C123.006 20.331 122.813 20.423 122.659 20.5062C122.505 20.5894 122.387 20.631 122.304 20.631C122.245 20.631 122.192 20.6126 122.141 20.575C122.092 20.5374 122.05 20.4686 122.017 20.3694C121.984 20.2694 121.957 20.1286 121.936 19.9454C121.915 19.763 121.904 19.5294 121.904 19.247C121.904 18.9558 121.917 18.7446 121.941 18.611C121.966 18.4782 122.02 18.3702 122.103 18.287C122.186 18.2038 122.344 18.1062 122.577 17.9942C122.809 17.8822 123.088 17.7782 123.412 17.6822C123.737 17.587 124.098 17.5054 124.497 17.439C124.896 17.3726 125.311 17.3398 125.744 17.3398C126.725 17.3398 127.564 17.475 128.262 17.7446C128.96 18.015 129.532 18.379 129.977 18.8358C130.421 19.2934 130.747 19.8166 130.955 20.4062C131.165 20.9974 131.27 21.6206 131.27 22.2766ZM127.579 32.9622C127.579 33.303 127.553 33.5902 127.498 33.823C127.445 34.0558 127.349 34.243 127.212 34.3838C127.074 34.5254 126.892 34.627 126.663 34.6894C126.435 34.7518 126.153 34.783 125.821 34.783C125.472 34.783 125.185 34.7518 124.961 34.6894C124.736 34.627 124.555 34.5254 124.417 34.3838C124.281 34.2422 124.185 34.055 124.131 33.823C124.077 33.5902 124.049 33.3038 124.049 32.9622C124.049 32.6126 124.077 32.3198 124.131 32.083C124.185 31.8462 124.281 31.655 124.417 31.5094C124.554 31.3638 124.736 31.2598 124.961 31.1974C125.185 31.135 125.472 31.1038 125.821 31.1038C126.153 31.1038 126.434 31.135 126.663 31.1974C126.892 31.2598 127.074 31.3638 127.212 31.5094C127.349 31.655 127.445 31.8462 127.498 32.083C127.553 32.3206 127.579 32.6134 127.579 32.9622Z" fill="#18181B"/>
<path d="M28.4977 23.7284L26.6265 22.126L29.0945 17.0924L31.0177 15.7588L30.2305 22.9508C30.2129 23.8388 29.1737 24.3028 28.4977 23.7284Z" fill="#B1E346"/>
<path d="M29.1778 24.2708C28.8666 24.2708 28.5602 24.1612 28.3106 23.9484L28.3098 23.9476L26.4386 22.3452C26.3386 22.2596 26.309 22.1164 26.3666 21.998L28.8346 16.9644C28.8562 16.9204 28.889 16.882 28.9298 16.854L30.853 15.5204C30.9458 15.4556 31.0682 15.4516 31.1658 15.5092C31.2634 15.5668 31.3178 15.6764 31.3058 15.7892L30.5186 22.9812C30.5098 23.4772 30.2082 23.9348 29.733 24.1492C29.553 24.2316 29.365 24.2708 29.1778 24.2708ZM28.685 23.5084C28.9162 23.7052 29.2186 23.7476 29.4946 23.6236C29.7682 23.5004 29.9354 23.2468 29.941 22.946L30.661 16.3588L29.3218 17.2876L26.9858 22.0524L28.685 23.5084Z" fill="#18181B"/>
<path d="M28.8592 18.4003L25.0008 26.2683L14.5144 8.39952C14.0328 7.57872 14.7848 6.58592 15.7056 6.82672L37.688 12.5819L30.7216 16.7475" fill="#B1E346"/>
<path d="M25.0009 26.5567C24.8985 26.5567 24.8033 26.5023 24.7513 26.4143L14.2657 8.54546C13.9825 8.06306 14.0161 7.48626 14.3545 7.03986C14.6921 6.59346 15.2377 6.40466 15.7793 6.54626L37.7617 12.3015C37.8745 12.3311 37.9585 12.4255 37.9745 12.5407C37.9905 12.6559 37.9369 12.7703 37.8369 12.8295L30.8705 16.9951C30.7337 17.0775 30.5561 17.0327 30.4737 16.8951C30.3921 16.7583 30.4361 16.5807 30.5737 16.4983L36.9489 12.6863L15.6329 7.10546C15.2617 7.00866 14.9673 7.18786 14.8153 7.38866C14.6633 7.58946 14.5705 7.92146 14.7649 8.25186L24.9793 25.6567L28.6009 18.2719C28.6713 18.1287 28.8441 18.0687 28.9881 18.1399C29.1313 18.2103 29.1905 18.3839 29.1201 18.5271L25.2617 26.3951C25.2145 26.4911 25.1193 26.5527 25.0129 26.5567C25.0081 26.5567 25.0049 26.5567 25.0009 26.5567Z" fill="#18181B"/>
<path d="M25.4311 15.5592C25.3703 15.5592 25.3095 15.54 25.2575 15.5008L14.4663 7.38083C14.3383 7.28483 14.3127 7.10323 14.4087 6.97603C14.5047 6.84803 14.6855 6.82243 14.8135 6.91843L25.6047 15.0384C25.7327 15.1344 25.7583 15.316 25.6623 15.4432C25.6055 15.5192 25.5191 15.5592 25.4311 15.5592Z" fill="#18181B"/>
<path d="M38.364 45.7359C38.1848 43.8007 38.1104 41.6183 39.496 40.2095C40.2944 39.3983 41.4008 39.0471 42.3768 38.7383L47.268 37.1895C48.3736 36.8391 49.7504 36.4031 50.5696 35.4215C51.0056 34.8991 51.2192 34.1287 51.1128 33.4591C51.0592 33.1175 50.8976 32.6503 50.4376 32.3607L50.7456 31.8711C51.248 32.1871 51.5816 32.7191 51.6848 33.3687C51.8176 34.2087 51.5608 35.1375 51.0144 35.7927C50.0864 36.9039 48.6208 37.3679 47.4432 37.7407L42.552 39.2895C41.64 39.5783 40.6072 39.9055 39.9088 40.6151C38.6968 41.8471 38.7736 43.8767 38.9408 45.6831L38.364 45.7359Z" fill="white"/>
<path d="M34.6566 43.1215C34.1702 41.6599 34.491 39.9479 35.4726 38.7607C36.4022 37.6359 37.7654 37.0615 39.083 36.5063C40.3774 35.9607 41.6006 35.4455 42.443 34.4551L42.8838 34.8303C41.9518 35.9255 40.6078 36.4919 39.3078 37.0399C37.9966 37.5927 36.7582 38.1143 35.9182 39.1303C35.0606 40.1671 34.7814 41.6623 35.2054 42.9399L34.6566 43.1215Z" fill="white"/>
<path d="M25.7187 65.8459L25.3683 65.3851C25.9483 64.9435 26.3563 64.2123 26.5171 63.3259C26.6731 62.4651 26.5907 61.5675 26.5011 60.7939C26.1779 57.9987 25.5267 55.2403 24.5667 52.5955C24.4067 52.1539 24.2371 51.7147 24.0683 51.2755C23.4883 49.7683 22.8891 48.2107 22.6579 46.5755C22.3107 44.1179 22.9643 41.8571 24.4059 40.5283L24.7979 40.9539C23.4955 42.1539 22.9099 44.2251 23.2307 46.4939C23.4523 48.0643 24.0403 49.5907 24.6083 51.0675C24.7787 51.5107 24.9491 51.9531 25.1107 52.3979C26.0859 55.0843 26.7475 57.8875 27.0763 60.7275C27.1707 61.5427 27.2571 62.4907 27.0867 63.4299C26.8995 64.4587 26.4139 65.3163 25.7187 65.8459Z" fill="white"/>
</svg>
